<svg version="1.1" viewBox="0.0 0.0 1066.8950131233596 251.78740157480314" fill="none" stroke="none" stroke-linecap="square" stroke-miterlimit="10" xmlns:xlink="http://www.w3.org/1999/xlink" xmlns="http://www.w3.org/2000/svg"><clipPath id="p.0"><path d="m0 0l1066.895 0l0 251.7874l-1066.895 0l0 -251.7874z" clip-rule="nonzero"/></clipPath><g clip-path="url(#p.0)"><path fill="#000000" fill-opacity="0.0" d="m0 0l1066.895 0l0 251.7874l-1066.895 0z" fill-rule="evenodd"/><path fill="#fff2cc" d="m2.9827898 3.5944881l150.70866 0l0 244.59843l-150.70866 0z" fill-rule="evenodd"/><path stroke="#000000" stroke-width="1.0" stroke-linejoin="round" stroke-linecap="butt" d="m2.9827898 3.5944881l150.70866 0l0 244.59843l-150.70866 0z" fill-rule="evenodd"/><path fill="#000000" d="m13.51404 30.514486l0 -13.359375l9.015625 0l0 1.578125l-7.25 0l0 4.140625l6.265625 0l0 1.578125l-6.265625 0l0 6.0625l-1.765625 0zm11.083481 0l0 -9.671875l1.46875 0l0 1.46875q0.5625 -1.03125 1.03125 -1.359375q0.484375 -0.328125 1.0625 -0.328125q0.828125 0 1.6875 0.53125l-0.5625 1.515625q-0.609375 -0.359375 -1.203125 -0.359375q-0.546875 0 -0.96875 0.328125q-0.421875 0.328125 -0.609375 0.890625q-0.28125 0.875 -0.28125 1.921875l0 5.0625l-1.625 0zm5.618927 -4.84375q0 -2.6875 1.484375 -3.96875q1.2499981 -1.078125 3.046873 -1.078125q2.0 0 3.265625 1.3125q1.265625 1.296875 1.265625 3.609375q0 1.859375 -0.5625 2.9375q-0.5625 1.0625 -1.640625 1.65625q-1.0625 0.59375 -2.328125 0.59375q-2.03125 0 -3.281248 -1.296875q-1.25 -1.3125 -1.25 -3.765625zm1.6875 0q0 1.859375 0.7968731 2.796875q0.8125 0.921875 2.046875 0.921875q1.21875 0 2.03125 -0.921875q0.8125 -0.9375 0.8125 -2.84375q0 -1.796875 -0.8125 -2.71875q-0.8125 -0.921875 -2.03125 -0.921875q-1.234375 0 -2.046875 0.921875q-0.7968731 0.90625 -0.7968731 2.765625zm9.29759 4.84375l0 -9.671875l1.46875 0l0 1.375q1.0625 -1.59375 3.078125 -1.59375q0.875 0 1.609375 0.3125q0.734375 0.3125 1.09375 0.828125q0.375 0.5 0.515625 1.203125q0.09375 0.453125 0.09375 1.59375l0 5.953125l-1.640625 0l0 -5.890625q0 -1.0 -0.203125 -1.484375q-0.1875 -0.5 -0.671875 -0.796875q-0.484375 -0.296875 -1.140625 -0.296875q-1.046875 0 -1.8125 0.671875q-0.75 0.65625 -0.75 2.515625l0 5.28125l-1.640625 0zm13.953842 -1.46875l0.234375 1.453125q-0.6875 0.140625 -1.234375 0.140625q-0.890625 0 -1.390625 -0.28125q-0.484375 -0.28125 -0.6875 -0.734375q-0.203125 -0.46875 -0.203125 -1.9375l0 -5.578125l-1.203125 0l0 -1.265625l1.203125 0l0 -2.390625l1.625 -0.984375l0 3.375l1.65625 0l0 1.265625l-1.65625 0l0 5.671875q0 0.6875 0.078125 0.890625q0.09375 0.203125 0.28125 0.328125q0.203125 0.109375 0.578125 0.109375q0.265625 0 0.71875 -0.0625zm7.0228577 1.46875l0 -13.359375l9.65625 0l0 1.578125l-7.875 0l0 4.09375l7.375 0l0 1.5625l-7.375 0l0 4.546875l8.1875 0l0 1.578125l-9.96875 0zm12.209198 0l0 -9.671875l1.46875 0l0 1.375q1.0625 -1.59375 3.078125 -1.59375q0.875 0 1.609375 0.3125q0.734375 0.3125 1.09375 0.828125q0.375 0.5 0.515625 1.203125q0.09375 0.453125 0.09375 1.59375l0 5.953125l-1.640625 0l0 -5.890625q0 -1.0 -0.203125 -1.484375q-0.1875 -0.5 -0.671875 -0.796875q-0.484375 -0.296875 -1.140625 -0.296875q-1.046875 0 -1.8125 0.671875q-0.75 0.65625 -0.75 2.515625l0 5.28125l-1.640625 0zm16.641342 0l0 -1.21875q-0.90625 1.4375 -2.703125 1.4375q-1.15625 0 -2.125 -0.640625q-0.96875 -0.640625 -1.5 -1.78125q-0.53125 -1.140625 -0.53125 -2.625q0 -1.453125 0.484375 -2.625q0.484375 -1.1875 1.4375 -1.8125q0.96875 -0.625 2.171875 -0.625q0.875 0 1.546875 0.375q0.6875 0.359375 1.109375 0.953125l0 -4.796875l1.640625 0l0 13.359375l-1.53125 0zm-5.171875 -4.828125q0 1.859375 0.78125 2.78125q0.78125 0.921875 1.84375 0.921875q1.078125 0 1.828125 -0.875q0.75 -0.890625 0.75 -2.6875q0 -1.984375 -0.765625 -2.90625q-0.765625 -0.9375 -1.890625 -0.9375q-1.078125 0 -1.8125 0.890625q-0.734375 0.890625 -0.734375 2.8125z" fill-rule="nonzero"/><path fill="#fff2cc" d="m285.3609 3.5944881l778.5512 0l0 244.59843l-778.5512 0z" fill-rule="evenodd"/><path stroke="#000000" stroke-width="1.0" stroke-linejoin="round" stroke-linecap="butt" d="m285.3609 3.5944881l778.5512 0l0 244.59843l-778.5512 0z" fill-rule="evenodd"/><path fill="#000000" d="m295.72028 30.514486l0 -13.359375l5.015625 0q1.53125 0 2.453125 0.40625q0.921875 0.40625 1.4375 1.25q0.53125 0.84375 0.53125 1.765625q0 0.859375 -0.46875 1.625q-0.453125 0.75 -1.390625 1.203125q1.203125 0.359375 1.859375 1.21875q0.65625 0.859375 0.65625 2.015625q0 0.9375 -0.40625 1.75q-0.390625 0.796875 -0.984375 1.234375q-0.578125 0.4375 -1.453125 0.671875q-0.875 0.21875 -2.15625 0.21875l-5.09375 0zm1.78125 -7.75l2.875 0q1.1875 0 1.6875 -0.140625q0.671875 -0.203125 1.015625 -0.671875q0.34375 -0.46875 0.34375 -1.171875q0 -0.65625 -0.328125 -1.15625q-0.3125 -0.515625 -0.90625 -0.703125q-0.59375 -0.1875 -2.03125 -0.1875l-2.65625 0l0 4.03125zm0 6.171875l3.3125 0q0.859375 0 1.203125 -0.0625q0.609375 -0.109375 1.015625 -0.359375q0.421875 -0.265625 0.6875 -0.75q0.265625 -0.484375 0.265625 -1.125q0 -0.75 -0.390625 -1.296875q-0.375 -0.546875 -1.0625 -0.765625q-0.671875 -0.234375 -1.953125 -0.234375l-3.078125 0l0 4.59375zm16.849823 0.390625q-0.921875 0.765625 -1.765625 1.09375q-0.828125 0.3125 -1.796875 0.3125q-1.59375 0 -2.453125 -0.78125q-0.859375 -0.78125 -0.859375 -1.984375q0 -0.71875 0.328125 -1.296875q0.328125 -0.59375 0.84375 -0.9375q0.53125 -0.359375 1.1875 -0.546875q0.46875 -0.125 1.453125 -0.25q1.984375 -0.234375 2.921875 -0.5625q0.015625 -0.34375 0.015625 -0.421875q0 -1.0 -0.46875 -1.421875q-0.625 -0.546875 -1.875 -0.546875q-1.15625 0 -1.703125 0.40625q-0.546875 0.40625 -0.8125 1.421875l-1.609375 -0.21875q0.21875 -1.015625 0.71875 -1.640625q0.5 -0.640625 1.453125 -0.984375q0.953125 -0.34375 2.1875 -0.34375q1.25 0 2.015625 0.296875q0.78125 0.28125 1.140625 0.734375q0.375 0.4375 0.515625 1.109375q0.078125 0.421875 0.078125 1.515625l0 2.1875q0 2.28125 0.109375 2.890625q0.109375 0.59375 0.40625 1.15625l-1.703125 0q-0.265625 -0.515625 -0.328125 -1.1875zm-0.140625 -3.671875q-0.890625 0.375 -2.671875 0.625q-1.015625 0.140625 -1.4375 0.328125q-0.421875 0.1875 -0.65625 0.53125q-0.21875 0.34375 -0.21875 0.78125q0 0.65625 0.5 1.09375q0.5 0.4375 1.453125 0.4375q0.9375 0 1.671875 -0.40625q0.75 -0.421875 1.09375 -1.140625q0.265625 -0.5625 0.265625 -1.640625l0 -0.609375zm10.516327 1.3125l1.609375 0.21875q-0.265625 1.65625 -1.359375 2.609375q-1.078125 0.9375 -2.671875 0.9375q-1.984375 0 -3.1875 -1.296875q-1.203125 -1.296875 -1.203125 -3.71875q0 -1.578125 0.515625 -2.75q0.515625 -1.171875 1.578125 -1.75q1.0625 -0.59375 2.3125 -0.59375q1.578125 0 2.578125 0.796875q1.0 0.796875 1.28125 2.265625l-1.59375 0.234375q-0.234375 -0.96875 -0.8125 -1.453125q-0.578125 -0.5 -1.390625 -0.5q-1.234375 0 -2.015625 0.890625q-0.78125 0.890625 -0.78125 2.8125q0 1.953125 0.75 2.84375q0.75 0.875 1.953125 0.875q0.96875 0 1.609375 -0.59375q0.65625 -0.59375 0.828125 -1.828125zm3.015625 3.546875l0 -13.359375l1.640625 0l0 7.625l3.890625 -3.9375l2.109375 0l-3.6875 3.59375l4.0625 6.078125l-2.015625 0l-3.203125 -4.953125l-1.15625 1.125l0 3.828125l-1.640625 0zm14.745819 0l0 -13.359375l9.65625 0l0 1.578125l-7.875 0l0 4.09375l7.375 0l0 1.5625l-7.375 0l0 4.546875l8.1875 0l0 1.578125l-9.96875 0zm12.209198 0l0 -9.671875l1.46875 0l0 1.375q1.0625 -1.59375 3.078125 -1.59375q0.875 0 1.609375 0.3125q0.734375 0.3125 1.09375 0.828125q0.375 0.5 0.515625 1.203125q0.09375 0.453125 0.09375 1.59375l0 5.953125l-1.640625 0l0 -5.890625q0 -1.0 -0.203125 -1.484375q-0.1875 -0.5 -0.671875 -0.796875q-0.484375 -0.296875 -1.140625 -0.296875q-1.046875 0 -1.8125 0.671875q-0.75 0.65625 -0.75 2.515625l0 5.28125l-1.640625 0zm16.641327 0l0 -1.21875q-0.90625 1.4375 -2.703125 1.4375q-1.15625 0 -2.125 -0.640625q-0.96875 -0.640625 -1.5 -1.78125q-0.53125 -1.140625 -0.53125 -2.625q0 -1.453125 0.484375 -2.625q0.484375 -1.1875 1.4375 -1.8125q0.96875 -0.625 2.171875 -0.625q0.875 0 1.546875 0.375q0.6875 0.359375 1.109375 0.953125l0 -4.796875l1.640625 0l0 13.359375l-1.53125 0zm-5.171875 -4.828125q0 1.859375 0.78125 2.78125q0.78125 0.921875 1.84375 0.921875q1.078125 0 1.828125 -0.875q0.75 -0.890625 0.75 -2.6875q0 -1.984375 -0.765625 -2.90625q-0.765625 -0.9375 -1.890625 -0.9375q-1.078125 0 -1.8125 0.890625q-0.734375 0.890625 -0.734375 2.8125z" fill-rule="nonzero"/><path fill="#cfe2f3" d="m26.780838 50.602364l104.220474 0l0 172.8504l-104.220474 0z" fill-rule="evenodd"/><path stroke="#000000" stroke-width="1.0" stroke-linejoin="round" stroke-linecap="butt" d="m26.780838 50.602364l104.220474 0l0 172.8504l-104.220474 0z" fill-rule="evenodd"/><path fill="#000000" d="m66.01116 128.26006l1.765625 0.453125q-0.5625 2.171875 -2.0 3.328125q-1.4375 1.140625 -3.53125 1.140625q-2.15625 0 -3.515625 -0.875q-1.34375 -0.890625 -2.0625 -2.546875q-0.703125 -1.671875 -0.703125 -3.59375q0 -2.078125 0.796875 -3.625q0.796875 -1.5625 2.265625 -2.359375q1.484375 -0.8125 3.25 -0.8125q2.0 0 3.359375 1.015625q1.375 1.015625 1.90625 2.875l-1.734375 0.40625q-0.46875 -1.453125 -1.359375 -2.109375q-0.875 -0.671875 -2.203125 -0.671875q-1.546875 0 -2.578125 0.734375q-1.03125 0.734375 -1.453125 1.984375q-0.421875 1.234375 -0.421875 2.5625q0 1.703125 0.5 2.96875q0.5 1.265625 1.546875 1.90625q1.046875 0.625 2.265625 0.625q1.484375 0 2.515625 -0.859375q1.03125 -0.859375 1.390625 -2.546875zm3.6916962 4.6875l0 -13.359375l1.640625 0l0 13.359375l-1.640625 0zm4.191696 -11.46875l0 -1.890625l1.640625 0l0 1.890625l-1.640625 0zm0 11.46875l0 -9.671875l1.640625 0l0 9.671875l-1.640625 0zm10.769821 -3.109375l1.6875 0.203125q-0.40625 1.484375 -1.484375 2.3125q-1.078125 0.8125 -2.765625 0.8125q-2.125 0 -3.375 -1.296875q-1.234375 -1.3125 -1.234375 -3.671875q0 -2.453125 1.25 -3.796875q1.265625 -1.34375 3.265625 -1.34375q1.9375 0 3.15625 1.328125q1.234375 1.3125 1.234375 3.703125q0 0.15625 0 0.4375l-7.21875 0q0.09375 1.59375 0.90625 2.453125q0.8125 0.84375 2.015625 0.84375q0.90625 0 1.546875 -0.46875q0.640625 -0.484375 1.015625 -1.515625zm-5.390625 -2.65625l5.40625 0q-0.109375 -1.21875 -0.625 -1.828125q-0.78125 -0.953125 -2.03125 -0.953125q-1.125 0 -1.90625 0.765625q-0.765625 0.75 -0.84375 2.015625zm9.141342 5.765625l0 -9.671875l1.46875 0l0 1.375q1.0625 -1.59375 3.078125 -1.59375q0.875 0 1.609375 0.3125q0.734375 0.3125 1.09375 0.828125q0.375 0.5 0.515625 1.203125q0.09375 0.453125 0.09375 1.59375l0 5.953125l-1.640625 0l0 -5.890625q0 -1.0 -0.203125 -1.484375q-0.1875 -0.5 -0.671875 -0.796875q-0.484375 -0.296875 -1.140625 -0.296875q-1.046875 0 -1.8125 0.671875q-0.75 0.65625 -0.75 2.515625l0 5.28125l-1.640625 0zm13.953842 -1.46875l0.234375 1.453125q-0.6875 0.140625 -1.234375 0.140625q-0.890625 0 -1.390625 -0.28125q-0.484375 -0.28125 -0.6875 -0.734375q-0.203125 -0.46875 -0.203125 -1.9375l0 -5.578125l-1.203125 0l0 -1.265625l1.203125 0l0 -2.390625l1.625 -0.984375l0 3.375l1.65625 0l0 1.265625l-1.65625 0l0 5.671875q0 0.6875 0.078125 0.890625q0.09375 0.203125 0.28125 0.328125q0.203125 0.109375 0.578125 0.109375q0.265625 0 0.71875 -0.0625z" fill-rule="nonzero"/><path fill="#000000" d="m42.827057 158.86943q-1.359375 -1.703125 -2.296875 -4.0q-0.9375 -2.296875 -0.9375 -4.765625q0 -2.15625 0.703125 -4.140625q0.828125 -2.3125 2.53125 -4.59375l1.171875 0q-1.09375 1.890625 -1.453125 2.703125q-0.546875 1.25 -0.875 2.625q-0.390625 1.703125 -0.390625 3.421875q0 4.375 2.71875 8.75l-1.171875 0zm3.212677 -3.921875l0 -13.359375l5.015625 0q1.53125 0 2.453125 0.40625q0.921875 0.40625 1.4375 1.25q0.53125 0.84375 0.53125 1.765625q0 0.859375 -0.46875 1.625q-0.453125 0.75 -1.390625 1.203125q1.203125 0.359375 1.859375 1.21875q0.65625 0.859375 0.65625 2.015625q0 0.9375 -0.40625 1.75q-0.390625 0.796875 -0.984375 1.234375q-0.578125 0.4375 -1.453125 0.671875q-0.875 0.21875 -2.15625 0.21875l-5.09375 0zm1.78125 -7.75l2.875 0q1.1875 0 1.6875 -0.140625q0.671875 -0.203125 1.015625 -0.671875q0.34375 -0.46875 0.34375 -1.171875q0 -0.65625 -0.328125 -1.15625q-0.3125 -0.515625 -0.90625 -0.703125q-0.59375 -0.1875 -2.03125 -0.1875l-2.65625 0l0 4.03125zm0 6.171875l3.3125 0q0.859375 0 1.203125 -0.0625q0.609375 -0.109375 1.015625 -0.359375q0.421875 -0.265625 0.6875 -0.75q0.265625 -0.484375 0.265625 -1.125q0 -0.75 -0.390625 -1.296875q-0.375 -0.546875 -1.0625 -0.765625q-0.671875 -0.234375 -1.953125 -0.234375l-3.078125 0l0 4.59375zm10.521698 1.578125l0 -9.671875l1.46875 0l0 1.46875q0.5625 -1.03125 1.03125 -1.359375q0.484375 -0.328125 1.0625 -0.328125q0.828125 0 1.6875 0.53125l-0.5625 1.515625q-0.609375 -0.359375 -1.203125 -0.359375q-0.546875 0 -0.96875 0.328125q-0.421875 0.328125 -0.609375 0.890625q-0.28125 0.875 -0.28125 1.921875l0 5.0625l-1.625 0zm5.618927 -4.84375q0 -2.6875 1.484375 -3.96875q1.25 -1.078125 3.046875 -1.078125q2.0 0 3.265625 1.3125q1.265625 1.296875 1.265625 3.609375q0 1.859375 -0.5625 2.9375q-0.5625 1.0625 -1.640625 1.65625q-1.0625 0.59375 -2.328125 0.59375q-2.03125 0 -3.28125 -1.296875q-1.25 -1.3125 -1.25 -3.765625zm1.6875 0q0 1.859375 0.796875 2.796875q0.8125 0.921875 2.046875 0.921875q1.21875 0 2.03125 -0.921875q0.8125 -0.9375 0.8125 -2.84375q0 -1.796875 -0.8125 -2.71875q-0.8125 -0.921875 -2.03125 -0.921875q-1.234375 0 -2.046875 0.921875q-0.796875 0.90625 -0.796875 2.765625zm11.078842 4.84375l-2.96875 -9.671875l1.703125 0l1.53125 5.578125l0.578125 2.078125q0.046875 -0.15625 0.5 -2.0l1.546875 -5.65625l1.6875 0l1.4375 5.609375l0.484375 1.84375l0.5625 -1.859375l1.65625 -5.59375l1.59375 0l-3.03125 9.671875l-1.703125 0l-1.53125 -5.796875l-0.375 -1.640625l-1.953125 7.4375l-1.71875 0zm11.035446 -2.890625l1.625 -0.25q0.125 0.96875 0.75 1.5q0.625 0.515625 1.75 0.515625q1.125 0 1.671875 -0.453125q0.546875 -0.46875 0.546875 -1.09375q0 -0.546875 -0.484375 -0.875q-0.328125 -0.21875 -1.671875 -0.546875q-1.8125 -0.46875 -2.515625 -0.796875q-0.6875 -0.328125 -1.046875 -0.90625q-0.359375 -0.59375 -0.359375 -1.3125q0 -0.640625 0.296875 -1.1875q0.296875 -0.5625 0.8125 -0.921875q0.375 -0.28125 1.03125 -0.46875q0.671875 -0.203125 1.421875 -0.203125q1.140625 0 2.0 0.328125q0.859375 0.328125 1.265625 0.890625q0.421875 0.5625 0.578125 1.5l-1.609375 0.21875q-0.109375 -0.75 -0.640625 -1.171875q-0.515625 -0.421875 -1.46875 -0.421875q-1.140625 0 -1.625 0.375q-0.46875 0.375 -0.46875 0.875q0 0.3125 0.1875 0.578125q0.203125 0.265625 0.640625 0.4375q0.234375 0.09375 1.4375 0.421875q1.75 0.453125 2.4375 0.75q0.6875 0.296875 1.078125 0.859375q0.390625 0.5625 0.390625 1.40625q0 0.828125 -0.484375 1.546875q-0.46875 0.71875 -1.375 1.125q-0.90625 0.390625 -2.046875 0.390625q-1.875 0 -2.875 -0.78125q-0.984375 -0.78125 -1.25 -2.328125zm16.609375 -0.21875l1.6875 0.203125q-0.40625 1.484375 -1.484375 2.3125q-1.078125 0.8125 -2.765625 0.8125q-2.125 0 -3.375 -1.296875q-1.234375 -1.3125 -1.234375 -3.671875q0 -2.453125 1.25 -3.796875q1.265625 -1.34375 3.265625 -1.34375q1.9375 0 3.15625 1.328125q1.234375 1.3125 1.234375 3.703125q0 0.15625 0 0.4375l-7.21875 0q0.09375 1.59375 0.90625 2.453125q0.8125 0.84375 2.015625 0.84375q0.90625 0 1.546875 -0.46875q0.640625 -0.484375 1.015625 -1.515625zm-5.390625 -2.65625l5.40625 0q-0.109375 -1.21875 -0.625 -1.828125q-0.78125 -0.953125 -2.03125 -0.953125q-1.125 0 -1.90625 0.765625q-0.765625 0.75 -0.84375 2.015625zm9.125717 5.765625l0 -9.671875l1.46875 0l0 1.46875q0.5625 -1.03125 1.03125 -1.359375q0.484375 -0.328125 1.0625 -0.328125q0.828125 0 1.6875 0.53125l-0.5625 1.515625q-0.609375 -0.359375 -1.203125 -0.359375q-0.546875 0 -0.96875 0.328125q-0.421875 0.328125 -0.609375 0.890625q-0.28125 0.875 -0.28125 1.921875l0 5.0625l-1.625 0zm7.306427 3.921875l-1.1875 0q2.734375 -4.375 2.734375 -8.75q0 -1.71875 -0.390625 -3.390625q-0.3125 -1.375 -0.875 -2.625q-0.359375 -0.828125 -1.46875 -2.734375l1.1875 0q1.703125 2.28125 2.53125 4.59375q0.6875 1.984375 0.6875 4.140625q0 2.46875 -0.9375 4.765625q-0.9375 2.296875 -2.28125 4.0z" fill-rule="nonzero"/><path fill="#cfe2f3" d="m301.2638 50.602364l436.5984 0l0 172.8504l-436.5984 0z" fill-rule="evenodd"/><path stroke="#000000" stroke-width="1.0" stroke-linejoin="round" stroke-linecap="butt" d="m301.2638 50.602364l436.5984 0l0 172.8504l-436.5984 0z" fill-rule="evenodd"/><path fill="#cfe2f3" d="m917.4449 50.602364l137.29132 0l0 172.8504l-137.29132 0z" fill-rule="evenodd"/><path stroke="#000000" stroke-width="1.0" stroke-linejoin="round" stroke-linecap="butt" d="m917.4449 50.602364l137.29132 0l0 172.8504l-137.29132 0z" fill-rule="evenodd"/><path fill="#000000" d="m936.7153 132.94756l0 -13.359375l5.046875 0q1.328125 0 2.03125 0.125q0.96875 0.171875 1.640625 0.640625q0.671875 0.453125 1.078125 1.28125q0.40625 0.828125 0.40625 1.828125q0 1.703125 -1.09375 2.890625q-1.078125 1.171875 -3.921875 1.171875l-3.421875 0l0 5.421875l-1.765625 0zm1.765625 -7.0l3.453125 0q1.71875 0 2.4375 -0.640625q0.71875 -0.640625 0.71875 -1.796875q0 -0.84375 -0.421875 -1.4375q-0.421875 -0.59375 -1.125 -0.78125q-0.4375 -0.125 -1.640625 -0.125l-3.421875 0l0 4.78125zm9.8654785 2.15625q0 -2.6875 1.484375 -3.96875q1.25 -1.078125 3.046875 -1.078125q2.0 0 3.265625 1.3125q1.265625 1.296875 1.265625 3.609375q0 1.859375 -0.5625 2.9375q-0.5625 1.0625 -1.640625 1.65625q-1.0625 0.59375 -2.328125 0.59375q-2.03125 0 -3.28125 -1.296875q-1.25 -1.3125 -1.25 -3.765625zm1.6875 0q0 1.859375 0.796875 2.796875q0.8125 0.921875 2.046875 0.921875q1.21875 0 2.03125 -0.921875q0.8125 -0.9375 0.8125 -2.84375q0 -1.796875 -0.8125 -2.71875q-0.8125 -0.921875 -2.03125 -0.921875q-1.234375 0 -2.046875 0.921875q-0.796875 0.90625 -0.796875 2.765625zm8.641296 1.953125l1.625 -0.25q0.125 0.96875 0.75 1.5q0.625 0.515625 1.75 0.515625q1.125 0 1.671875 -0.453125q0.546875 -0.46875 0.546875 -1.09375q0 -0.546875 -0.484375 -0.875q-0.328125 -0.21875 -1.671875 -0.546875q-1.8125 -0.46875 -2.515625 -0.796875q-0.6875 -0.328125 -1.046875 -0.90625q-0.359375 -0.59375 -0.359375 -1.3125q0 -0.640625 0.296875 -1.1875q0.296875 -0.5625 0.8125 -0.921875q0.375 -0.28125 1.03125 -0.46875q0.671875 -0.203125 1.421875 -0.203125q1.140625 0 2.0 0.328125q0.859375 0.328125 1.265625 0.890625q0.421875 0.5625 0.578125 1.5l-1.609375 0.21875q-0.109375 -0.75 -0.640625 -1.171875q-0.515625 -0.421875 -1.46875 -0.421875q-1.140625 0 -1.625 0.375q-0.46875 0.375 -0.46875 0.875q0 0.3125 0.1875 0.578125q0.203125 0.265625 0.640625 0.4375q0.234375 0.09375 1.4375 0.421875q1.75 0.453125 2.4375 0.75q0.6875 0.296875 1.078125 0.859375q0.390625 0.5625 0.390625 1.40625q0 0.828125 -0.484375 1.546875q-0.46875 0.71875 -1.375 1.125q-0.90625 0.390625 -2.046875 0.390625q-1.875 0 -2.875 -0.78125q-0.984375 -0.78125 -1.25 -2.328125zm13.5625 1.421875l0.234375 1.453125q-0.6875 0.140625 -1.234375 0.140625q-0.890625 0 -1.390625 -0.28125q-0.484375 -0.28125 -0.6875 -0.734375q-0.203125 -0.46875 -0.203125 -1.9375l0 -5.578125l-1.203125 0l0 -1.265625l1.203125 0l0 -2.390625l1.625 -0.984375l0 3.375l1.65625 0l0 1.265625l-1.65625 0l0 5.671875q0 0.6875 0.078125 0.890625q0.09375 0.203125 0.28125 0.328125q0.203125 0.109375 0.578125 0.109375q0.265625 0 0.71875 -0.0625zm1.2927246 2.265625l1.59375 0.234375q0.109375 0.75 0.5625 1.078125q0.609375 0.453125 1.671875 0.453125q1.140625 0 1.75 -0.453125q0.625 -0.453125 0.84375 -1.265625q0.125 -0.5 0.109375 -2.109375q-1.0625 1.265625 -2.671875 1.265625q-2.0 0 -3.09375 -1.4375q-1.09375 -1.4375 -1.09375 -3.453125q0 -1.390625 0.5 -2.5625q0.515625 -1.171875 1.453125 -1.796875q0.953125 -0.640625 2.25 -0.640625q1.703125 0 2.8125 1.375l0 -1.15625l1.515625 0l0 8.359375q0 2.265625 -0.46875 3.203125q-0.453125 0.9375 -1.453125 1.484375q-0.984375 0.546875 -2.453125 0.546875q-1.71875 0 -2.796875 -0.78125q-1.0625 -0.765625 -1.03125 -2.34375zm1.359375 -5.8125q0 1.90625 0.75 2.78125q0.765625 0.875 1.90625 0.875q1.125 0 1.890625 -0.859375q0.765625 -0.875 0.765625 -2.734375q0 -1.78125 -0.796875 -2.671875q-0.78125 -0.90625 -1.890625 -0.90625q-1.09375 0 -1.859375 0.890625q-0.765625 0.875 -0.765625 2.625zm9.313171 5.015625l0 -9.671875l1.46875 0l0 1.46875q0.5625 -1.03125 1.03125 -1.359375q0.484375 -0.328125 1.0625 -0.328125q0.828125 0 1.6875 0.53125l-0.5625 1.515625q-0.609375 -0.359375 -1.203125 -0.359375q-0.546875 0 -0.96875 0.328125q-0.421875 0.328125 -0.609375 0.890625q-0.28125 0.875 -0.28125 1.921875l0 5.0625l-1.625 0zm12.8533325 -3.109375l1.6875 0.203125q-0.40625 1.484375 -1.484375 2.3125q-1.078125 0.8125 -2.765625 0.8125q-2.125 0 -3.375 -1.296875q-1.234375 -1.3125 -1.234375 -3.671875q0 -2.453125 1.25 -3.796875q1.265625 -1.34375 3.265625 -1.34375q1.9375 0 3.15625 1.328125q1.234375 1.3125 1.234375 3.703125q0 0.15625 0 0.4375l-7.21875 0q0.09375 1.59375 0.90625 2.453125q0.8125 0.84375 2.015625 0.84375q0.90625 0 1.546875 -0.46875q0.640625 -0.484375 1.015625 -1.515625zm-5.390625 -2.65625l5.40625 0q-0.109375 -1.21875 -0.625 -1.828125q-0.78125 -0.953125 -2.03125 -0.953125q-1.125 0 -1.90625 0.765625q-0.765625 0.75 -0.84375 2.015625zm8.750732 1.46875l1.65625 -0.140625q0.125 1.0 0.546875 1.640625q0.4375 0.640625 1.34375 1.046875q0.921875 0.390625 2.0625 0.390625q1.0 0 1.78125 -0.296875q0.78125 -0.296875 1.15625 -0.8125q0.375 -0.53125 0.375 -1.15625q0 -0.625 -0.375 -1.09375q-0.359375 -0.46875 -1.1875 -0.796875q-0.546875 -0.203125 -2.390625 -0.640625q-1.828125 -0.453125 -2.5625 -0.84375q-0.96875 -0.5 -1.4375 -1.234375q-0.46875 -0.75 -0.46875 -1.671875q0 -1.0 0.578125 -1.875q0.578125 -0.890625 1.671875 -1.34375q1.109375 -0.453125 2.453125 -0.453125q1.484375 0 2.609375 0.484375q1.140625 0.46875 1.75 1.40625q0.609375 0.921875 0.65625 2.09375l-1.6875 0.125q-0.140625 -1.265625 -0.9375 -1.90625q-0.78125 -0.65625 -2.3125 -0.65625q-1.609375 0 -2.34375 0.59375q-0.734375 0.59375 -0.734375 1.421875q0 0.71875 0.53125 1.171875q0.5 0.46875 2.65625 0.96875q2.15625 0.484375 2.953125 0.84375q1.171875 0.53125 1.71875 1.359375q0.5625 0.828125 0.5625 1.90625q0 1.0625 -0.609375 2.015625q-0.609375 0.9375 -1.75 1.46875q-1.140625 0.515625 -2.578125 0.515625q-1.8125 0 -3.046875 -0.53125q-1.21875 -0.53125 -1.921875 -1.59375q-0.6875 -1.0625 -0.71875 -2.40625zm23.162292 2.859375q1.234436 0.859375 2.265686 1.25l-0.515625 1.21875q-1.437561 -0.515625 -2.875061 -1.625q-1.484375 0.828125 -3.28125 0.828125q-1.8125 0 -3.296875 -0.875q-1.46875 -0.875 -2.265625 -2.453125q-0.796875 -1.59375 -0.796875 -3.578125q0 -1.984375 0.796875 -3.59375q0.8125 -1.625 2.28125 -2.46875q1.484375 -0.859375 3.328125 -0.859375q1.84375 0 3.328125 0.890625q1.484436 0.875 2.265686 2.453125q0.78125 1.578125 0.78125 3.5625q0 1.65625 -0.5 2.96875q-0.5 1.3125 -1.515686 2.28125zm-3.890625 -2.25q1.53125 0.421875 2.515625 1.28125q1.5625 -1.421875 1.5625 -4.28125q0 -1.625 -0.546875 -2.828125q-0.546875 -1.21875 -1.609375 -1.875q-1.0625 -0.671875 -2.390625 -0.671875q-1.96875 0 -3.28125 1.359375q-1.296875 1.34375 -1.296875 4.03125q0 2.59375 1.28125 4.0q1.296875 1.390625 3.296875 1.390625q0.953125 0 1.78125 -0.359375q-0.828125 -0.53125 -1.75 -0.765625l0.4375 -1.28125zm8.198914 3.6875l0 -13.359375l1.78125 0l0 11.78125l6.5625 0l0 1.578125l-8.34375 0z" fill-rule="nonzero"/><path fill="#000000" d="m960.75214 152.05693l1.625 -0.25q0.125 0.96875 0.75 1.5q0.625 0.515625 1.75 0.515625q1.125 0 1.671875 -0.453125q0.546875 -0.46875 0.546875 -1.09375q0 -0.546875 -0.484375 -0.875q-0.328125 -0.21875 -1.671875 -0.546875q-1.8125 -0.46875 -2.515625 -0.796875q-0.6875 -0.328125 -1.046875 -0.90625q-0.359375 -0.59375 -0.359375 -1.3125q0 -0.640625 0.296875 -1.1875q0.296875 -0.5625 0.8125 -0.921875q0.375 -0.28125 1.03125 -0.46875q0.671875 -0.203125 1.421875 -0.203125q1.140625 0 2.0 0.328125q0.859375 0.328125 1.265625 0.890625q0.421875 0.5625 0.578125 1.5l-1.609375 0.21875q-0.109375 -0.75 -0.640625 -1.171875q-0.515625 -0.421875 -1.46875 -0.421875q-1.140625 0 -1.625 0.375q-0.46875 0.375 -0.46875 0.875q0 0.3125 0.1875 0.578125q0.203125 0.265625 0.640625 0.4375q0.234375 0.09375 1.4375 0.421875q1.75 0.453125 2.4375 0.75q0.6875 0.296875 1.078125 0.859375q0.390625 0.5625 0.390625 1.40625q0 0.828125 -0.484375 1.546875q-0.46875 0.71875 -1.375 1.125q-0.90625 0.390625 -2.046875 0.390625q-1.875 0 -2.875 -0.78125q-0.984375 -0.78125 -1.25 -2.328125zm16.609375 -0.21875l1.6875 0.203125q-0.40625 1.484375 -1.484375 2.3125q-1.078125 0.8125 -2.765625 0.8125q-2.125 0 -3.375 -1.296875q-1.234375 -1.3125 -1.234375 -3.671875q0 -2.453125 1.25 -3.796875q1.265625 -1.34375 3.265625 -1.34375q1.9375 0 3.15625 1.328125q1.234375 1.3125 1.234375 3.703125q0 0.15625 0 0.4375l-7.21875 0q0.09375 1.59375 0.90625 2.453125q0.8125 0.84375 2.015625 0.84375q0.90625 0 1.546875 -0.46875q0.640625 -0.484375 1.015625 -1.515625zm-5.390625 -2.65625l5.40625 0q-0.109375 -1.21875 -0.625 -1.828125q-0.78125 -0.953125 -2.03125 -0.953125q-1.125 0 -1.90625 0.765625q-0.765625 0.75 -0.84375 2.015625zm9.125732 5.765625l0 -9.671875l1.46875 0l0 1.46875q0.5625 -1.03125 1.03125 -1.359375q0.484375 -0.328125 1.0625 -0.328125q0.828125 0 1.6875 0.53125l-0.5625 1.515625q-0.609375 -0.359375 -1.203125 -0.359375q-0.546875 0 -0.96875 0.328125q-0.421875 0.328125 -0.609375 0.890625q-0.28125 0.875 -0.28125 1.921875l0 5.0625l-1.625 0zm8.9158325 0l-3.6875 -9.671875l1.734375 0l2.078125 5.796875q0.328125 0.9375 0.625 1.9375q0.203125 -0.765625 0.609375 -1.828125l2.140625 -5.90625l1.6875 0l-3.65625 9.671875l-1.53125 0zm13.265625 -3.109375l1.6875 0.203125q-0.40625 1.484375 -1.484375 2.3125q-1.078125 0.8125 -2.765625 0.8125q-2.125 0 -3.375 -1.296875q-1.234375 -1.3125 -1.234375 -3.671875q0 -2.453125 1.25 -3.796875q1.265625 -1.34375 3.265625 -1.34375q1.9375 0 3.15625 1.328125q1.234375 1.3125 1.234375 3.703125q0 0.15625 0 0.4375l-7.21875 0q0.09375 1.59375 0.90625 2.453125q0.8125 0.84375 2.015625 0.84375q0.90625 0 1.546875 -0.46875q0.640625 -0.484375 1.015625 -1.515625zm-5.390625 -2.65625l5.40625 0q-0.109375 -1.21875 -0.625 -1.828125q-0.78125 -0.953125 -2.03125 -0.953125q-1.125 0 -1.90625 0.765625q-0.765625 0.75 -0.84375 2.015625zm9.125671 5.765625l0 -9.671875l1.46875 0l0 1.46875q0.5625 -1.03125 1.03125 -1.359375q0.484375 -0.328125 1.0625 -0.328125q0.828125 0 1.6875 0.53125l-0.5625 1.515625q-0.609375 -0.359375 -1.203125 -0.359375q-0.546875 0 -0.96875 0.328125q-0.421875 0.328125 -0.609375 0.890625q-0.28125 0.875 -0.28125 1.921875l0 5.0625l-1.625 0z" fill-rule="nonzero"/><path fill="#d9ead3" d="m162.92783 79.75197l90.04724 0l0 -11.574806l23.149628 23.149612l-23.149628 23.149605l0 -11.574806l-90.04724 0z" fill-rule="evenodd"/><path stroke="#000000" stroke-width="1.0" stroke-linejoin="round" stroke-linecap="butt" d="m162.92783 79.75197l90.04724 0l0 -11.574806l23.149628 23.149612l-23.149628 23.149605l0 -11.574806l-90.04724 0z" fill-rule="evenodd"/><path fill="#000000" d="m174.13095 92.4249l1.6875 0q0.5625 0 1.078125 -0.171875q0.515625 -0.171875 0.90625 -0.5q0.390625 -0.3125 0.609375 -0.78125q0.21875 -0.484375 0.21875 -1.09375q0 -0.625 -0.21875 -1.09375q-0.21875 -0.46875 -0.609375 -0.796875q-0.390625 -0.328125 -0.90625 -0.484375q-0.515625 -0.171875 -1.078125 -0.1875l-2.765625 0l0 8.53125l1.078125 0l0 -3.421875zm0 -0.890625l0 -3.328125l1.6875 0q0.375 0 0.6875 0.125q0.328125 0.109375 0.5625 0.328125q0.21875 0.21875 0.34375 0.53125q0.140625 0.3125 0.140625 0.703125q0 0.375 -0.140625 0.6875q-0.125 0.296875 -0.359375 0.5q-0.234375 0.21875 -0.546875 0.34375q-0.3125 0.109375 -0.6875 0.109375l-1.6875 0zm11.560547 0.53125l0 -0.96875q0 -0.453125 -0.078125 -0.921875q-0.0625 -0.46875 -0.21875 -0.90625q-0.15625 -0.4375 -0.40625 -0.8125q-0.234375 -0.375 -0.5625 -0.65625q-0.328125 -0.28125 -0.75 -0.4375q-0.421875 -0.171875 -0.953125 -0.171875q-0.53125 0 -0.953125 0.171875q-0.421875 0.15625 -0.75 0.4375q-0.328125 0.28125 -0.578125 0.671875q-0.234375 0.375 -0.375 0.8125q-0.15625 0.421875 -0.234375 0.890625q-0.078125 0.46875 -0.078125 0.921875l0 0.96875q0 0.46875 0.078125 0.9375q0.078125 0.453125 0.234375 0.890625q0.15625 0.421875 0.390625 0.8125q0.25 0.375 0.578125 0.65625q0.328125 0.28125 0.75 0.453125q0.421875 0.15625 0.953125 0.15625q0.515625 0 0.9375 -0.15625q0.4375 -0.171875 0.765625 -0.453125q0.328125 -0.28125 0.5625 -0.65625q0.234375 -0.375 0.390625 -0.8125q0.15625 -0.4375 0.21875 -0.890625q0.078125 -0.46875 0.078125 -0.9375zm-1.0625 -0.984375l0 0.984375q-0.015625 0.3125 -0.046875 0.65625q-0.03125 0.328125 -0.109375 0.640625q-0.09375 0.328125 -0.234375 0.625q-0.125 0.296875 -0.328125 0.515625q-0.21875 0.234375 -0.515625 0.375q-0.28125 0.125 -0.65625 0.125q-0.390625 0 -0.671875 -0.125q-0.28125 -0.140625 -0.5 -0.375q-0.203125 -0.21875 -0.34375 -0.515625q-0.140625 -0.296875 -0.234375 -0.625q-0.09375 -0.328125 -0.140625 -0.65625q-0.03125 -0.328125 -0.03125 -0.640625l0 -0.984375q0 -0.296875 0.03125 -0.625q0.046875 -0.328125 0.140625 -0.65625q0.078125 -0.328125 0.21875 -0.625q0.140625 -0.296875 0.359375 -0.515625q0.203125 -0.21875 0.484375 -0.359375q0.296875 -0.140625 0.671875 -0.140625q0.375 0 0.65625 0.140625q0.296875 0.125 0.515625 0.34375q0.203125 0.234375 0.34375 0.53125q0.140625 0.296875 0.234375 0.625q0.078125 0.328125 0.109375 0.65625q0.03125 0.328125 0.046875 0.625zm7.185547 2.609375q0 0.34375 -0.15625 0.609375q-0.140625 0.25 -0.390625 0.421875q-0.234375 0.15625 -0.546875 0.25q-0.3125 0.078125 -0.625 0.078125q-0.390625 0 -0.734375 -0.109375q-0.328125 -0.109375 -0.59375 -0.328125q-0.25 -0.21875 -0.421875 -0.515625q-0.15625 -0.3125 -0.21875 -0.71875l-1.109375 0q0.015625 0.5625 0.234375 1.015625q0.234375 0.4375 0.625 0.765625q0.4375 0.390625 1.015625 0.609375q0.59375 0.203125 1.203125 0.203125q0.515625 0 1.015625 -0.140625q0.515625 -0.15625 0.921875 -0.4375q0.40625 -0.28125 0.65625 -0.703125q0.25 -0.4375 0.25 -1.015625q0 -0.5625 -0.234375 -1.0q-0.234375 -0.4375 -0.625 -0.734375q-0.390625 -0.3125 -0.875 -0.515625q-0.46875 -0.21875 -0.9375 -0.359375q-0.28125 -0.09375 -0.609375 -0.203125q-0.328125 -0.125 -0.609375 -0.296875q-0.28125 -0.1875 -0.46875 -0.4375q-0.171875 -0.25 -0.171875 -0.625q0 -0.34375 0.125 -0.59375q0.140625 -0.265625 0.375 -0.4375q0.234375 -0.171875 0.53125 -0.25q0.296875 -0.09375 0.609375 -0.09375q0.390625 0 0.6875 0.125q0.3125 0.109375 0.53125 0.328125q0.21875 0.21875 0.359375 0.515625q0.140625 0.296875 0.1875 0.671875l1.109375 0q-0.015625 -0.578125 -0.265625 -1.046875q-0.234375 -0.484375 -0.625 -0.828125q-0.40625 -0.328125 -0.921875 -0.515625q-0.515625 -0.1875 -1.0625 -0.1875q-0.5 0 -1.0 0.15625q-0.5 0.15625 -0.890625 0.453125q-0.390625 0.3125 -0.640625 0.75q-0.25 0.421875 -0.25 0.96875q0 0.5625 0.25 0.96875q0.25 0.40625 0.625 0.703125q0.390625 0.296875 0.84375 0.5q0.46875 0.203125 0.921875 0.359375q0.3125 0.09375 0.640625 0.21875q0.34375 0.125 0.625 0.296875q0.28125 0.1875 0.453125 0.46875q0.1875 0.265625 0.1875 0.65625zm8.498047 -5.453125l0 -0.921875l-6.328125 0l0 0.921875l2.625 0l0 7.609375l1.0625 0l0 -7.609375l2.640625 0zm10.074219 8.34375l3.546875 -9.265625l-0.953125 0l-3.5625 9.265625l0.96875 0zm11.138672 -3.828125l0 -0.125q0 -0.5 -0.078125 -0.953125q-0.078125 -0.453125 -0.234375 -0.8125q-0.15625 -0.328125 -0.359375 -0.59375q-0.203125 -0.265625 -0.453125 -0.453125q-0.28125 -0.203125 -0.625 -0.3125q-0.34375 -0.109375 -0.75 -0.109375q-0.328125 0 -0.609375 0.0625q-0.28125 0.0625 -0.515625 0.1875q-0.1875 0.09375 -0.359375 0.234375q-0.15625 0.140625 -0.296875 0.3125l0 -3.34375l-1.078125 0l0 9.0l0.984375 0l0.0625 -0.71875q0.109375 0.125 0.21875 0.25q0.125 0.109375 0.25 0.203125q0.265625 0.1875 0.59375 0.28125q0.34375 0.109375 0.75 0.109375q0.359375 0 0.671875 -0.09375q0.3125 -0.09375 0.5625 -0.25q0.359375 -0.234375 0.609375 -0.578125q0.265625 -0.34375 0.421875 -0.78125q0.109375 -0.34375 0.171875 -0.71875q0.0625 -0.390625 0.0625 -0.796875zm-1.078125 -0.125l0 0.125q0 0.28125 -0.046875 0.546875q-0.03125 0.265625 -0.109375 0.5q-0.09375 0.3125 -0.25 0.5625q-0.15625 0.25 -0.390625 0.421875q-0.171875 0.125 -0.40625 0.203125q-0.21875 0.0625 -0.484375 0.0625q-0.28125 0 -0.515625 -0.078125q-0.234375 -0.078125 -0.421875 -0.203125q-0.1875 -0.140625 -0.328125 -0.3125q-0.140625 -0.1875 -0.25 -0.390625l0 -2.78125q0.09375 -0.203125 0.234375 -0.375q0.15625 -0.1875 0.34375 -0.328125q0.171875 -0.125 0.40625 -0.1875q0.234375 -0.078125 0.515625 -0.078125q0.265625 0 0.46875 0.0625q0.21875 0.046875 0.390625 0.15625q0.25 0.140625 0.40625 0.40625q0.171875 0.25 0.28125 0.5625q0.078125 0.25 0.109375 0.546875q0.046875 0.28125 0.046875 0.578125zm2.6074219 -0.015625l0 0.140625q0 0.671875 0.1875 1.265625q0.203125 0.578125 0.578125 1.015625q0.375 0.4375 0.90625 0.6875q0.546875 0.25 1.21875 0.25q0.65625 0 1.1875 -0.25q0.546875 -0.25 0.921875 -0.6875q0.359375 -0.4375 0.5625 -1.015625q0.203125 -0.59375 0.203125 -1.265625l0 -0.140625q0 -0.6875 -0.203125 -1.265625q-0.203125 -0.59375 -0.5625 -1.03125q-0.375 -0.421875 -0.921875 -0.671875q-0.53125 -0.25 -1.203125 -0.25q-0.671875 0 -1.203125 0.25q-0.53125 0.25 -0.90625 0.671875q-0.375 0.4375 -0.578125 1.03125q-0.1875 0.578125 -0.1875 1.265625zm1.078125 0.140625l0 -0.140625q0 -0.453125 0.109375 -0.875q0.109375 -0.4375 0.34375 -0.75q0.21875 -0.328125 0.546875 -0.515625q0.34375 -0.1875 0.796875 -0.1875q0.453125 0 0.78125 0.1875q0.34375 0.1875 0.578125 0.515625q0.21875 0.3125 0.328125 0.75q0.109375 0.421875 0.109375 0.875l0 0.140625q0 0.46875 -0.109375 0.890625q-0.109375 0.421875 -0.328125 0.75q-0.234375 0.3125 -0.578125 0.5q-0.328125 0.1875 -0.765625 0.1875q-0.453125 0 -0.796875 -0.1875q-0.34375 -0.1875 -0.5625 -0.5q-0.234375 -0.328125 -0.34375 -0.75q-0.109375 -0.421875 -0.109375 -0.890625zm6.123047 -0.140625l0 0.140625q0 0.671875 0.1875 1.265625q0.203125 0.578125 0.578125 1.015625q0.375 0.4375 0.90625 0.6875q0.546875 0.25 1.21875 0.25q0.65625 0 1.1875 -0.25q0.546875 -0.25 0.921875 -0.6875q0.359375 -0.4375 0.5625 -1.015625q0.203125 -0.59375 0.203125 -1.265625l0 -0.140625q0 -0.6875 -0.203125 -1.265625q-0.203125 -0.59375 -0.5625 -1.03125q-0.375 -0.421875 -0.921875 -0.671875q-0.53125 -0.25 -1.203125 -0.25q-0.671875 0 -1.203125 0.25q-0.53125 0.25 -0.90625 0.671875q-0.375 0.4375 -0.578125 1.03125q-0.1875 0.578125 -0.1875 1.265625zm1.078125 0.140625l0 -0.140625q0 -0.453125 0.109375 -0.875q0.109375 -0.4375 0.34375 -0.75q0.21875 -0.328125 0.546875 -0.515625q0.34375 -0.1875 0.796875 -0.1875q0.453125 0 0.78125 0.1875q0.34375 0.1875 0.578125 0.515625q0.21875 0.3125 0.328125 0.75q0.109375 0.421875 0.109375 0.875l0 0.140625q0 0.46875 -0.109375 0.890625q-0.109375 0.421875 -0.328125 0.75q-0.234375 0.3125 -0.578125 0.5q-0.328125 0.1875 -0.765625 0.1875q-0.453125 0 -0.796875 -0.1875q-0.34375 -0.1875 -0.5625 -0.5q-0.234375 -0.328125 -0.34375 -0.75q-0.109375 -0.421875 -0.109375 -0.890625zm8.326172 0.140625l2.328125 2.953125l1.375 0l-2.96875 -3.703125l2.578125 -2.640625l-1.328125 0l-2.078125 2.09375l-0.703125 0.75l0 -5.5l-1.09375 0l0 9.0l1.09375 0l0 -2.1875l0.796875 -0.765625zm9.513672 1.265625q0 0.15625 -0.0625 0.296875q-0.0625 0.125 -0.171875 0.234375q-0.171875 0.1875 -0.5 0.296875q-0.328125 0.09375 -0.75 0.09375q-0.28125 0 -0.5625 -0.046875q-0.28125 -0.0625 -0.515625 -0.203125q-0.234375 -0.140625 -0.390625 -0.375q-0.140625 -0.234375 -0.171875 -0.5625l-1.078125 0q0 0.40625 0.171875 0.78125q0.1875 0.375 0.546875 0.65625q0.34375 0.28125 0.84375 0.46875q0.5 0.171875 1.15625 0.171875q0.5625 0 1.03125 -0.140625q0.46875 -0.140625 0.8125 -0.390625q0.34375 -0.234375 0.53125 -0.578125q0.1875 -0.359375 0.1875 -0.78125q0 -0.390625 -0.171875 -0.6875q-0.15625 -0.296875 -0.46875 -0.53125q-0.328125 -0.21875 -0.796875 -0.375q-0.453125 -0.15625 -1.03125 -0.28125q-0.453125 -0.09375 -0.75 -0.1875q-0.28125 -0.09375 -0.453125 -0.203125q-0.171875 -0.125 -0.25 -0.265625q-0.0625 -0.15625 -0.0625 -0.34375q0 -0.171875 0.078125 -0.34375q0.09375 -0.171875 0.265625 -0.296875q0.171875 -0.140625 0.4375 -0.203125q0.265625 -0.078125 0.609375 -0.078125q0.328125 0 0.59375 0.09375q0.265625 0.09375 0.453125 0.234375q0.1875 0.15625 0.296875 0.359375q0.109375 0.1875 0.109375 0.390625l1.078125 0q0 -0.40625 -0.1875 -0.765625q-0.171875 -0.359375 -0.5 -0.640625q-0.328125 -0.265625 -0.796875 -0.40625q-0.46875 -0.15625 -1.046875 -0.15625q-0.546875 0 -1.0 0.140625q-0.453125 0.140625 -0.78125 0.40625q-0.328125 0.25 -0.515625 0.59375q-0.171875 0.328125 -0.171875 0.71875q0 0.390625 0.171875 0.6875q0.171875 0.296875 0.5 0.5q0.3125 0.234375 0.75 0.390625q0.453125 0.15625 1.0 0.265625q0.453125 0.09375 0.75 0.203125q0.296875 0.109375 0.484375 0.234375q0.171875 0.125 0.25 0.28125q0.078125 0.15625 0.078125 0.34375z" fill-rule="nonzero"/><path fill="#d9ead3" d="m751.62604 75.24541l136.94482 0l0 -11.574802l23.149658 23.149609l-23.149658 23.149605l0 -11.574806l-136.94482 0z" fill-rule="evenodd"/><path stroke="#000000" stroke-width="1.0" stroke-linejoin="round" stroke-linecap="butt" d="m751.62604 75.24541l136.94482 0l0 -11.574802l23.149658 23.149609l-23.149658 23.149605l0 -11.574806l-136.94482 0z" fill-rule="evenodd"/><path fill="#000000" d="m761.64166 82.80896l0 0.9375l2.0 0l0 6.65625l-2.0 0l0 0.9375l5.15625 0l0 -0.9375l-2.046875 0l0 -6.65625l2.046875 0l0 -0.9375l-5.15625 0zm12.544922 8.53125l0 -8.53125l-1.09375 0l-0.015625 6.359375l-3.3125 -6.359375l-1.09375 0l0 8.53125l1.09375 0l0.015625 -6.375l3.3125 6.375l1.09375 0zm6.326172 -2.15625q0 0.34375 -0.15625 0.609375q-0.140625 0.25 -0.390625 0.421875q-0.234375 0.15625 -0.546875 0.25q-0.3125 0.078125 -0.625 0.078125q-0.390625 0 -0.734375 -0.109375q-0.328125 -0.109375 -0.59375 -0.328125q-0.25 -0.21875 -0.421875 -0.515625q-0.15625 -0.3125 -0.21875 -0.71875l-1.109375 0q0.015625 0.5625 0.234375 1.015625q0.234375 0.4375 0.625 0.765625q0.4375 0.390625 1.015625 0.609375q0.59375 0.203125 1.203125 0.203125q0.515625 0 1.015625 -0.140625q0.515625 -0.15625 0.921875 -0.4375q0.40625 -0.28125 0.65625 -0.703125q0.25 -0.4375 0.25 -1.015625q0 -0.5625 -0.234375 -1.0q-0.234375 -0.4375 -0.625 -0.734375q-0.390625 -0.3125 -0.875 -0.515625q-0.46875 -0.21875 -0.9375 -0.359375q-0.28125 -0.09375 -0.609375 -0.203125q-0.328125 -0.125 -0.609375 -0.296875q-0.28125 -0.1875 -0.46875 -0.4375q-0.171875 -0.25 -0.171875 -0.625q0 -0.34375 0.125 -0.59375q0.140625 -0.265625 0.375 -0.4375q0.234375 -0.171875 0.53125 -0.25q0.296875 -0.09375 0.609375 -0.09375q0.390625 0 0.6875 0.125q0.3125 0.109375 0.53125 0.328125q0.21875 0.21875 0.359375 0.515625q0.140625 0.296875 0.1875 0.671875l1.109375 0q-0.015625 -0.578125 -0.265625 -1.046875q-0.234375 -0.484375 -0.625 -0.828125q-0.40625 -0.328125 -0.921875 -0.515625q-0.515625 -0.1875 -1.0625 -0.1875q-0.5 0 -1.0 0.15625q-0.5 0.15625 -0.890625 0.453125q-0.390625 0.3125 -0.640625 0.75q-0.25 0.421875 -0.25 0.96875q0 0.5625 0.25 0.96875q0.25 0.40625 0.625 0.703125q0.390625 0.296875 0.84375 0.5q0.46875 0.203125 0.921875 0.359375q0.3125 0.09375 0.640625 0.21875q0.34375 0.125 0.625 0.296875q0.28125 0.1875 0.453125 0.46875q0.1875 0.265625 0.1875 0.65625zm7.435547 -1.78125l0 -0.921875l-3.5625 0l0 -2.75l4.09375 0l0 -0.921875l-5.1875 0l0 8.53125l5.25 0l0 -0.921875l-4.15625 0l0 -3.015625l3.5625 0zm5.326172 0.453125l1.671875 3.484375l1.140625 0l0.015625 -0.078125l-1.8125 -3.640625q0.34375 -0.15625 0.640625 -0.359375q0.296875 -0.21875 0.5 -0.5q0.21875 -0.28125 0.328125 -0.625q0.125 -0.359375 0.125 -0.765625q0 -0.640625 -0.234375 -1.125q-0.21875 -0.484375 -0.609375 -0.796875q-0.390625 -0.3125 -0.921875 -0.46875q-0.53125 -0.15625 -1.125 -0.171875l-2.5 0l0 8.53125l1.078125 0l0 -3.484375l1.703125 0zm-1.703125 -0.890625l0 -3.265625l1.421875 0q0.390625 0 0.71875 0.109375q0.34375 0.109375 0.578125 0.3125q0.234375 0.203125 0.375 0.515625q0.140625 0.3125 0.140625 0.71875q0 0.390625 -0.140625 0.6875q-0.140625 0.296875 -0.390625 0.5q-0.25 0.203125 -0.578125 0.3125q-0.3125 0.109375 -0.671875 0.109375l-1.453125 0zm11.841797 -3.234375l0 -0.921875l-6.328125 0l0 0.921875l2.625 0l0 7.609375l1.0625 0l0 -7.609375l2.640625 0zm8.636719 -0.921875l0 0.9375l2.0 0l0 6.65625l-2.0 0l0 0.9375l5.15625 0l0 -0.9375l-2.046875 0l0 -6.65625l2.046875 0l0 -0.9375l-5.15625 0zm12.544922 8.53125l0 -8.53125l-1.09375 0l-0.015625 6.359375l-3.3125 -6.359375l-1.09375 0l0 8.53125l1.09375 0l0.015625 -6.375l3.3125 6.375l1.09375 0zm7.623047 -7.609375l0 -0.921875l-6.328125 0l0 0.921875l2.625 0l0 7.609375l1.0625 0l0 -7.609375l2.640625 0zm6.982422 3.828125l0 -0.96875q0 -0.453125 -0.078125 -0.921875q-0.0625 -0.46875 -0.21875 -0.90625q-0.15625 -0.4375 -0.40625 -0.8125q-0.234375 -0.375 -0.5625 -0.65625q-0.328125 -0.28125 -0.75 -0.4375q-0.421875 -0.171875 -0.953125 -0.171875q-0.53125 0 -0.953125 0.171875q-0.421875 0.15625 -0.75 0.4375q-0.328125 0.28125 -0.578125 0.671875q-0.234375 0.375 -0.375 0.8125q-0.15625 0.421875 -0.234375 0.890625q-0.078125 0.46875 -0.078125 0.921875l0 0.96875q0 0.46875 0.078125 0.9375q0.078125 0.453125 0.234375 0.890625q0.15625 0.421875 0.390625 0.8125q0.25 0.375 0.578125 0.65625q0.328125 0.28125 0.75 0.453125q0.421875 0.15625 0.953125 0.15625q0.515625 0 0.9375 -0.15625q0.4375 -0.171875 0.765625 -0.453125q0.328125 -0.28125 0.5625 -0.65625q0.234375 -0.375 0.390625 -0.8125q0.15625 -0.4375 0.21875 -0.890625q0.078125 -0.46875 0.078125 -0.9375zm-1.0625 -0.984375l0 0.984375q-0.015625 0.3125 -0.046875 0.65625q-0.03125 0.328125 -0.109375 0.640625q-0.09375 0.328125 -0.234375 0.625q-0.125 0.296875 -0.328125 0.515625q-0.21875 0.234375 -0.515625 0.375q-0.28125 0.125 -0.65625 0.125q-0.390625 0 -0.671875 -0.125q-0.28125 -0.140625 -0.5 -0.375q-0.203125 -0.21875 -0.34375 -0.515625q-0.140625 -0.296875 -0.234375 -0.625q-0.09375 -0.328125 -0.140625 -0.65625q-0.03125 -0.328125 -0.03125 -0.640625l0 -0.984375q0 -0.296875 0.03125 -0.625q0.046875 -0.328125 0.140625 -0.65625q0.078125 -0.328125 0.21875 -0.625q0.140625 -0.296875 0.359375 -0.515625q0.203125 -0.21875 0.484375 -0.359375q0.296875 -0.140625 0.671875 -0.140625q0.375 0 0.65625 0.140625q0.296875 0.125 0.515625 0.34375q0.203125 0.234375 0.34375 0.53125q0.140625 0.296875 0.234375 0.625q0.078125 0.328125 0.109375 0.65625q0.03125 0.328125 0.046875 0.625zm15.292969 1.671875l0 -0.125q0 -0.5 -0.078125 -0.953125q-0.078125 -0.453125 -0.234375 -0.8125q-0.15625 -0.328125 -0.359375 -0.59375q-0.203125 -0.265625 -0.453125 -0.453125q-0.28125 -0.203125 -0.625 -0.3125q-0.34375 -0.109375 -0.75 -0.109375q-0.328125 0 -0.609375 0.0625q-0.28125 0.0625 -0.515625 0.1875q-0.1875 0.09375 -0.359375 0.234375q-0.15625 0.140625 -0.296875 0.3125l0 -3.34375l-1.078125 0l0 9.0l0.984375 0l0.0625 -0.71875q0.109375 0.125 0.21875 0.25q0.125 0.109375 0.25 0.203125q0.265625 0.1875 0.59375 0.28125q0.34375 0.109375 0.75 0.109375q0.359375 0 0.671875 -0.09375q0.3125 -0.09375 0.5625 -0.25q0.359375 -0.234375 0.609375 -0.578125q0.265625 -0.34375 0.421875 -0.78125q0.109375 -0.34375 0.171875 -0.71875q0.0625 -0.390625 0.0625 -0.796875zm-1.078125 -0.125l0 0.125q0 0.28125 -0.046875 0.546875q-0.03125 0.265625 -0.109375 0.5q-0.09375 0.3125 -0.25 0.5625q-0.15625 0.25 -0.390625 0.421875q-0.171875 0.125 -0.40625 0.203125q-0.21875 0.0625 -0.484375 0.0625q-0.28125 0 -0.515625 -0.078125q-0.234375 -0.078125 -0.421875 -0.203125q-0.1875 -0.140625 -0.328125 -0.3125q-0.140625 -0.1875 -0.25 -0.390625l0 -2.78125q0.09375 -0.203125 0.234375 -0.375q0.15625 -0.1875 0.34375 -0.328125q0.171875 -0.125 0.40625 -0.1875q0.234375 -0.078125 0.515625 -0.078125q0.265625 0 0.46875 0.0625q0.21875 0.046875 0.390625 0.15625q0.25 0.140625 0.40625 0.40625q0.171875 0.25 0.28125 0.5625q0.078125 0.25 0.109375 0.546875q0.046875 0.28125 0.046875 0.578125zm2.6074219 -0.015625l0 0.140625q0 0.671875 0.1875 1.265625q0.203125 0.578125 0.578125 1.015625q0.375 0.4375 0.90625 0.6875q0.546875 0.25 1.21875 0.25q0.65625 0 1.1875 -0.25q0.546875 -0.25 0.921875 -0.6875q0.359375 -0.4375 0.5625 -1.015625q0.203125 -0.59375 0.203125 -1.265625l0 -0.140625q0 -0.6875 -0.203125 -1.265625q-0.203125 -0.59375 -0.5625 -1.03125q-0.375 -0.421875 -0.921875 -0.671875q-0.53125 -0.25 -1.203125 -0.25q-0.671875 0 -1.203125 0.25q-0.53125 0.25 -0.90625 0.671875q-0.375 0.4375 -0.578125 1.03125q-0.1875 0.578125 -0.1875 1.265625zm1.078125 0.140625l0 -0.140625q0 -0.453125 0.109375 -0.875q0.109375 -0.4375 0.34375 -0.75q0.21875 -0.328125 0.546875 -0.515625q0.34375 -0.1875 0.796875 -0.1875q0.453125 0 0.78125 0.1875q0.34375 0.1875 0.578125 0.515625q0.21875 0.3125 0.328125 0.75q0.109375 0.421875 0.109375 0.875l0 0.140625q0 0.46875 -0.109375 0.890625q-0.109375 0.421875 -0.328125 0.75q-0.234375 0.3125 -0.578125 0.5q-0.328125 0.1875 -0.765625 0.1875q-0.453125 0 -0.796875 -0.1875q-0.34375 -0.1875 -0.5625 -0.5q-0.234375 -0.328125 -0.34375 -0.75q-0.109375 -0.421875 -0.109375 -0.890625zm6.123047 -0.140625l0 0.140625q0 0.671875 0.1875 1.265625q0.203125 0.578125 0.578125 1.015625q0.375 0.4375 0.90625 0.6875q0.546875 0.25 1.21875 0.25q0.65625 0 1.1875 -0.25q0.546875 -0.25 0.921875 -0.6875q0.359375 -0.4375 0.5625 -1.015625q0.203125 -0.59375 0.203125 -1.265625l0 -0.140625q0 -0.6875 -0.203125 -1.265625q-0.203125 -0.59375 -0.5625 -1.03125q-0.375 -0.421875 -0.921875 -0.671875q-0.53125 -0.25 -1.203125 -0.25q-0.671875 0 -1.203125 0.25q-0.53125 0.25 -0.90625 0.671875q-0.375 0.4375 -0.578125 1.03125q-0.1875 0.578125 -0.1875 1.265625zm1.078125 0.140625l0 -0.140625q0 -0.453125 0.109375 -0.875q0.109375 -0.4375 0.34375 -0.75q0.21875 -0.328125 0.546875 -0.515625q0.34375 -0.1875 0.796875 -0.1875q0.453125 0 0.78125 0.1875q0.34375 0.1875 0.578125 0.515625q0.21875 0.3125 0.328125 0.75q0.109375 0.421875 0.109375 0.875l0 0.140625q0 0.46875 -0.109375 0.890625q-0.109375 0.421875 -0.328125 0.75q-0.234375 0.3125 -0.578125 0.5q-0.328125 0.1875 -0.765625 0.1875q-0.453125 0 -0.796875 -0.1875q-0.34375 -0.1875 -0.5625 -0.5q-0.234375 -0.328125 -0.34375 -0.75q-0.109375 -0.421875 -0.109375 -0.890625zm8.326172 0.140625l2.328125 2.953125l1.375 0l-2.96875 -3.703125l2.578125 -2.640625l-1.328125 0l-2.078125 2.09375l-0.703125 0.75l0 -5.5l-1.09375 0l0 9.0l1.09375 0l0 -2.1875l0.796875 -0.765625zm9.513672 1.265625q0 0.15625 -0.0625 0.296875q-0.0625 0.125 -0.171875 0.234375q-0.171875 0.1875 -0.5 0.296875q-0.328125 0.09375 -0.75 0.09375q-0.28125 0 -0.5625 -0.046875q-0.28125 -0.0625 -0.515625 -0.203125q-0.234375 -0.140625 -0.390625 -0.375q-0.140625 -0.234375 -0.171875 -0.5625l-1.078125 0q0 0.40625 0.171875 0.78125q0.1875 0.375 0.546875 0.65625q0.34375 0.28125 0.84375 0.46875q0.5 0.171875 1.15625 0.171875q0.5625 0 1.03125 -0.140625q0.46875 -0.140625 0.8125 -0.390625q0.34375 -0.234375 0.53125 -0.578125q0.1875 -0.359375 0.1875 -0.78125q0 -0.390625 -0.171875 -0.6875q-0.15625 -0.296875 -0.46875 -0.53125q-0.328125 -0.21875 -0.796875 -0.375q-0.453125 -0.15625 -1.03125 -0.28125q-0.453125 -0.09375 -0.75 -0.1875q-0.28125 -0.09375 -0.453125 -0.203125q-0.171875 -0.125 -0.25 -0.265625q-0.0625 -0.15625 -0.0625 -0.34375q0 -0.171875 0.078125 -0.34375q0.09375 -0.171875 0.265625 -0.296875q0.171875 -0.140625 0.4375 -0.203125q0.265625 -0.078125 0.609375 -0.078125q0.328125 0 0.59375 0.09375q0.265625 0.09375 0.453125 0.234375q0.1875 0.15625 0.296875 0.359375q0.109375 0.1875 0.109375 0.390625l1.078125 0q0 -0.40625 -0.1875 -0.765625q-0.171875 -0.359375 -0.5 -0.640625q-0.328125 -0.265625 -0.796875 -0.40625q-0.46875 -0.15625 -1.046875 -0.15625q-0.546875 0 -1.0 0.140625q-0.453125 0.140625 -0.78125 0.40625q-0.328125 0.25 -0.515625 0.59375q-0.171875 0.328125 -0.171875 0.71875q0 0.390625 0.171875 0.6875q0.171875 0.296875 0.5 0.5q0.3125 0.234375 0.75 0.390625q0.453125 0.15625 1.0 0.265625q0.453125 0.09375 0.75 0.203125q0.296875 0.109375 0.484375 0.234375q0.171875 0.125 0.25 0.28125q0.078125 0.15625 0.078125 0.34375z" fill-rule="nonzero"/><path fill="#d9ead3" d="m747.605 178.0538l23.149658 -23.149597l0 11.574799l136.94489 0l0 23.149612l-136.94489 0l0 11.574799z" fill-rule="evenodd"/><path stroke="#000000" stroke-width="1.0" stroke-linejoin="round" stroke-linecap="butt" d="m747.605 178.0538l23.149658 -23.149597l0 11.574799l136.94489 0l0 23.149612l-136.94489 0l0 11.574799z" fill-rule="evenodd"/><path fill="#000000" d="m773.3517 176.12068q-0.6875 0 -1.234375 0.296875q-0.53125 0.296875 -0.921875 0.828125l-0.015625 -0.15625l-0.046875 -0.859375l-1.03125 0l0 6.34375l1.09375 0l0 -4.0625q0.109375 -0.296875 0.265625 -0.53125q0.171875 -0.234375 0.375 -0.40625q0.25 -0.1875 0.5625 -0.28125q0.328125 -0.09375 0.734375 -0.09375q0.296875 0 0.578125 0.03125q0.296875 0.03125 0.609375 0.09375l0.140625 -1.0625q-0.15625 -0.0625 -0.484375 -0.09375q-0.328125 -0.046875 -0.625 -0.046875zm5.857422 6.578125q0.921875 0 1.546875 -0.375q0.625 -0.375 0.953125 -0.859375l-0.671875 -0.515625q-0.296875 0.390625 -0.75 0.625q-0.453125 0.234375 -1.03125 0.234375q-0.4375 0 -0.796875 -0.15625q-0.359375 -0.171875 -0.625 -0.46875q-0.25 -0.265625 -0.390625 -0.609375q-0.140625 -0.359375 -0.1875 -0.8125l0 -0.046875l4.53125 0l0 -0.484375q0 -0.671875 -0.171875 -1.234375q-0.15625 -0.5625 -0.5 -0.984375q-0.34375 -0.421875 -0.859375 -0.65625q-0.515625 -0.234375 -1.1875 -0.234375q-0.546875 0 -1.078125 0.21875q-0.515625 0.21875 -0.921875 0.640625q-0.40625 0.421875 -0.65625 1.03125q-0.234375 0.59375 -0.234375 1.375l0 0.234375q0 0.671875 0.21875 1.234375q0.21875 0.5625 0.625 0.96875q0.390625 0.40625 0.953125 0.640625q0.5625 0.234375 1.234375 0.234375zm-0.140625 -5.6875q0.40625 0 0.703125 0.15625q0.3125 0.140625 0.515625 0.390625q0.1875 0.25 0.296875 0.59375q0.125 0.328125 0.125 0.625l0 0.046875l-3.421875 0q0.0625 -0.4375 0.21875 -0.765625q0.171875 -0.34375 0.40625 -0.578125q0.234375 -0.234375 0.53125 -0.34375q0.296875 -0.125 0.625 -0.125zm8.748047 3.875q0 0.15625 -0.0625 0.296875q-0.0625 0.125 -0.171875 0.234375q-0.171875 0.1875 -0.5 0.296875q-0.328125 0.09375 -0.75 0.09375q-0.28125 0 -0.5625 -0.046875q-0.28125 -0.0625 -0.515625 -0.203125q-0.234375 -0.140625 -0.390625 -0.375q-0.140625 -0.234375 -0.171875 -0.5625l-1.078125 0q0 0.40625 0.171875 0.78125q0.1875 0.375 0.546875 0.65625q0.34375 0.28125 0.84375 0.46875q0.5 0.171875 1.15625 0.171875q0.5625 0 1.03125 -0.140625q0.46875 -0.140625 0.8125 -0.390625q0.34375 -0.234375 0.53125 -0.578125q0.1875 -0.359375 0.1875 -0.78125q0 -0.390625 -0.171875 -0.6875q-0.15625 -0.296875 -0.46875 -0.53125q-0.328125 -0.21875 -0.796875 -0.375q-0.453125 -0.15625 -1.03125 -0.28125q-0.453125 -0.09375 -0.75 -0.1875q-0.28125 -0.09375 -0.453125 -0.203125q-0.171875 -0.125 -0.25 -0.265625q-0.0625 -0.15625 -0.0625 -0.34375q0 -0.171875 0.078125 -0.34375q0.09375 -0.171875 0.265625 -0.296875q0.171875 -0.140625 0.4375 -0.203125q0.265625 -0.078125 0.609375 -0.078125q0.328125 0 0.59375 0.09375q0.265625 0.09375 0.453125 0.234375q0.1875 0.15625 0.296875 0.359375q0.109375 0.1875 0.109375 0.390625l1.078125 0q0 -0.40625 -0.1875 -0.765625q-0.171875 -0.359375 -0.5 -0.640625q-0.328125 -0.265625 -0.796875 -0.40625q-0.46875 -0.15625 -1.046875 -0.15625q-0.546875 0 -1.0 0.140625q-0.453125 0.140625 -0.78125 0.40625q-0.328125 0.25 -0.515625 0.59375q-0.171875 0.328125 -0.171875 0.71875q0 0.390625 0.171875 0.6875q0.171875 0.296875 0.5 0.5q0.3125 0.234375 0.75 0.390625q0.453125 0.15625 1.0 0.265625q0.453125 0.09375 0.75 0.203125q0.296875 0.109375 0.484375 0.234375q0.171875 0.125 0.25 0.28125q0.078125 0.15625 0.078125 0.34375zm7.169922 1.6875l0.984375 0l0 -6.34375l-1.09375 0l0 4.546875q-0.09375 0.203125 -0.234375 0.375q-0.125 0.171875 -0.296875 0.296875q-0.203125 0.15625 -0.5 0.25q-0.28125 0.078125 -0.640625 0.078125q-0.3125 0 -0.5625 -0.078125q-0.234375 -0.09375 -0.390625 -0.296875q-0.171875 -0.1875 -0.25 -0.53125q-0.078125 -0.34375 -0.078125 -0.859375l0 -3.78125l-1.078125 0l0 3.765625q0 0.71875 0.140625 1.234375q0.15625 0.5 0.453125 0.828125q0.28125 0.328125 0.6875 0.484375q0.40625 0.15625 0.90625 0.15625q0.625 0 1.09375 -0.265625q0.46875 -0.265625 0.796875 -0.734375l0.0625 0.875zm3.1855469 -9.0l0 0.9375l2.15625 0l0 7.125l-2.15625 0l0 0.9375l5.3125 0l0 -0.9375l-2.0625 0l0 -8.0625l-3.25 0zm9.607422 1.125l-1.09375 0l0 1.53125l-1.671875 0l0 0.84375l1.671875 0l0 3.4375q0 0.59375 0.15625 1.015625q0.15625 0.40625 0.421875 0.65625q0.265625 0.265625 0.625 0.390625q0.375 0.125 0.796875 0.125q0.25 0 0.5 -0.03125q0.265625 -0.015625 0.484375 -0.0625q0.234375 -0.046875 0.421875 -0.109375q0.203125 -0.0625 0.328125 -0.140625l-0.140625 -0.765625q-0.109375 0.015625 -0.265625 0.046875q-0.15625 0.03125 -0.328125 0.0625q-0.171875 0.03125 -0.359375 0.0625q-0.1875 0.015625 -0.375 0.015625q-0.234375 0 -0.453125 -0.0625q-0.203125 -0.0625 -0.375 -0.203125q-0.15625 -0.140625 -0.25 -0.375q-0.09375 -0.25 -0.09375 -0.625l0 -3.4375l2.40625 0l0 -0.84375l-2.40625 0l0 -1.53125zm6.513672 7.171875q0 0.34375 0.203125 0.578125q0.21875 0.234375 0.640625 0.234375q0.421875 0 0.640625 -0.234375q0.234375 -0.234375 0.234375 -0.578125q0 -0.359375 -0.234375 -0.59375q-0.21875 -0.25 -0.640625 -0.25q-0.421875 0 -0.640625 0.25q-0.203125 0.25 -0.203125 0.59375zm9.466797 -5.75q-0.6875 0 -1.234375 0.296875q-0.53125 0.296875 -0.921875 0.828125l-0.015625 -0.15625l-0.046875 -0.859375l-1.03125 0l0 6.34375l1.09375 0l0 -4.0625q0.109375 -0.296875 0.265625 -0.53125q0.171875 -0.234375 0.375 -0.40625q0.25 -0.1875 0.5625 -0.28125q0.328125 -0.09375 0.734375 -0.09375q0.296875 0 0.578125 0.03125q0.296875 0.03125 0.609375 0.09375l0.140625 -1.0625q-0.15625 -0.0625 -0.484375 -0.09375q-0.328125 -0.046875 -0.625 -0.046875zm2.7480469 3.21875l0 0.140625q0 0.671875 0.1875 1.265625q0.203125 0.578125 0.578125 1.015625q0.375 0.4375 0.90625 0.6875q0.546875 0.25 1.21875 0.25q0.65625 0 1.1875 -0.25q0.546875 -0.25 0.921875 -0.6875q0.359375 -0.4375 0.5625 -1.015625q0.203125 -0.59375 0.203125 -1.265625l0 -0.140625q0 -0.6875 -0.203125 -1.265625q-0.203125 -0.59375 -0.5625 -1.03125q-0.375 -0.421875 -0.921875 -0.671875q-0.53125 -0.25 -1.203125 -0.25q-0.671875 0 -1.203125 0.25q-0.53125 0.25 -0.90625 0.671875q-0.375 0.4375 -0.578125 1.03125q-0.1875 0.578125 -0.1875 1.265625zm1.078125 0.140625l0 -0.140625q0 -0.453125 0.109375 -0.875q0.109375 -0.4375 0.34375 -0.75q0.21875 -0.328125 0.546875 -0.515625q0.34375 -0.1875 0.796875 -0.1875q0.453125 0 0.78125 0.1875q0.34375 0.1875 0.578125 0.515625q0.21875 0.3125 0.328125 0.75q0.109375 0.421875 0.109375 0.875l0 0.140625q0 0.46875 -0.109375 0.890625q-0.109375 0.421875 -0.328125 0.75q-0.234375 0.3125 -0.578125 0.5q-0.328125 0.1875 -0.765625 0.1875q-0.453125 0 -0.796875 -0.1875q-0.34375 -0.1875 -0.5625 -0.5q-0.234375 -0.328125 -0.34375 -0.75q-0.109375 -0.421875 -0.109375 -0.890625zm7.029297 3.09375l0.859375 0l0.984375 -3.890625l0.15625 -0.984375l0.15625 0.984375l1.0 3.890625l0.84375 0l1.359375 -6.34375l-0.96875 0l-0.703125 4.046875l-0.15625 1.0l-0.171875 -1.0l-1.0 -4.046875l-0.703125 0l-1.015625 4.046875l-0.15625 0.90625l-0.125 -0.90625l-0.734375 -4.046875l-0.96875 0l1.34375 6.34375zm10.810547 -1.6875q0 0.15625 -0.0625 0.296875q-0.0625 0.125 -0.171875 0.234375q-0.171875 0.1875 -0.5 0.296875q-0.328125 0.09375 -0.75 0.09375q-0.28125 0 -0.5625 -0.046875q-0.28125 -0.0625 -0.515625 -0.203125q-0.234375 -0.140625 -0.390625 -0.375q-0.140625 -0.234375 -0.171875 -0.5625l-1.078125 0q0 0.40625 0.171875 0.78125q0.1875 0.375 0.546875 0.65625q0.34375 0.28125 0.84375 0.46875q0.5 0.171875 1.15625 0.171875q0.5625 0 1.03125 -0.140625q0.46875 -0.140625 0.8125 -0.390625q0.34375 -0.234375 0.53125 -0.578125q0.1875 -0.359375 0.1875 -0.78125q0 -0.390625 -0.171875 -0.6875q-0.15625 -0.296875 -0.46875 -0.53125q-0.328125 -0.21875 -0.796875 -0.375q-0.453125 -0.15625 -1.03125 -0.28125q-0.453125 -0.09375 -0.75 -0.1875q-0.28125 -0.09375 -0.453125 -0.203125q-0.171875 -0.125 -0.25 -0.265625q-0.0625 -0.15625 -0.0625 -0.34375q0 -0.171875 0.078125 -0.34375q0.09375 -0.171875 0.265625 -0.296875q0.171875 -0.140625 0.4375 -0.203125q0.265625 -0.078125 0.609375 -0.078125q0.328125 0 0.59375 0.09375q0.265625 0.09375 0.453125 0.234375q0.1875 0.15625 0.296875 0.359375q0.109375 0.1875 0.109375 0.390625l1.078125 0q0 -0.40625 -0.1875 -0.765625q-0.171875 -0.359375 -0.5 -0.640625q-0.328125 -0.265625 -0.796875 -0.40625q-0.46875 -0.15625 -1.046875 -0.15625q-0.546875 0 -1.0 0.140625q-0.453125 0.140625 -0.78125 0.40625q-0.328125 0.25 -0.515625 0.59375q-0.171875 0.328125 -0.171875 0.71875q0 0.390625 0.171875 0.6875q0.171875 0.296875 0.5 0.5q0.3125 0.234375 0.75 0.390625q0.453125 0.15625 1.0 0.265625q0.453125 0.09375 0.75 0.203125q0.296875 0.109375 0.484375 0.234375q0.171875 0.125 0.25 0.28125q0.078125 0.15625 0.078125 0.34375z" fill-rule="nonzero"/><path fill="#d9ead3" d="m162.92783 174.99344l23.149612 -23.149612l0 11.574814l90.04726 0l0 23.149597l-90.04726 0l0 11.574814z" fill-rule="evenodd"/><path stroke="#000000" stroke-width="1.0" stroke-linejoin="round" stroke-linecap="butt" d="m162.92783 174.99344l23.149612 -23.149612l0 11.574814l90.04726 0l0 23.149597l-90.04726 0l0 11.574814z" fill-rule="evenodd"/><path fill="#000000" d="m188.67451 173.06032q-0.6875 0 -1.234375 0.296875q-0.53125 0.296875 -0.921875 0.828125l-0.015625 -0.15625l-0.046875 -0.859375l-1.03125 0l0 6.34375l1.09375 0l0 -4.0625q0.109375 -0.296875 0.265625 -0.53125q0.171875 -0.234375 0.375 -0.40625q0.25 -0.1875 0.5625 -0.28125q0.328125 -0.09375 0.734375 -0.09375q0.296875 0 0.578125 0.03125q0.296875 0.03125 0.609375 0.09375l0.140625 -1.0625q-0.15625 -0.0625 -0.484375 -0.09375q-0.328125 -0.046875 -0.625 -0.046875zm5.857422 6.578125q0.921875 0 1.546875 -0.375q0.625 -0.375 0.953125 -0.859375l-0.671875 -0.515625q-0.296875 0.390625 -0.75 0.625q-0.453125 0.234375 -1.03125 0.234375q-0.4375 0 -0.796875 -0.15625q-0.359375 -0.171875 -0.625 -0.46875q-0.25 -0.265625 -0.390625 -0.609375q-0.140625 -0.359375 -0.1875 -0.8125l0 -0.046875l4.53125 0l0 -0.484375q0 -0.671875 -0.171875 -1.234375q-0.15625 -0.5625 -0.5 -0.984375q-0.34375 -0.421875 -0.859375 -0.65625q-0.515625 -0.234375 -1.1875 -0.234375q-0.546875 0 -1.078125 0.21875q-0.515625 0.21875 -0.921875 0.640625q-0.40625 0.421875 -0.65625 1.03125q-0.234375 0.59375 -0.234375 1.375l0 0.234375q0 0.671875 0.21875 1.234375q0.21875 0.5625 0.625 0.96875q0.390625 0.40625 0.953125 0.640625q0.5625 0.234375 1.234375 0.234375zm-0.140625 -5.6875q0.40625 0 0.703125 0.15625q0.3125 0.140625 0.515625 0.390625q0.1875 0.25 0.296875 0.59375q0.125 0.328125 0.125 0.625l0 0.046875l-3.421875 0q0.0625 -0.4375 0.21875 -0.765625q0.171875 -0.34375 0.40625 -0.578125q0.234375 -0.234375 0.53125 -0.34375q0.296875 -0.125 0.625 -0.125zm8.748047 3.875q0 0.15625 -0.0625 0.296875q-0.0625 0.125 -0.171875 0.234375q-0.171875 0.1875 -0.5 0.296875q-0.328125 0.09375 -0.75 0.09375q-0.28125 0 -0.5625 -0.046875q-0.28125 -0.0625 -0.515625 -0.203125q-0.234375 -0.140625 -0.390625 -0.375q-0.140625 -0.234375 -0.171875 -0.5625l-1.078125 0q0 0.40625 0.171875 0.78125q0.1875 0.375 0.546875 0.65625q0.34375 0.28125 0.84375 0.46875q0.5 0.171875 1.15625 0.171875q0.5625 0 1.03125 -0.140625q0.46875 -0.140625 0.8125 -0.390625q0.34375 -0.234375 0.53125 -0.578125q0.1875 -0.359375 0.1875 -0.78125q0 -0.390625 -0.171875 -0.6875q-0.15625 -0.296875 -0.46875 -0.53125q-0.328125 -0.21875 -0.796875 -0.375q-0.453125 -0.15625 -1.03125 -0.28125q-0.453125 -0.09375 -0.75 -0.1875q-0.28125 -0.09375 -0.453125 -0.203125q-0.171875 -0.125 -0.25 -0.265625q-0.0625 -0.15625 -0.0625 -0.34375q0 -0.171875 0.078125 -0.34375q0.09375 -0.171875 0.265625 -0.296875q0.171875 -0.140625 0.4375 -0.203125q0.265625 -0.078125 0.609375 -0.078125q0.328125 0 0.59375 0.09375q0.265625 0.09375 0.453125 0.234375q0.1875 0.15625 0.296875 0.359375q0.109375 0.1875 0.109375 0.390625l1.078125 0q0 -0.40625 -0.1875 -0.765625q-0.171875 -0.359375 -0.5 -0.640625q-0.328125 -0.265625 -0.796875 -0.40625q-0.46875 -0.15625 -1.046875 -0.15625q-0.546875 0 -1.0 0.140625q-0.453125 0.140625 -0.78125 0.40625q-0.328125 0.25 -0.515625 0.59375q-0.171875 0.328125 -0.171875 0.71875q0 0.390625 0.171875 0.6875q0.171875 0.296875 0.5 0.5q0.3125 0.234375 0.75 0.390625q0.453125 0.15625 1.0 0.265625q0.453125 0.09375 0.75 0.203125q0.296875 0.109375 0.484375 0.234375q0.171875 0.125 0.25 0.28125q0.078125 0.15625 0.078125 0.34375zm4.873047 0.984375q0 0.34375 0.203125 0.578125q0.21875 0.234375 0.640625 0.234375q0.421875 0 0.640625 -0.234375q0.234375 -0.234375 0.234375 -0.578125q0 -0.359375 -0.234375 -0.59375q-0.21875 -0.25 -0.640625 -0.25q-0.421875 0 -0.640625 0.25q-0.203125 0.25 -0.203125 0.59375zm9.529297 -0.984375q0 0.15625 -0.0625 0.296875q-0.0625 0.125 -0.171875 0.234375q-0.171875 0.1875 -0.5 0.296875q-0.328125 0.09375 -0.75 0.09375q-0.28125 0 -0.5625 -0.046875q-0.28125 -0.0625 -0.515625 -0.203125q-0.234375 -0.140625 -0.390625 -0.375q-0.140625 -0.234375 -0.171875 -0.5625l-1.078125 0q0 0.40625 0.171875 0.78125q0.1875 0.375 0.546875 0.65625q0.34375 0.28125 0.84375 0.46875q0.5 0.171875 1.15625 0.171875q0.5625 0 1.03125 -0.140625q0.46875 -0.140625 0.8125 -0.390625q0.34375 -0.234375 0.53125 -0.578125q0.1875 -0.359375 0.1875 -0.78125q0 -0.390625 -0.171875 -0.6875q-0.15625 -0.296875 -0.46875 -0.53125q-0.328125 -0.21875 -0.796875 -0.375q-0.453125 -0.15625 -1.03125 -0.28125q-0.453125 -0.09375 -0.75 -0.1875q-0.28125 -0.09375 -0.453125 -0.203125q-0.171875 -0.125 -0.25 -0.265625q-0.0625 -0.15625 -0.0625 -0.34375q0 -0.171875 0.078125 -0.34375q0.09375 -0.171875 0.265625 -0.296875q0.171875 -0.140625 0.4375 -0.203125q0.265625 -0.078125 0.609375 -0.078125q0.328125 0 0.59375 0.09375q0.265625 0.09375 0.453125 0.234375q0.1875 0.15625 0.296875 0.359375q0.109375 0.1875 0.109375 0.390625l1.078125 0q0 -0.40625 -0.1875 -0.765625q-0.171875 -0.359375 -0.5 -0.640625q-0.328125 -0.265625 -0.796875 -0.40625q-0.46875 -0.15625 -1.046875 -0.15625q-0.546875 0 -1.0 0.140625q-0.453125 0.140625 -0.78125 0.40625q-0.328125 0.25 -0.515625 0.59375q-0.171875 0.328125 -0.171875 0.71875q0 0.390625 0.171875 0.6875q0.171875 0.296875 0.5 0.5q0.3125 0.234375 0.75 0.390625q0.453125 0.15625 1.0 0.265625q0.453125 0.09375 0.75 0.203125q0.296875 0.109375 0.484375 0.234375q0.171875 0.125 0.25 0.28125q0.078125 0.15625 0.078125 0.34375zm5.794922 1.8125q0.921875 0 1.546875 -0.375q0.625 -0.375 0.953125 -0.859375l-0.671875 -0.515625q-0.296875 0.390625 -0.75 0.625q-0.453125 0.234375 -1.03125 0.234375q-0.4375 0 -0.796875 -0.15625q-0.359375 -0.171875 -0.625 -0.46875q-0.25 -0.265625 -0.390625 -0.609375q-0.140625 -0.359375 -0.1875 -0.8125l0 -0.046875l4.53125 0l0 -0.484375q0 -0.671875 -0.171875 -1.234375q-0.15625 -0.5625 -0.5 -0.984375q-0.34375 -0.421875 -0.859375 -0.65625q-0.515625 -0.234375 -1.1875 -0.234375q-0.546875 0 -1.078125 0.21875q-0.515625 0.21875 -0.921875 0.640625q-0.40625 0.421875 -0.65625 1.03125q-0.234375 0.59375 -0.234375 1.375l0 0.234375q0 0.671875 0.21875 1.234375q0.21875 0.5625 0.625 0.96875q0.390625 0.40625 0.953125 0.640625q0.5625 0.234375 1.234375 0.234375zm-0.140625 -5.6875q0.40625 0 0.703125 0.15625q0.3125 0.140625 0.515625 0.390625q0.1875 0.25 0.296875 0.59375q0.125 0.328125 0.125 0.625l0 0.046875l-3.421875 0q0.0625 -0.4375 0.21875 -0.765625q0.171875 -0.34375 0.40625 -0.578125q0.234375 -0.234375 0.53125 -0.34375q0.296875 -0.125 0.625 -0.125zm4.529297 5.5625l1.09375 0l0 -4.546875q0.109375 -0.203125 0.25 -0.375q0.15625 -0.171875 0.328125 -0.296875q0.21875 -0.15625 0.46875 -0.234375q0.265625 -0.078125 0.5625 -0.078125q0.34375 0 0.609375 0.078125q0.265625 0.078125 0.453125 0.265625q0.1875 0.171875 0.28125 0.46875q0.09375 0.296875 0.09375 0.71875l0 4.0l1.078125 0l0 -4.03125q0 -0.625 -0.15625 -1.078125q-0.140625 -0.46875 -0.4375 -0.765625q-0.28125 -0.296875 -0.6875 -0.4375q-0.40625 -0.140625 -0.90625 -0.140625q-0.375 0 -0.703125 0.109375q-0.328125 0.09375 -0.609375 0.28125q-0.1875 0.125 -0.359375 0.296875q-0.171875 0.15625 -0.3125 0.359375l-0.0625 -0.9375l-0.984375 0l0 6.34375zm6.998047 -3.21875l0 0.125q0 0.671875 0.171875 1.265625q0.1875 0.578125 0.515625 1.015625q0.328125 0.4375 0.796875 0.6875q0.46875 0.25 1.046875 0.25q0.578125 0 1.015625 -0.203125q0.453125 -0.203125 0.765625 -0.59375l0.046875 0.671875l1.0 0l0 -9.0l-1.09375 0l0 3.28125q-0.3125 -0.359375 -0.734375 -0.546875q-0.421875 -0.1875 -0.984375 -0.1875q-0.59375 0 -1.0625 0.234375q-0.46875 0.234375 -0.796875 0.671875q-0.328125 0.421875 -0.515625 1.015625q-0.171875 0.59375 -0.171875 1.3125zm1.09375 0.125l0 -0.125q0 -0.46875 0.09375 -0.890625q0.09375 -0.421875 0.3125 -0.734375q0.203125 -0.3125 0.53125 -0.5q0.328125 -0.1875 0.78125 -0.1875q0.53125 0 0.890625 0.25q0.359375 0.234375 0.5625 0.625l0 2.9375q-0.203125 0.421875 -0.5625 0.671875q-0.359375 0.25 -0.90625 0.25q-0.453125 0 -0.78125 -0.1875q-0.3125 -0.1875 -0.515625 -0.5q-0.21875 -0.328125 -0.3125 -0.734375q-0.09375 -0.421875 -0.09375 -0.875zm7.388672 -0.375l0 0.0625q0 0.84375 0.125 1.578125q0.140625 0.734375 0.359375 1.359375q0.21875 0.640625 0.5 1.15625q0.296875 0.515625 0.625 0.921875q0.3125 0.40625 0.640625 0.6875q0.328125 0.296875 0.609375 0.453125l0.234375 -0.65625q-0.234375 -0.1875 -0.484375 -0.46875q-0.234375 -0.265625 -0.453125 -0.625q-0.21875 -0.359375 -0.421875 -0.828125q-0.1875 -0.46875 -0.34375 -1.015625q-0.140625 -0.546875 -0.234375 -1.171875q-0.078125 -0.640625 -0.078125 -1.375l0 -0.078125q0 -0.765625 0.09375 -1.421875q0.09375 -0.671875 0.25 -1.21875q0.15625 -0.609375 0.40625 -1.125q0.25 -0.515625 0.515625 -0.890625q0.1875 -0.25 0.375 -0.4375q0.1875 -0.203125 0.375 -0.34375l-0.234375 -0.71875q-0.28125 0.15625 -0.609375 0.453125q-0.328125 0.28125 -0.640625 0.6875q-0.328125 0.40625 -0.625 0.9375q-0.28125 0.515625 -0.5 1.140625q-0.21875 0.625 -0.359375 1.375q-0.125 0.734375 -0.125 1.5625zm10.076172 0.0625l0 -0.0625q0 -0.890625 -0.140625 -1.609375q-0.125 -0.71875 -0.34375 -1.328125q-0.21875 -0.640625 -0.5 -1.140625q-0.28125 -0.515625 -0.609375 -0.9375q-0.328125 -0.40625 -0.65625 -0.6875q-0.328125 -0.296875 -0.609375 -0.453125l-0.234375 0.65625q0.1875 0.15625 0.390625 0.390625q0.21875 0.21875 0.40625 0.515625q0.25 0.390625 0.484375 0.90625q0.25 0.5 0.421875 1.15625q0.109375 0.4375 0.203125 1.09375q0.109375 0.640625 0.109375 1.4375l0 0.078125q0 0.6875 -0.078125 1.3125q-0.078125 0.609375 -0.203125 1.140625q-0.140625 0.5625 -0.34375 1.03125q-0.1875 0.484375 -0.40625 0.875q-0.234375 0.375 -0.484375 0.65625q-0.25 0.28125 -0.5 0.46875l0.234375 0.65625q0.28125 -0.15625 0.609375 -0.453125q0.328125 -0.28125 0.65625 -0.6875q0.3125 -0.40625 0.59375 -0.921875q0.296875 -0.515625 0.515625 -1.15625q0.234375 -0.625 0.359375 -1.359375q0.125 -0.734375 0.125 -1.578125z" fill-rule="nonzero"/><path fill="#cfe2f3" d="m316.01443 72.59974l75.93701 0l0 28.7874l-75.93701 0z" fill-rule="evenodd"/><path stroke="#000000" stroke-width="1.0" stroke-linejoin="round" stroke-linecap="butt" d="m316.01443 72.59974l75.93701 0l0 28.7874l-75.93701 0z" fill-rule="evenodd"/><path fill="#000000" d="m328.64453 91.02281l1.625 -0.25q0.125 0.96875 0.75 1.5q0.625 0.515625 1.75 0.515625q1.125 0 1.671875 -0.453125q0.546875 -0.46875 0.546875 -1.09375q0 -0.546875 -0.484375 -0.875q-0.328125 -0.21875 -1.671875 -0.546875q-1.8125 -0.46875 -2.515625 -0.796875q-0.6875 -0.328125 -1.046875 -0.90625q-0.359375 -0.59375 -0.359375 -1.3125q0 -0.640625 0.296875 -1.1875q0.296875 -0.5625 0.8125 -0.921875q0.375 -0.28125 1.03125 -0.46875q0.671875 -0.203125 1.421875 -0.203125q1.140625 0 2.0 0.328125q0.859375 0.328125 1.265625 0.890625q0.421875 0.5625 0.578125 1.5l-1.609375 0.21875q-0.109375 -0.75 -0.640625 -1.171875q-0.515625 -0.421875 -1.46875 -0.421875q-1.140625 0 -1.625 0.375q-0.46875 0.375 -0.46875 0.875q0 0.3125 0.1875 0.578125q0.203125 0.265625 0.640625 0.4375q0.234375 0.09375 1.4375 0.421875q1.75 0.453125 2.4375 0.75q0.6875 0.296875 1.078125 0.859375q0.390625 0.5625 0.390625 1.40625q0 0.828125 -0.484375 1.546875q-0.46875 0.71875 -1.375 1.125q-0.90625 0.390625 -2.046875 0.390625q-1.875 0 -2.875 -0.78125q-0.984375 -0.78125 -1.25 -2.328125zm16.609375 -0.21875l1.6875 0.203125q-0.40625 1.484375 -1.484375 2.3125q-1.078125 0.8125 -2.765625 0.8125q-2.125 0 -3.375 -1.296875q-1.234375 -1.3125 -1.234375 -3.671875q0 -2.453125 1.25 -3.796875q1.265625 -1.34375 3.265625 -1.34375q1.9375 0 3.15625 1.328125q1.234375 1.3125 1.234375 3.703125q0 0.15625 0 0.4375l-7.21875 0q0.09375 1.59375 0.90625 2.453125q0.8125 0.84375 2.015625 0.84375q0.90625 0 1.546875 -0.46875q0.640625 -0.484375 1.015625 -1.515625zm-5.390625 -2.65625l5.40625 0q-0.109375 -1.21875 -0.625 -1.828125q-0.78125 -0.953125 -2.03125 -0.953125q-1.125 0 -1.90625 0.765625q-0.765625 0.75 -0.84375 2.015625zm9.125732 5.765625l0 -9.671875l1.46875 0l0 1.46875q0.5625 -1.03125 1.03125 -1.359375q0.484375 -0.328125 1.0625 -0.328125q0.828125 0 1.6875 0.53125l-0.5625 1.515625q-0.609375 -0.359375 -1.203125 -0.359375q-0.546875 0 -0.96875 0.328125q-0.421875 0.328125 -0.609375 0.890625q-0.28125 0.875 -0.28125 1.921875l0 5.0625l-1.625 0zm8.915802 0l-3.6875 -9.671875l1.734375 0l2.078125 5.796875q0.328125 0.9375 0.625 1.9375q0.203125 -0.765625 0.609375 -1.828125l2.140625 -5.90625l1.6875 0l-3.65625 9.671875l-1.53125 0zm13.265625 -3.109375l1.6875 0.203125q-0.40625 1.484375 -1.484375 2.3125q-1.078125 0.8125 -2.765625 0.8125q-2.125 0 -3.375 -1.296875q-1.234375 -1.3125 -1.234375 -3.671875q0 -2.453125 1.25 -3.796875q1.265625 -1.34375 3.265625 -1.34375q1.9375 0 3.15625 1.328125q1.234375 1.3125 1.234375 3.703125q0 0.15625 0 0.4375l-7.21875 0q0.09375 1.59375 0.90625 2.453125q0.8125 0.84375 2.015625 0.84375q0.90625 0 1.546875 -0.46875q0.640625 -0.484375 1.015625 -1.515625zm-5.390625 -2.65625l5.40625 0q-0.109375 -1.21875 -0.625 -1.828125q-0.78125 -0.953125 -2.03125 -0.953125q-1.125 0 -1.90625 0.765625q-0.765625 0.75 -0.84375 2.015625zm9.125732 5.765625l0 -9.671875l1.46875 0l0 1.46875q0.5625 -1.03125 1.03125 -1.359375q0.484375 -0.328125 1.0625 -0.328125q0.828125 0 1.6875 0.53125l-0.5625 1.515625q-0.609375 -0.359375 -1.203125 -0.359375q-0.546875 0 -0.96875 0.328125q-0.421875 0.328125 -0.609375 0.890625q-0.28125 0.875 -0.28125 1.921875l0 5.0625l-1.625 0z" fill-rule="nonzero"/><path fill="#cfe2f3" d="m419.5761 72.59974l75.93701 0l0 28.7874l-75.93701 0z" fill-rule="evenodd"/><path stroke="#000000" stroke-width="1.0" stroke-linejoin="round" stroke-linecap="butt" d="m419.5761 72.59974l75.93701 0l0 28.7874l-75.93701 0z" fill-rule="evenodd"/><path fill="#000000" d="m434.39548 93.91344l0 -9.671875l1.46875 0l0 1.46875q0.5625 -1.03125 1.03125 -1.359375q0.484375 -0.328125 1.0625 -0.328125q0.828125 0 1.6875 0.53125l-0.5625 1.515625q-0.609375 -0.359375 -1.203125 -0.359375q-0.546875 0 -0.96875 0.328125q-0.421875 0.328125 -0.609375 0.890625q-0.28125 0.875 -0.28125 1.921875l0 5.0625l-1.625 0zm5.618927 -4.84375q0 -2.6875 1.484375 -3.96875q1.25 -1.078125 3.046875 -1.078125q2.0 0 3.265625 1.3125q1.265625 1.296875 1.265625 3.609375q0 1.859375 -0.5625 2.9375q-0.5625 1.0625 -1.640625 1.65625q-1.0625 0.59375 -2.328125 0.59375q-2.03125 0 -3.28125 -1.296875q-1.25 -1.3125 -1.25 -3.765625zm1.6875 0q0 1.859375 0.796875 2.796875q0.8125 0.921875 2.046875 0.921875q1.21875 0 2.03125 -0.921875q0.8125 -0.9375 0.8125 -2.84375q0 -1.796875 -0.8125 -2.71875q-0.8125 -0.921875 -2.03125 -0.921875q-1.234375 0 -2.046875 0.921875q-0.796875 0.90625 -0.796875 2.765625zm15.625702 4.84375l0 -1.421875q-1.125 1.640625 -3.0625 1.640625q-0.859375 0 -1.609375 -0.328125q-0.734375 -0.328125 -1.09375 -0.828125q-0.359375 -0.5 -0.5 -1.21875q-0.109375 -0.46875 -0.109375 -1.53125l0 -5.984375l1.640625 0l0 5.359375q0 1.28125 0.109375 1.734375q0.15625 0.640625 0.65625 1.015625q0.5 0.375 1.234375 0.375q0.734375 0 1.375 -0.375q0.65625 -0.390625 0.921875 -1.03125q0.265625 -0.65625 0.265625 -1.890625l0 -5.1875l1.640625 0l0 9.671875l-1.46875 0zm7.6257324 -1.46875l0.234375 1.453125q-0.6875 0.140625 -1.234375 0.140625q-0.890625 0 -1.390625 -0.28125q-0.484375 -0.28125 -0.6875 -0.734375q-0.203125 -0.46875 -0.203125 -1.9375l0 -5.578125l-1.203125 0l0 -1.265625l1.203125 0l0 -2.390625l1.625 -0.984375l0 3.375l1.65625 0l0 1.265625l-1.65625 0l0 5.671875q0 0.6875 0.078125 0.890625q0.09375 0.203125 0.28125 0.328125q0.203125 0.109375 0.578125 0.109375q0.265625 0 0.71875 -0.0625zm8.230164 -1.640625l1.6875 0.203125q-0.40625 1.484375 -1.484375 2.3125q-1.078125 0.8125 -2.765625 0.8125q-2.125 0 -3.375 -1.296875q-1.234375 -1.3125 -1.234375 -3.671875q0 -2.453125 1.25 -3.796875q1.265625 -1.34375 3.265625 -1.34375q1.9375 0 3.15625 1.328125q1.234375 1.3125 1.234375 3.703125q0 0.15625 0 0.4375l-7.21875 0q0.09375 1.59375 0.90625 2.453125q0.8125 0.84375 2.015625 0.84375q0.90625 0 1.546875 -0.46875q0.640625 -0.484375 1.015625 -1.515625zm-5.390625 -2.65625l5.40625 0q-0.109375 -1.21875 -0.625 -1.828125q-0.78125 -0.953125 -2.03125 -0.953125q-1.125 0 -1.90625 0.765625q-0.765625 0.75 -0.84375 2.015625zm9.125732 5.765625l0 -9.671875l1.46875 0l0 1.46875q0.5625 -1.03125 1.03125 -1.359375q0.484375 -0.328125 1.0625 -0.328125q0.828125 0 1.6875 0.53125l-0.5625 1.515625q-0.609375 -0.359375 -1.203125 -0.359375q-0.546875 0 -0.96875 0.328125q-0.421875 0.328125 -0.609375 0.890625q-0.28125 0.875 -0.28125 1.921875l0 5.0625l-1.625 0z" fill-rule="nonzero"/><path fill="#cfe2f3" d="m523.47766 72.59974l96.28351 0l0 28.7874l-96.28351 0z" fill-rule="evenodd"/><path stroke="#000000" stroke-width="1.0" stroke-linejoin="round" stroke-linecap="butt" d="m523.47766 72.59974l96.28351 0l0 28.7874l-96.28351 0z" fill-rule="evenodd"/><path fill="#000000" d="m540.80164 90.36656l1.609375 0.21875q-0.265625 1.65625 -1.359375 2.609375q-1.078125 0.9375 -2.671875 0.9375q-1.984375 0 -3.1875 -1.296875q-1.203125 -1.296875 -1.203125 -3.71875q0 -1.578125 0.515625 -2.75q0.515625 -1.171875 1.578125 -1.75q1.0625 -0.59375 2.3125 -0.59375q1.578125 0 2.578125 0.796875q1.0 0.796875 1.28125 2.265625l-1.59375 0.234375q-0.234375 -0.96875 -0.8125 -1.453125q-0.578125 -0.5 -1.390625 -0.5q-1.234375 0 -2.015625 0.890625q-0.78125 0.890625 -0.78125 2.8125q0 1.953125 0.75 2.84375q0.75 0.875 1.953125 0.875q0.96875 0 1.609375 -0.59375q0.65625 -0.59375 0.828125 -1.828125zm2.40625 -1.296875q0 -2.6875 1.484375 -3.96875q1.25 -1.078125 3.046875 -1.078125q2.0 0 3.265625 1.3125q1.265625 1.296875 1.265625 3.609375q0 1.859375 -0.5625 2.9375q-0.5625 1.0625 -1.640625 1.65625q-1.0625 0.59375 -2.328125 0.59375q-2.03125 0 -3.28125 -1.296875q-1.25 -1.3125 -1.25 -3.765625zm1.6875 0q0 1.859375 0.796875 2.796875q0.8125 0.921875 2.046875 0.921875q1.21875 0 2.03125 -0.921875q0.8125 -0.9375 0.8125 -2.84375q0 -1.796875 -0.8125 -2.71875q-0.8125 -0.921875 -2.03125 -0.921875q-1.234375 0 -2.046875 0.921875q-0.796875 0.90625 -0.796875 2.765625zm9.297607 4.84375l0 -9.671875l1.46875 0l0 1.375q1.0625 -1.59375 3.078125 -1.59375q0.875 0 1.609375 0.3125q0.734375 0.3125 1.09375 0.828125q0.375 0.5 0.515625 1.203125q0.09375 0.453125 0.09375 1.59375l0 5.953125l-1.640625 0l0 -5.890625q0 -1.0 -0.203125 -1.484375q-0.1875 -0.5 -0.671875 -0.796875q-0.484375 -0.296875 -1.140625 -0.296875q-1.046875 0 -1.8125 0.671875q-0.75 0.65625 -0.75 2.515625l0 5.28125l-1.640625 0zm13.953857 -1.46875l0.234375 1.453125q-0.6875 0.140625 -1.234375 0.140625q-0.890625 0 -1.390625 -0.28125q-0.484375 -0.28125 -0.6875 -0.734375q-0.203125 -0.46875 -0.203125 -1.9375l0 -5.578125l-1.203125 0l0 -1.265625l1.203125 0l0 -2.390625l1.625 -0.984375l0 3.375l1.65625 0l0 1.265625l-1.65625 0l0 5.671875q0 0.6875 0.078125 0.890625q0.09375 0.203125 0.28125 0.328125q0.203125 0.109375 0.578125 0.109375q0.265625 0 0.71875 -0.0625zm1.5895386 1.46875l0 -9.671875l1.46875 0l0 1.46875q0.5625 -1.03125 1.03125 -1.359375q0.484375 -0.328125 1.0625 -0.328125q0.828125 0 1.6875 0.53125l-0.5625 1.515625q-0.609375 -0.359375 -1.203125 -0.359375q-0.546875 0 -0.96875 0.328125q-0.421875 0.328125 -0.609375 0.890625q-0.28125 0.875 -0.28125 1.921875l0 5.0625l-1.625 0zm5.6188965 -4.84375q0 -2.6875 1.484375 -3.96875q1.25 -1.078125 3.046875 -1.078125q2.0 0 3.265625 1.3125q1.265625 1.296875 1.265625 3.609375q0 1.859375 -0.5625 2.9375q-0.5625 1.0625 -1.640625 1.65625q-1.0625 0.59375 -2.328125 0.59375q-2.03125 0 -3.28125 -1.296875q-1.25 -1.3125 -1.25 -3.765625zm1.6875 0q0 1.859375 0.796875 2.796875q0.8125 0.921875 2.046875 0.921875q1.21875 0 2.03125 -0.921875q0.8125 -0.9375 0.8125 -2.84375q0 -1.796875 -0.8125 -2.71875q-0.8125 -0.921875 -2.03125 -0.921875q-1.234375 0 -2.046875 0.921875q-0.796875 0.90625 -0.796875 2.765625zm9.250732 4.84375l0 -13.359375l1.640625 0l0 13.359375l-1.640625 0zm4.1448364 0l0 -13.359375l1.640625 0l0 13.359375l-1.640625 0zm10.816711 -3.109375l1.6875 0.203125q-0.40625 1.484375 -1.484375 2.3125q-1.078125 0.8125 -2.765625 0.8125q-2.125 0 -3.375 -1.296875q-1.234375 -1.3125 -1.234375 -3.671875q0 -2.453125 1.25 -3.796875q1.265625 -1.34375 3.265625 -1.34375q1.9375 0 3.15625 1.328125q1.234375 1.3125 1.234375 3.703125q0 0.15625 0 0.4375l-7.21875 0q0.09375 1.59375 0.90625 2.453125q0.8125 0.84375 2.015625 0.84375q0.90625 0 1.546875 -0.46875q0.640625 -0.484375 1.015625 -1.515625zm-5.390625 -2.65625l5.40625 0q-0.109375 -1.21875 -0.625 -1.828125q-0.78125 -0.953125 -2.03125 -0.953125q-1.125 0 -1.90625 0.765625q-0.765625 0.75 -0.84375 2.015625zm9.125671 5.765625l0 -9.671875l1.46875 0l0 1.46875q0.5625 -1.03125 1.03125 -1.359375q0.484375 -0.328125 1.0625 -0.328125q0.828125 0 1.6875 0.53125l-0.5625 1.515625q-0.609375 -0.359375 -1.203125 -0.359375q-0.546875 0 -0.96875 0.328125q-0.421875 0.328125 -0.609375 0.890625q-0.28125 0.875 -0.28125 1.921875l0 5.0625l-1.625 0z" fill-rule="nonzero"/><path fill="#cfe2f3" d="m647.7257 72.59974l75.93701 0l0 28.7874l-75.93701 0z" fill-rule="evenodd"/><path stroke="#000000" stroke-width="1.0" stroke-linejoin="round" stroke-linecap="butt" d="m647.7257 72.59974l75.93701 0l0 28.7874l-75.93701 0z" fill-rule="evenodd"/><path fill="#000000" d="m661.5222 93.91344l0 -9.671875l1.46875 0l0 1.359375q0.453125 -0.71875 1.203125 -1.140625q0.765625 -0.4375 1.71875 -0.4375q1.078125 0 1.765625 0.453125q0.6875 0.4375 0.96875 1.234375q1.15625 -1.6875 2.984375 -1.6875q1.453125 0 2.21875 0.796875q0.78125 0.796875 0.78125 2.453125l0 6.640625l-1.640625 0l0 -6.09375q0 -0.984375 -0.15625 -1.40625q-0.15625 -0.4375 -0.578125 -0.703125q-0.421875 -0.265625 -0.984375 -0.265625q-1.015625 0 -1.6875 0.6875q-0.671875 0.671875 -0.671875 2.15625l0 5.625l-1.640625 0l0 -6.28125q0 -1.09375 -0.40625 -1.640625q-0.40625 -0.546875 -1.3125 -0.546875q-0.6875 0 -1.28125 0.359375q-0.59375 0.359375 -0.859375 1.0625q-0.25 0.703125 -0.25 2.03125l0 5.015625l-1.640625 0zm14.9313965 -4.84375q0 -2.6875 1.484375 -3.96875q1.25 -1.078125 3.046875 -1.078125q2.0 0 3.265625 1.3125q1.265625 1.296875 1.265625 3.609375q0 1.859375 -0.5625 2.9375q-0.5625 1.0625 -1.640625 1.65625q-1.0625 0.59375 -2.328125 0.59375q-2.03125 0 -3.28125 -1.296875q-1.25 -1.3125 -1.25 -3.765625zm1.6875 0q0 1.859375 0.796875 2.796875q0.8125 0.921875 2.046875 0.921875q1.21875 0 2.03125 -0.921875q0.8125 -0.9375 0.8125 -2.84375q0 -1.796875 -0.8125 -2.71875q-0.8125 -0.921875 -2.03125 -0.921875q-1.234375 0 -2.046875 0.921875q-0.796875 0.90625 -0.796875 2.765625zm15.563232 4.84375l0 -1.21875q-0.90625 1.4375 -2.703125 1.4375q-1.15625 0 -2.125 -0.640625q-0.96875 -0.640625 -1.5 -1.78125q-0.53125 -1.140625 -0.53125 -2.625q0 -1.453125 0.484375 -2.625q0.484375 -1.1875 1.4375 -1.8125q0.96875 -0.625 2.171875 -0.625q0.875 0 1.546875 0.375q0.6875 0.359375 1.109375 0.953125l0 -4.796875l1.640625 0l0 13.359375l-1.53125 0zm-5.171875 -4.828125q0 1.859375 0.78125 2.78125q0.78125 0.921875 1.84375 0.921875q1.078125 0 1.828125 -0.875q0.75 -0.890625 0.75 -2.6875q0 -1.984375 -0.765625 -2.90625q-0.765625 -0.9375 -1.890625 -0.9375q-1.078125 0 -1.8125 0.890625q-0.734375 0.890625 -0.734375 2.8125zm15.906982 1.71875l1.6875 0.203125q-0.40625 1.484375 -1.484375 2.3125q-1.078125 0.8125 -2.765625 0.8125q-2.125 0 -3.375 -1.296875q-1.234375 -1.3125 -1.234375 -3.671875q0 -2.453125 1.25 -3.796875q1.265625 -1.34375 3.265625 -1.34375q1.9375 0 3.15625 1.328125q1.234375 1.3125 1.234375 3.703125q0 0.15625 0 0.4375l-7.21875 0q0.09375 1.59375 0.90625 2.453125q0.8125 0.84375 2.015625 0.84375q0.90625 0 1.546875 -0.46875q0.640625 -0.484375 1.015625 -1.515625zm-5.390625 -2.65625l5.40625 0q-0.109375 -1.21875 -0.625 -1.828125q-0.78125 -0.953125 -2.03125 -0.953125q-1.125 0 -1.90625 0.765625q-0.765625 0.75 -0.84375 2.015625zm9.094482 5.765625l0 -13.359375l1.640625 0l0 13.359375l-1.640625 0z" fill-rule="nonzero"/><path fill="#000000" fill-opacity="0.0" d="m391.95145 86.99344l27.62204 0" fill-rule="evenodd"/><path stroke="#000000" stroke-width="1.0" stroke-linejoin="round" stroke-linecap="butt" d="m391.95145 86.99344l21.62204 0" fill-rule="evenodd"/><path fill="#000000" stroke="#000000" stroke-width="1.0" stroke-linecap="butt" d="m413.5735 88.64517l4.5381165 -1.6517334l-4.5381165 -1.6517334z" fill-rule="evenodd"/><path fill="#000000" fill-opacity="0.0" d="m495.51312 86.99344l27.968506 0" fill-rule="evenodd"/><path stroke="#000000" stroke-width="1.0" stroke-linejoin="round" stroke-linecap="butt" d="m495.51312 86.99344l21.968506 0" fill-rule="evenodd"/><path fill="#000000" stroke="#000000" stroke-width="1.0" stroke-linecap="butt" d="m517.4816 88.64517l4.538086 -1.6517334l-4.538086 -1.6517334z" fill-rule="evenodd"/><path fill="#000000" fill-opacity="0.0" d="m619.76117 86.99344l27.968506 0" fill-rule="evenodd"/><path stroke="#000000" stroke-width="1.0" stroke-linejoin="round" stroke-linecap="butt" d="m619.76117 86.99344l21.968506 0" fill-rule="evenodd"/><path fill="#000000" stroke="#000000" stroke-width="1.0" stroke-linecap="butt" d="m641.7297 88.64517l4.538086 -1.6517334l-4.538086 -1.6517334z" fill-rule="evenodd"/><path fill="#cfe2f3" d="m523.47766 160.59973l96.28351 0l0 28.787415l-96.28351 0z" fill-rule="evenodd"/><path stroke="#000000" stroke-width="1.0" stroke-linejoin="round" stroke-linecap="butt" d="m523.47766 160.59973l96.28351 0l0 28.787415l-96.28351 0z" fill-rule="evenodd"/><path fill="#000000" d="m540.80164 178.36656l1.609375 0.21875q-0.265625 1.65625 -1.359375 2.609375q-1.078125 0.9375 -2.671875 0.9375q-1.984375 0 -3.1875 -1.296875q-1.203125 -1.296875 -1.203125 -3.71875q0 -1.578125 0.515625 -2.75q0.515625 -1.171875 1.578125 -1.75q1.0625 -0.59375 2.3125 -0.59375q1.578125 0 2.578125 0.796875q1.0 0.796875 1.28125 2.265625l-1.59375 0.234375q-0.234375 -0.96875 -0.8125 -1.453125q-0.578125 -0.5 -1.390625 -0.5q-1.234375 0 -2.015625 0.890625q-0.78125 0.890625 -0.78125 2.8125q0 1.953125 0.75 2.84375q0.75 0.875 1.953125 0.875q0.96875 0 1.609375 -0.59375q0.65625 -0.59375 0.828125 -1.828125zm2.40625 -1.296875q0 -2.6875 1.484375 -3.96875q1.25 -1.078125 3.046875 -1.078125q2.0 0 3.265625 1.3125q1.265625 1.296875 1.265625 3.609375q0 1.859375 -0.5625 2.9375q-0.5625 1.0625 -1.640625 1.65625q-1.0625 0.59375 -2.328125 0.59375q-2.03125 0 -3.28125 -1.296875q-1.25 -1.3125 -1.25 -3.765625zm1.6875 0q0 1.859375 0.796875 2.796875q0.8125 0.921875 2.046875 0.921875q1.21875 0 2.03125 -0.921875q0.8125 -0.9375 0.8125 -2.84375q0 -1.796875 -0.8125 -2.71875q-0.8125 -0.921875 -2.03125 -0.921875q-1.234375 0 -2.046875 0.921875q-0.796875 0.90625 -0.796875 2.765625zm9.297607 4.84375l0 -9.671875l1.46875 0l0 1.375q1.0625 -1.59375 3.078125 -1.59375q0.875 0 1.609375 0.3125q0.734375 0.3125 1.09375 0.828125q0.375 0.5 0.515625 1.203125q0.09375 0.453125 0.09375 1.59375l0 5.953125l-1.640625 0l0 -5.890625q0 -1.0 -0.203125 -1.484375q-0.1875 -0.5 -0.671875 -0.796875q-0.484375 -0.296875 -1.140625 -0.296875q-1.046875 0 -1.8125 0.671875q-0.75 0.65625 -0.75 2.515625l0 5.28125l-1.640625 0zm13.953857 -1.46875l0.234375 1.453125q-0.6875 0.140625 -1.234375 0.140625q-0.890625 0 -1.390625 -0.28125q-0.484375 -0.28125 -0.6875 -0.734375q-0.203125 -0.46875 -0.203125 -1.9375l0 -5.578125l-1.203125 0l0 -1.265625l1.203125 0l0 -2.390625l1.625 -0.984375l0 3.375l1.65625 0l0 1.265625l-1.65625 0l0 5.671875q0 0.6875 0.078125 0.890625q0.09375 0.203125 0.28125 0.328125q0.203125 0.109375 0.578125 0.109375q0.265625 0 0.71875 -0.0625zm1.5895386 1.46875l0 -9.671875l1.46875 0l0 1.46875q0.5625 -1.03125 1.03125 -1.359375q0.484375 -0.328125 1.0625 -0.328125q0.828125 0 1.6875 0.53125l-0.5625 1.515625q-0.609375 -0.359375 -1.203125 -0.359375q-0.546875 0 -0.96875 0.328125q-0.421875 0.328125 -0.609375 0.890625q-0.28125 0.875 -0.28125 1.921875l0 5.0625l-1.625 0zm5.6188965 -4.84375q0 -2.6875 1.484375 -3.96875q1.25 -1.078125 3.046875 -1.078125q2.0 0 3.265625 1.3125q1.265625 1.296875 1.265625 3.609375q0 1.859375 -0.5625 2.9375q-0.5625 1.0625 -1.640625 1.65625q-1.0625 0.59375 -2.328125 0.59375q-2.03125 0 -3.28125 -1.296875q-1.25 -1.3125 -1.25 -3.765625zm1.6875 0q0 1.859375 0.796875 2.796875q0.8125 0.921875 2.046875 0.921875q1.21875 0 2.03125 -0.921875q0.8125 -0.9375 0.8125 -2.84375q0 -1.796875 -0.8125 -2.71875q-0.8125 -0.921875 -2.03125 -0.921875q-1.234375 0 -2.046875 0.921875q-0.796875 0.90625 -0.796875 2.765625zm9.250732 4.84375l0 -13.359375l1.640625 0l0 13.359375l-1.640625 0zm4.1448364 0l0 -13.359375l1.640625 0l0 13.359375l-1.640625 0zm10.816711 -3.109375l1.6875 0.203125q-0.40625 1.484375 -1.484375 2.3125q-1.078125 0.8125 -2.765625 0.8125q-2.125 0 -3.375 -1.296875q-1.234375 -1.3125 -1.234375 -3.671875q0 -2.453125 1.25 -3.796875q1.265625 -1.34375 3.265625 -1.34375q1.9375 0 3.15625 1.328125q1.234375 1.3125 1.234375 3.703125q0 0.15625 0 0.4375l-7.21875 0q0.09375 1.59375 0.90625 2.453125q0.8125 0.84375 2.015625 0.84375q0.90625 0 1.546875 -0.46875q0.640625 -0.484375 1.015625 -1.515625zm-5.390625 -2.65625l5.40625 0q-0.109375 -1.21875 -0.625 -1.828125q-0.78125 -0.953125 -2.03125 -0.953125q-1.125 0 -1.90625 0.765625q-0.765625 0.75 -0.84375 2.015625zm9.125671 5.765625l0 -9.671875l1.46875 0l0 1.46875q0.5625 -1.03125 1.03125 -1.359375q0.484375 -0.328125 1.0625 -0.328125q0.828125 0 1.6875 0.53125l-0.5625 1.515625q-0.609375 -0.359375 -1.203125 -0.359375q-0.546875 0 -0.96875 0.328125q-0.421875 0.328125 -0.609375 0.890625q-0.28125 0.875 -0.28125 1.921875l0 5.0625l-1.625 0z" fill-rule="nonzero"/><path fill="#cfe2f3" d="m647.7257 160.59973l75.93701 0l0 28.787415l-75.93701 0z" fill-rule="evenodd"/><path stroke="#000000" stroke-width="1.0" stroke-linejoin="round" stroke-linecap="butt" d="m647.7257 160.59973l75.93701 0l0 28.787415l-75.93701 0z" fill-rule="evenodd"/><path fill="#000000" d="m661.5222 181.91344l0 -9.671875l1.46875 0l0 1.359375q0.453125 -0.71875 1.203125 -1.140625q0.765625 -0.4375 1.71875 -0.4375q1.078125 0 1.765625 0.453125q0.6875 0.4375 0.96875 1.234375q1.15625 -1.6875 2.984375 -1.6875q1.453125 0 2.21875 0.796875q0.78125 0.796875 0.78125 2.453125l0 6.640625l-1.640625 0l0 -6.09375q0 -0.984375 -0.15625 -1.40625q-0.15625 -0.4375 -0.578125 -0.703125q-0.421875 -0.265625 -0.984375 -0.265625q-1.015625 0 -1.6875 0.6875q-0.671875 0.671875 -0.671875 2.15625l0 5.625l-1.640625 0l0 -6.28125q0 -1.09375 -0.40625 -1.640625q-0.40625 -0.546875 -1.3125 -0.546875q-0.6875 0 -1.28125 0.359375q-0.59375 0.359375 -0.859375 1.0625q-0.25 0.703125 -0.25 2.03125l0 5.015625l-1.640625 0zm14.9313965 -4.84375q0 -2.6875 1.484375 -3.96875q1.25 -1.078125 3.046875 -1.078125q2.0 0 3.265625 1.3125q1.265625 1.296875 1.265625 3.609375q0 1.859375 -0.5625 2.9375q-0.5625 1.0625 -1.640625 1.65625q-1.0625 0.59375 -2.328125 0.59375q-2.03125 0 -3.28125 -1.296875q-1.25 -1.3125 -1.25 -3.765625zm1.6875 0q0 1.859375 0.796875 2.796875q0.8125 0.921875 2.046875 0.921875q1.21875 0 2.03125 -0.921875q0.8125 -0.9375 0.8125 -2.84375q0 -1.796875 -0.8125 -2.71875q-0.8125 -0.921875 -2.03125 -0.921875q-1.234375 0 -2.046875 0.921875q-0.796875 0.90625 -0.796875 2.765625zm15.563232 4.84375l0 -1.21875q-0.90625 1.4375 -2.703125 1.4375q-1.15625 0 -2.125 -0.640625q-0.96875 -0.640625 -1.5 -1.78125q-0.53125 -1.140625 -0.53125 -2.625q0 -1.453125 0.484375 -2.625q0.484375 -1.1875 1.4375 -1.8125q0.96875 -0.625 2.171875 -0.625q0.875 0 1.546875 0.375q0.6875 0.359375 1.109375 0.953125l0 -4.796875l1.640625 0l0 13.359375l-1.53125 0zm-5.171875 -4.828125q0 1.859375 0.78125 2.78125q0.78125 0.921875 1.84375 0.921875q1.078125 0 1.828125 -0.875q0.75 -0.890625 0.75 -2.6875q0 -1.984375 -0.765625 -2.90625q-0.765625 -0.9375 -1.890625 -0.9375q-1.078125 0 -1.8125 0.890625q-0.734375 0.890625 -0.734375 2.8125zm15.906982 1.71875l1.6875 0.203125q-0.40625 1.484375 -1.484375 2.3125q-1.078125 0.8125 -2.765625 0.8125q-2.125 0 -3.375 -1.296875q-1.234375 -1.3125 -1.234375 -3.671875q0 -2.453125 1.25 -3.796875q1.265625 -1.34375 3.265625 -1.34375q1.9375 0 3.15625 1.328125q1.234375 1.3125 1.234375 3.703125q0 0.15625 0 0.4375l-7.21875 0q0.09375 1.59375 0.90625 2.453125q0.8125 0.84375 2.015625 0.84375q0.90625 0 1.546875 -0.46875q0.640625 -0.484375 1.015625 -1.515625zm-5.390625 -2.65625l5.40625 0q-0.109375 -1.21875 -0.625 -1.828125q-0.78125 -0.953125 -2.03125 -0.953125q-1.125 0 -1.90625 0.765625q-0.765625 0.75 -0.84375 2.015625zm9.094482 5.765625l0 -13.359375l1.640625 0l0 13.359375l-1.640625 0z" fill-rule="nonzero"/><path fill="#000000" fill-opacity="0.0" d="m276.1247 174.99344l247.33856 0" fill-rule="evenodd"/><path stroke="#000000" stroke-width="1.0" stroke-linejoin="round" stroke-linecap="butt" d="m282.1247 174.99344l241.33856 0" fill-rule="evenodd"/><path fill="#000000" stroke="#000000" stroke-width="1.0" stroke-linecap="butt" d="m282.1247 173.3417l-4.538086 1.6517334l4.538086 1.6517334z" fill-rule="evenodd"/><path fill="#000000" fill-opacity="0.0" d="m619.76117 174.99344l27.968506 0" fill-rule="evenodd"/><path stroke="#000000" stroke-width="1.0" stroke-linejoin="round" stroke-linecap="butt" d="m625.76117 174.99344l21.968506 0" fill-rule="evenodd"/><path fill="#000000" stroke="#000000" stroke-width="1.0" stroke-linecap="butt" d="m625.76117 173.3417l-4.538086 1.6517334l4.538086 1.6517334z" fill-rule="evenodd"/><path fill="#000000" fill-opacity="0.0" d="m723.6627 86.99344l27.968506 -0.15747833" fill-rule="evenodd"/><path stroke="#000000" stroke-width="1.0" stroke-linejoin="round" stroke-linecap="butt" d="m723.6627 86.99344l21.968567 -0.12369537" fill-rule="evenodd"/><path fill="#000000" stroke="#000000" stroke-width="1.0" stroke-linecap="butt" d="m745.6406 88.52145l4.5287476 -1.6772537l-4.5473633 -1.6261597z" fill-rule="evenodd"/></g></svg>