<svg version="1.1" viewBox="0.0 0.0 936.6666666666666 712.2230971128608" fill="none" stroke="none" stroke-linecap="square" stroke-miterlimit="10" xmlns:xlink="http://www.w3.org/1999/xlink" xmlns="http://www.w3.org/2000/svg"><clipPath id="p.0"><path d="m0 0l936.6667 0l0 712.2231l-936.6667 0l0 -712.2231z" clip-rule="nonzero"/></clipPath><g clip-path="url(#p.0)"><path fill="#000000" fill-opacity="0.0" d="m0 0l936.6667 0l0 712.2231l-936.6667 0z" fill-rule="evenodd"/><path fill="#fff2cc" d="m221.33333 170.07822l0 0c0 -58.09398 47.094467 -105.18845 105.18846 -105.18845l420.7412 0l0 0c27.897705 0 54.65277 11.082321 74.379456 30.808983c19.726685 19.726662 30.80896 46.481766 30.80896 74.37947l0 428.0798c0 58.093933 -47.09442 105.188416 -105.188416 105.188416l-420.7412 0c-58.093994 0 -105.18846 -47.094482 -105.18846 -105.188416z" fill-rule="evenodd"/><path stroke="#000000" stroke-width="1.0" stroke-linejoin="round" stroke-linecap="butt" d="m221.33333 170.07822l0 0c0 -58.09398 47.094467 -105.18845 105.18846 -105.18845l420.7412 0l0 0c27.897705 0 54.65277 11.082321 74.379456 30.808983c19.726685 19.726662 30.80896 46.481766 30.80896 74.37947l0 428.0798c0 58.093933 -47.09442 105.188416 -105.188416 105.188416l-420.7412 0c-58.093994 0 -105.18846 -47.094482 -105.18846 -105.188416z" fill-rule="evenodd"/><path fill="#000000" d="m440.9861 127.38716l3.03125 0.765625q-0.953125 3.734375 -3.4375 5.703125q-2.46875 1.953125 -6.046875 1.953125q-3.703125 0 -6.03125 -1.5q-2.3125 -1.515625 -3.53125 -4.375q-1.203125 -2.859375 -1.203125 -6.140625q0 -3.578125 1.359375 -6.234375q1.375 -2.671875 3.890625 -4.046875q2.53125 -1.390625 5.5625 -1.390625q3.4375 0 5.78125 1.75q2.34375 1.75 3.265625 4.921875l-2.984375 0.703125q-0.796875 -2.5 -2.3125 -3.640625q-1.515625 -1.140625 -3.8125 -1.140625q-2.640625 0 -4.421875 1.265625q-1.765625 1.265625 -2.484375 3.40625q-0.71875 2.125 -0.71875 4.390625q0 2.921875 0.84375 5.109375q0.859375 2.171875 2.65625 3.25q1.796875 1.078125 3.890625 1.078125q2.546875 0 4.3125 -1.46875q1.765625 -1.46875 2.390625 -4.359375zm5.359375 -0.265625q0 -4.609375 2.5625 -6.828125q2.140625 -1.84375 5.21875 -1.84375q3.421875 0 5.59375 2.25q2.171875 2.234375 2.171875 6.1875q0 3.203125 -0.96875 5.046875q-0.953125 1.828125 -2.796875 2.84375q-1.828125 1.015625 -4.0 1.015625q-3.484375 0 -5.640625 -2.234375q-2.140625 -2.234375 -2.140625 -6.4375zm2.890625 0q0 3.1875 1.390625 4.78125q1.390625 1.578125 3.5 1.578125q2.09375 0 3.484375 -1.59375q1.390625 -1.59375 1.390625 -4.859375q0 -3.078125 -1.40625 -4.65625q-1.390625 -1.59375 -3.46875 -1.59375q-2.109375 0 -3.5 1.578125q-1.390625 1.578125 -1.390625 4.765625zm15.953125 8.296875l0 -16.59375l2.53125 0l0 2.359375q1.828125 -2.734375 5.28125 -2.734375q1.5 0 2.75 0.546875q1.265625 0.53125 1.890625 1.40625q0.625 0.875 0.875 2.078125q0.15625 0.78125 0.15625 2.734375l0 10.203125l-2.8125 0l0 -10.09375q0 -1.71875 -0.328125 -2.5625q-0.328125 -0.859375 -1.171875 -1.359375q-0.828125 -0.515625 -1.953125 -0.515625q-1.796875 0 -3.109375 1.140625q-1.296875 1.140625 -1.296875 4.328125l0 9.0625l-2.8125 0zm23.9375 -2.515625l0.40625 2.484375q-1.1875 0.25 -2.125 0.25q-1.53125 0 -2.375 -0.484375q-0.84375 -0.484375 -1.1875 -1.265625q-0.34375 -0.796875 -0.34375 -3.328125l0 -9.546875l-2.0625 0l0 -2.1875l2.0625 0l0 -4.109375l2.796875 -1.6875l0 5.796875l2.828125 0l0 2.1875l-2.828125 0l0 9.703125q0 1.203125 0.140625 1.546875q0.15625 0.34375 0.484375 0.546875q0.34375 0.203125 0.96875 0.203125q0.46875 0 1.234375 -0.109375zm14.109375 -2.828125l2.90625 0.359375q-0.6875 2.546875 -2.546875 3.953125q-1.859375 1.40625 -4.75 1.40625q-3.640625 0 -5.78125 -2.234375q-2.125 -2.25 -2.125 -6.296875q0 -4.1875 2.15625 -6.5q2.15625 -2.3125 5.59375 -2.3125q3.328125 0 5.4375 2.265625q2.109375 2.265625 2.109375 6.375q0 0.25 -0.015625 0.75l-12.375 0q0.15625 2.734375 1.546875 4.1875q1.390625 1.453125 3.46875 1.453125q1.546875 0 2.640625 -0.8125q1.09375 -0.8125 1.734375 -2.59375zm-9.234375 -4.546875l9.265625 0q-0.1875 -2.09375 -1.0625 -3.140625q-1.34375 -1.625 -3.484375 -1.625q-1.9375 0 -3.265625 1.296875q-1.3125 1.296875 -1.453125 3.46875zm13.796875 9.890625l6.0625305 -8.625l-5.6094055 -7.96875l3.515625 0l2.5469055 3.890625q0.71875 1.109375 1.15625 1.859375q0.6875 -1.03125 1.265625 -1.828125l2.796875 -3.921875l3.359375 0l-5.734375 7.8125l6.171875 8.78125l-3.453125 0l-3.40625 -5.15625l-0.90625 -1.390625l-4.3594055 6.546875l-3.40625 0zm24.015656 -2.515625l0.40625 2.484375q-1.1875 0.25 -2.125 0.25q-1.53125 0 -2.375 -0.484375q-0.84375 -0.484375 -1.1875 -1.265625q-0.34375 -0.796875 -0.34375 -3.328125l0 -9.546875l-2.0625 0l0 -2.1875l2.0625 0l0 -4.109375l2.796875 -1.6875l0 5.796875l2.828125 0l0 2.1875l-2.828125 0l0 9.703125q0 1.203125 0.140625 1.546875q0.15625 0.34375 0.484375 0.546875q0.34375 0.203125 0.96875 0.203125q0.46875 0 1.234375 -0.109375zm3.109375 2.515625l0 -22.90625l8.640625 0q2.28125 0 3.484375 0.21875q1.6875 0.28125 2.828125 1.078125q1.140625 0.78125 1.828125 2.203125q0.703125 1.421875 0.703125 3.125q0 2.921875 -1.859375 4.953125q-1.859375 2.015625 -6.71875 2.015625l-5.875 0l0 9.3125l-3.03125 0zm3.03125 -12.015625l5.921875 0q2.9375 0 4.171875 -1.09375q1.234375 -1.09375 1.234375 -3.078125q0 -1.4375 -0.734375 -2.453125q-0.71875 -1.03125 -1.90625 -1.359375q-0.765625 -0.203125 -2.828125 -0.203125l-5.859375 0l0 8.1875zm17.921875 12.015625l0 -16.59375l2.53125 0l0 2.515625q0.96875 -1.765625 1.78125 -2.328125q0.828125 -0.5625 1.8125 -0.5625q1.421875 0 2.890625 0.90625l-0.96875 2.609375q-1.03125 -0.609375 -2.0625 -0.609375q-0.921875 0 -1.65625 0.5625q-0.734375 0.546875 -1.046875 1.53125q-0.46875 1.5 -0.46875 3.28125l0 8.6875l-2.8125 0zm9.640625 -8.296875q0 -4.609375 2.5625 -6.828125q2.140625 -1.84375 5.21875 -1.84375q3.421875 0 5.59375 2.25q2.171875 2.234375 2.171875 6.1875q0 3.203125 -0.96875 5.046875q-0.953125 1.828125 -2.796875 2.84375q-1.828125 1.015625 -4.0 1.015625q-3.484375 0 -5.640625 -2.234375q-2.140625 -2.234375 -2.140625 -6.4375zm2.890625 0q0 3.1875 1.390625 4.78125q1.390625 1.578125 3.5 1.578125q2.09375 0 3.484375 -1.59375q1.390625 -1.59375 1.390625 -4.859375q0 -3.078125 -1.40625 -4.65625q-1.390625 -1.59375 -3.46875 -1.59375q-2.109375 0 -3.5 1.578125q-1.390625 1.578125 -1.390625 4.765625zm20.5625 8.296875l-6.3125 -16.59375l2.96875 0l3.5625 9.9375q0.578125 1.609375 1.0625 3.34375q0.375 -1.3125 1.046875 -3.15625l3.6875 -10.125l2.890625 0l-6.28125 16.59375l-2.625 0zm11.40625 -19.671875l0 -3.234375l2.8125 0l0 3.234375l-2.8125 0zm0 19.671875l0 -16.59375l2.8125 0l0 16.59375l-2.8125 0zm17.859375 0l0 -2.09375q-1.578125 2.46875 -4.640625 2.46875q-1.984375 0 -3.65625 -1.09375q-1.65625 -1.09375 -2.578125 -3.046875q-0.90625 -1.96875 -0.90625 -4.515625q0 -2.484375 0.828125 -4.5q0.828125 -2.03125 2.484375 -3.109375q1.65625 -1.078125 3.703125 -1.078125q1.5 0 2.671875 0.640625q1.171875 0.625 1.90625 1.640625l0 -8.21875l2.796875 0l0 22.90625l-2.609375 0zm-8.890625 -8.28125q0 3.1875 1.34375 4.765625q1.34375 1.578125 3.171875 1.578125q1.84375 0 3.125 -1.5q1.296875 -1.515625 1.296875 -4.609375q0 -3.40625 -1.3125 -5.0q-1.3125 -1.59375 -3.234375 -1.59375q-1.875 0 -3.140625 1.53125q-1.25 1.53125 -1.25 4.828125zm27.28125 2.9375l2.90625 0.359375q-0.6875 2.546875 -2.546875 3.953125q-1.859375 1.40625 -4.75 1.40625q-3.640625 0 -5.78125 -2.234375q-2.125 -2.25 -2.125 -6.296875q0 -4.1875 2.15625 -6.5q2.15625 -2.3125 5.59375 -2.3125q3.328125 0 5.4375 2.265625q2.109375 2.265625 2.109375 6.375q0 0.25 -0.015625 0.75l-12.375 0q0.15625 2.734375 1.546875 4.1875q1.390625 1.453125 3.46875 1.453125q1.546875 0 2.640625 -0.8125q1.09375 -0.8125 1.734375 -2.59375zm-9.234375 -4.546875l9.265625 0q-0.1875 -2.09375 -1.0625 -3.140625q-1.34375 -1.625 -3.484375 -1.625q-1.9375 0 -3.265625 1.296875q-1.3125 1.296875 -1.453125 3.46875zm15.640625 9.890625l0 -16.59375l2.53125 0l0 2.515625q0.96875 -1.765625 1.78125 -2.328125q0.828125 -0.5625 1.8125 -0.5625q1.421875 0 2.890625 0.90625l-0.96875 2.609375q-1.03125 -0.609375 -2.0625 -0.609375q-0.921875 0 -1.65625 0.5625q-0.734375 0.546875 -1.046875 1.53125q-0.46875 1.5 -0.46875 3.28125l0 8.6875l-2.8125 0z" fill-rule="nonzero"/><path fill="#cfe2f3" d="m427.91864 182.77722l0 0c0 -8.897614 7.2129517 -16.11055 16.110565 -16.11055l156.09384 0c4.272766 0 8.370544 1.6973572 11.391846 4.7186737c3.0213623 3.0213165 4.718689 7.119095 4.718689 11.391876l0 64.44031c0 8.897614 -7.2129517 16.110565 -16.110535 16.110565l-156.09384 0c-8.897614 0 -16.110565 -7.2129517 -16.110565 -16.110565z" fill-rule="evenodd"/><path stroke="#000000" stroke-width="1.0" stroke-linejoin="round" stroke-linecap="butt" d="m427.91864 182.77722l0 0c0 -8.897614 7.2129517 -16.11055 16.110565 -16.11055l156.09384 0c4.272766 0 8.370544 1.6973572 11.391846 4.7186737c3.0213623 3.0213165 4.718689 7.119095 4.718689 11.391876l0 64.44031c0 8.897614 -7.2129517 16.110565 -16.110535 16.110565l-156.09384 0c-8.897614 0 -16.110565 -7.2129517 -16.110565 -16.110565z" fill-rule="evenodd"/><path fill="#000000" d="m493.5605 226.71738l8.796875 -22.90625l3.265625 0l9.375 22.90625l-3.453125 0l-2.671875 -6.9375l-9.578125 0l-2.515625 6.9375l-3.21875 0zm6.609375 -9.40625l7.765625 0l-2.390625 -6.34375q-1.09375 -2.890625 -1.625 -4.75q-0.4375 2.203125 -1.234375 4.375l-2.515625 6.71875zm16.890625 15.765625l0 -22.953125l2.5625 0l0 2.15625q0.90625 -1.265625 2.046875 -1.890625q1.140625 -0.640625 2.765625 -0.640625q2.125 0 3.75 1.09375q1.625 1.09375 2.453125 3.09375q0.828125 1.984375 0.828125 4.359375q0 2.546875 -0.921875 4.59375q-0.90625 2.03125 -2.65625 3.125q-1.734375 1.078125 -3.65625 1.078125q-1.40625 0 -2.53125 -0.59375q-1.109375 -0.59375 -1.828125 -1.5l0 8.078125l-2.8125 0zm2.546875 -14.5625q0 3.203125 1.296875 4.734375q1.296875 1.53125 3.140625 1.53125q1.875 0 3.203125 -1.578125q1.34375 -1.59375 1.34375 -4.921875q0 -3.171875 -1.3125 -4.75q-1.296875 -1.578125 -3.109375 -1.578125q-1.796875 0 -3.1875 1.6875q-1.375 1.671875 -1.375 4.875zm15.25 14.5625l0 -22.953125l2.5625 0l0 2.15625q0.90625 -1.265625 2.046875 -1.890625q1.140625 -0.640625 2.765625 -0.640625q2.125 0 3.75 1.09375q1.625 1.09375 2.453125 3.09375q0.828125 1.984375 0.828125 4.359375q0 2.546875 -0.921875 4.59375q-0.90625 2.03125 -2.65625 3.125q-1.734375 1.078125 -3.65625 1.078125q-1.40625 0 -2.53125 -0.59375q-1.109375 -0.59375 -1.828125 -1.5l0 8.078125l-2.8125 0zm2.546875 -14.5625q0 3.203125 1.296875 4.734375q1.296875 1.53125 3.140625 1.53125q1.875 0 3.203125 -1.578125q1.34375 -1.59375 1.34375 -4.921875q0 -3.171875 -1.3125 -4.75q-1.296875 -1.578125 -3.109375 -1.578125q-1.796875 0 -3.1875 1.6875q-1.375 1.671875 -1.375 4.875z" fill-rule="nonzero"/><path fill="#cfe2f3" d="m287.60367 323.8927l0 0c0 -8.897614 7.2129517 -16.110535 16.110565 -16.110535l156.09384 0c4.2727966 0 8.370575 1.6973572 11.391876 4.7186584c3.0213318 3.0213318 4.718689 7.11911 4.718689 11.391876l0 64.44031c0 8.897614 -7.2129517 16.110565 -16.110565 16.110565l-156.09384 0c-8.897614 0 -16.110565 -7.2129517 -16.110565 -16.110565z" fill-rule="evenodd"/><path stroke="#000000" stroke-width="1.0" stroke-linejoin="round" stroke-linecap="butt" d="m287.60367 323.8927l0 0c0 -8.897614 7.2129517 -16.110535 16.110565 -16.110535l156.09384 0c4.2727966 0 8.370575 1.6973572 11.391876 4.7186584c3.0213318 3.0213318 4.718689 7.11911 4.718689 11.391876l0 64.44031c0 8.897614 -7.2129517 16.110565 -16.110565 16.110565l-156.09384 0c-8.897614 0 -16.110565 -7.2129517 -16.110565 -16.110565z" fill-rule="evenodd"/><path fill="#000000" d="m331.84708 367.83286l0 -22.90625l3.03125 0l0 9.40625l11.90625 0l0 -9.40625l3.03125 0l0 22.90625l-3.03125 0l0 -10.796875l-11.90625 0l0 10.796875l-3.03125 0zm34.015625 -5.34375l2.90625 0.359375q-0.6875 2.546875 -2.546875 3.953125q-1.859375 1.40625 -4.75 1.40625q-3.640625 0 -5.78125 -2.234375q-2.125 -2.25 -2.125 -6.296875q0 -4.1875 2.15625 -6.5q2.15625 -2.3125 5.59375 -2.3125q3.328125 0 5.4375 2.265625q2.109375 2.265625 2.109375 6.375q0 0.25 -0.015625 0.75l-12.375 0q0.15625 2.734375 1.546875 4.1875q1.390625 1.453125 3.46875 1.453125q1.546875 0 2.640625 -0.8125q1.09375 -0.8125 1.734375 -2.59375zm-9.234375 -4.546875l9.265625 0q-0.1875 -2.09375 -1.0625 -3.140625q-1.34375 -1.625 -3.484375 -1.625q-1.9375 0 -3.265625 1.296875q-1.3125 1.296875 -1.453125 3.46875zm26.5 7.84375q-1.5625 1.328125 -3.015625 1.875q-1.4375 0.546875 -3.09375 0.546875q-2.734375 0 -4.203125 -1.328125q-1.46875 -1.34375 -1.46875 -3.421875q0 -1.21875 0.546875 -2.21875q0.5625 -1.015625 1.453125 -1.625q0.90625 -0.609375 2.03125 -0.921875q0.828125 -0.21875 2.5 -0.421875q3.40625 -0.40625 5.015625 -0.96875q0.015625 -0.578125 0.015625 -0.734375q0 -1.71875 -0.796875 -2.421875q-1.078125 -0.953125 -3.203125 -0.953125q-1.984375 0 -2.9375 0.703125q-0.9375 0.6875 -1.390625 2.453125l-2.75 -0.375q0.375 -1.765625 1.234375 -2.84375q0.859375 -1.09375 2.484375 -1.671875q1.625 -0.59375 3.765625 -0.59375q2.125 0 3.453125 0.5q1.328125 0.5 1.953125 1.265625q0.625 0.75 0.875 1.90625q0.140625 0.71875 0.140625 2.59375l0 3.75q0 3.921875 0.171875 4.96875q0.1875 1.03125 0.71875 1.984375l-2.9375 0q-0.4375 -0.875 -0.5625 -2.046875zm-0.234375 -6.28125q-1.53125 0.625 -4.59375 1.0625q-1.734375 0.25 -2.453125 0.5625q-0.71875 0.3125 -1.109375 0.921875q-0.390625 0.59375 -0.390625 1.328125q0 1.125 0.84375 1.875q0.859375 0.75 2.5 0.75q1.625 0 2.890625 -0.703125q1.265625 -0.71875 1.859375 -1.953125q0.453125 -0.953125 0.453125 -2.8125l0 -1.03125zm17.96875 8.328125l0 -2.09375q-1.578125 2.46875 -4.640625 2.46875q-1.984375 0 -3.65625 -1.09375q-1.65625 -1.09375 -2.578125 -3.046875q-0.90625 -1.96875 -0.90625 -4.515625q0 -2.484375 0.828125 -4.5q0.828125 -2.03125 2.484375 -3.109375q1.65625 -1.078125 3.703125 -1.078125q1.5 0 2.671875 0.640625q1.171875 0.625 1.90625 1.640625l0 -8.21875l2.796875 0l0 22.90625l-2.609375 0zm-8.890625 -8.28125q0 3.1875 1.34375 4.765625q1.34375 1.578125 3.171875 1.578125q1.84375 0 3.125 -1.5q1.296875 -1.515625 1.296875 -4.609375q0 -3.40625 -1.3125 -5.0q-1.3125 -1.59375 -3.234375 -1.59375q-1.875 0 -3.140625 1.53125q-1.25 1.53125 -1.25 4.828125zm27.28125 2.9375l2.90625 0.359375q-0.6875 2.546875 -2.546875 3.953125q-1.859375 1.40625 -4.75 1.40625q-3.640625 0 -5.78125 -2.234375q-2.125 -2.25 -2.125 -6.296875q0 -4.1875 2.15625 -6.5q2.15625 -2.3125 5.59375 -2.3125q3.328125 0 5.4375 2.265625q2.109375 2.265625 2.109375 6.375q0 0.25 -0.015625 0.75l-12.375 0q0.15625 2.734375 1.546875 4.1875q1.390625 1.453125 3.46875 1.453125q1.546875 0 2.640625 -0.8125q1.09375 -0.8125 1.734375 -2.59375zm-9.234375 -4.546875l9.265625 0q-0.1875 -2.09375 -1.0625 -3.140625q-1.34375 -1.625 -3.484375 -1.625q-1.9375 0 -3.265625 1.296875q-1.3125 1.296875 -1.453125 3.46875zm15.640625 9.890625l0 -16.59375l2.53125 0l0 2.515625q0.96875 -1.765625 1.78125 -2.328125q0.828125 -0.5625 1.8125 -0.5625q1.421875 0 2.890625 0.90625l-0.96875 2.609375q-1.03125 -0.609375 -2.0625 -0.609375q-0.921875 0 -1.65625 0.5625q-0.734375 0.546875 -1.046875 1.53125q-0.46875 1.5 -0.46875 3.28125l0 8.6875l-2.8125 0z" fill-rule="nonzero"/><path fill="#cfe2f3" d="m537.7769 323.8927l0 0c0 -8.897614 7.2129517 -16.110535 16.110535 -16.110535l211.74738 0c4.272827 0 8.370605 1.6973572 11.391907 4.7186584c3.0213013 3.0213318 4.718689 7.11911 4.718689 11.391876l0 64.44031c0 8.897614 -7.2129517 16.110565 -16.110596 16.110565l-211.74738 0l0 0c-8.897583 0 -16.110535 -7.2129517 -16.110535 -16.110565z" fill-rule="evenodd"/><path stroke="#000000" stroke-width="1.0" stroke-linejoin="round" stroke-linecap="butt" d="m537.7769 323.8927l0 0c0 -8.897614 7.2129517 -16.110535 16.110535 -16.110535l211.74738 0c4.272827 0 8.370605 1.6973572 11.391907 4.7186584c3.0213013 3.0213318 4.718689 7.11911 4.718689 11.391876l0 64.44031c0 8.897614 -7.2129517 16.110565 -16.110596 16.110565l-211.74738 0l0 0c-8.897583 0 -16.110535 -7.2129517 -16.110535 -16.110565z" fill-rule="evenodd"/><path fill="#000000" d="m605.31586 367.83286l0 -22.90625l8.640625 0q2.28125 0 3.484375 0.21875q1.6875 0.28125 2.828125 1.078125q1.140625 0.78125 1.828125 2.203125q0.703125 1.421875 0.703125 3.125q0 2.921875 -1.859375 4.953125q-1.859375 2.015625 -6.71875 2.015625l-5.875 0l0 9.3125l-3.03125 0zm3.03125 -12.015625l5.921875 0q2.9375 0 4.171875 -1.09375q1.234375 -1.09375 1.234375 -3.078125q0 -1.4375 -0.734375 -2.453125q-0.71875 -1.03125 -1.90625 -1.359375q-0.765625 -0.203125 -2.828125 -0.203125l-5.859375 0l0 8.1875zm16.90625 3.71875q0 -4.609375 2.5625 -6.828125q2.140625 -1.84375 5.21875 -1.84375q3.421875 0 5.59375 2.25q2.171875 2.234375 2.171875 6.1875q0 3.203125 -0.96875 5.046875q-0.953125 1.828125 -2.796875 2.84375q-1.828125 1.015625 -4.0 1.015625q-3.484375 0 -5.640625 -2.234375q-2.140625 -2.234375 -2.140625 -6.4375zm2.890625 0q0 3.1875 1.390625 4.78125q1.390625 1.578125 3.5 1.578125q2.09375 0 3.484375 -1.59375q1.390625 -1.59375 1.390625 -4.859375q0 -3.078125 -1.40625 -4.65625q-1.390625 -1.59375 -3.46875 -1.59375q-2.109375 0 -3.5 1.578125q-1.390625 1.578125 -1.390625 4.765625zm14.828125 3.34375l2.78125 -0.4375q0.234375 1.671875 1.296875 2.5625q1.078125 0.890625 3.0 0.890625q1.9375 0 2.875 -0.78125q0.9375 -0.796875 0.9375 -1.859375q0 -0.953125 -0.828125 -1.5q-0.578125 -0.375 -2.875 -0.953125q-3.09375 -0.78125 -4.296875 -1.34375q-1.1875 -0.578125 -1.8125 -1.578125q-0.609375 -1.015625 -0.609375 -2.234375q0 -1.109375 0.5 -2.046875q0.515625 -0.953125 1.390625 -1.578125q0.65625 -0.484375 1.78125 -0.8125q1.140625 -0.34375 2.4375 -0.34375q1.953125 0 3.421875 0.5625q1.484375 0.5625 2.1875 1.53125q0.703125 0.953125 0.96875 2.5625l-2.75 0.375q-0.1875 -1.28125 -1.09375 -2.0q-0.890625 -0.71875 -2.53125 -0.71875q-1.9375 0 -2.765625 0.640625q-0.828125 0.640625 -0.828125 1.5q0 0.546875 0.34375 0.984375q0.34375 0.453125 1.078125 0.75q0.421875 0.15625 2.484375 0.71875q2.984375 0.796875 4.15625 1.3125q1.1875 0.5 1.859375 1.46875q0.671875 0.96875 0.671875 2.40625q0 1.40625 -0.828125 2.65625q-0.8125 1.234375 -2.359375 1.921875q-1.546875 0.671875 -3.5 0.671875q-3.234375 0 -4.9375 -1.34375q-1.6875 -1.34375 -2.15625 -3.984375zm23.265625 2.4375l0.40625 2.484375q-1.1875 0.25 -2.125 0.25q-1.53125 0 -2.375 -0.484375q-0.84375 -0.484375 -1.1875 -1.265625q-0.34375 -0.796875 -0.34375 -3.328125l0 -9.546875l-2.0625 0l0 -2.1875l2.0625 0l0 -4.109375l2.796875 -1.6875l0 5.796875l2.828125 0l0 2.1875l-2.828125 0l0 9.703125q0 1.203125 0.140625 1.546875q0.15625 0.34375 0.484375 0.546875q0.34375 0.203125 0.96875 0.203125q0.46875 0 1.234375 -0.109375zm2.984375 2.515625l0 -22.90625l3.03125 0l0 20.203125l11.28125 0l0 2.703125l-14.3125 0zm17.578125 -19.671875l0 -3.234375l2.8125 0l0 3.234375l-2.8125 0zm0 19.671875l0 -16.59375l2.8125 0l0 16.59375l-2.8125 0zm5.96875 -4.953125l2.78125 -0.4375q0.234375 1.671875 1.296875 2.5625q1.078125 0.890625 3.0 0.890625q1.9375 0 2.875 -0.78125q0.9375 -0.796875 0.9375 -1.859375q0 -0.953125 -0.828125 -1.5q-0.578125 -0.375 -2.875 -0.953125q-3.09375 -0.78125 -4.296875 -1.34375q-1.1875 -0.578125 -1.8125 -1.578125q-0.609375 -1.015625 -0.609375 -2.234375q0 -1.109375 0.5 -2.046875q0.515625 -0.953125 1.390625 -1.578125q0.65625 -0.484375 1.78125 -0.8125q1.140625 -0.34375 2.4375 -0.34375q1.953125 0 3.421875 0.5625q1.484375 0.5625 2.1875 1.53125q0.703125 0.953125 0.96875 2.5625l-2.75 0.375q-0.1875 -1.28125 -1.09375 -2.0q-0.890625 -0.71875 -2.53125 -0.71875q-1.9375 0 -2.765625 0.640625q-0.828125 0.640625 -0.828125 1.5q0 0.546875 0.34375 0.984375q0.34375 0.453125 1.078125 0.75q0.421875 0.15625 2.484375 0.71875q2.984375 0.796875 4.15625 1.3125q1.1875 0.5 1.859375 1.46875q0.671875 0.96875 0.671875 2.40625q0 1.40625 -0.828125 2.65625q-0.8125 1.234375 -2.359375 1.921875q-1.546875 0.671875 -3.5 0.671875q-3.234375 0 -4.9375 -1.34375q-1.6875 -1.34375 -2.15625 -3.984375zm23.265625 2.4375l0.40625 2.484375q-1.1875 0.25 -2.125 0.25q-1.53125 0 -2.375 -0.484375q-0.84375 -0.484375 -1.1875 -1.265625q-0.34375 -0.796875 -0.34375 -3.328125l0 -9.546875l-2.0625 0l0 -2.1875l2.0625 0l0 -4.109375l2.796875 -1.6875l0 5.796875l2.828125 0l0 2.1875l-2.828125 0l0 9.703125q0 1.203125 0.140625 1.546875q0.15625 0.34375 0.484375 0.546875q0.34375 0.203125 0.96875 0.203125q0.46875 0 1.234375 -0.109375z" fill-rule="nonzero"/><path fill="#cfe2f3" d="m537.7769 455.44913l0 0c0 -8.897614 7.2129517 -16.110535 16.110535 -16.110535l211.74738 0c4.272827 0 8.370605 1.6973572 11.391907 4.7186584c3.0213013 3.0213318 4.718689 7.11911 4.718689 11.391876l0 64.44034c0 8.897583 -7.2129517 16.110535 -16.110596 16.110535l-211.74738 0l0 0c-8.897583 0 -16.110535 -7.2129517 -16.110535 -16.110535z" fill-rule="evenodd"/><path stroke="#000000" stroke-width="1.0" stroke-linejoin="round" stroke-linecap="butt" d="m537.7769 455.44913l0 0c0 -8.897614 7.2129517 -16.110535 16.110535 -16.110535l211.74738 0c4.272827 0 8.370605 1.6973572 11.391907 4.7186584c3.0213013 3.0213318 4.718689 7.11911 4.718689 11.391876l0 64.44034c0 8.897583 -7.2129517 16.110535 -16.110596 16.110535l-211.74738 0l0 0c-8.897583 0 -16.110535 -7.2129517 -16.110535 -16.110535z" fill-rule="evenodd"/><path fill="#000000" d="m559.5893 499.38928l0 -22.90625l3.03125 0l0 22.90625l-3.03125 0zm8.015625 0l0 -16.59375l2.53125 0l0 2.359375q1.828125 -2.734375 5.28125 -2.734375q1.5 0 2.75 0.546875q1.265625 0.53125 1.890625 1.40625q0.625 0.875 0.875 2.078125q0.15625 0.78125 0.15625 2.734375l0 10.203125l-2.8125 0l0 -10.09375q0 -1.71875 -0.328125 -2.5625q-0.328125 -0.859375 -1.171875 -1.359375q-0.828125 -0.515625 -1.953125 -0.515625q-1.796875 0 -3.109375 1.140625q-1.296875 1.140625 -1.296875 4.328125l0 9.0625l-2.8125 0zm16.671875 -4.953125l2.78125 -0.4375q0.234375 1.671875 1.296875 2.5625q1.078125 0.890625 3.0 0.890625q1.9375 0 2.875 -0.78125q0.9375 -0.796875 0.9375 -1.859375q0 -0.953125 -0.828125 -1.5q-0.578125 -0.375 -2.875 -0.953125q-3.09375 -0.78125 -4.296875 -1.34375q-1.1875 -0.578125 -1.8125 -1.578125q-0.609375 -1.015625 -0.609375 -2.234375q0 -1.109375 0.5 -2.046875q0.515625 -0.953125 1.390625 -1.578125q0.65625 -0.484375 1.78125 -0.8125q1.140625 -0.34375 2.4375 -0.34375q1.953125 0 3.421875 0.5625q1.484375 0.5625 2.1875 1.53125q0.703125 0.953125 0.96875 2.5625l-2.75 0.375q-0.1875 -1.28125 -1.09375 -2.0q-0.890625 -0.71875 -2.53125 -0.71875q-1.9375 0 -2.765625 0.640625q-0.828125 0.640625 -0.828125 1.5q0 0.546875 0.34375 0.984375q0.34375 0.453125 1.078125 0.75q0.421875 0.15625 2.484375 0.71875q2.984375 0.796875 4.15625 1.3125q1.1875 0.5 1.859375 1.46875q0.671875 0.96875 0.671875 2.40625q0 1.40625 -0.828125 2.65625q-0.8125 1.234375 -2.359375 1.921875q-1.546875 0.671875 -3.5 0.671875q-3.234375 0 -4.9375 -1.34375q-1.6875 -1.34375 -2.15625 -3.984375zm23.265625 2.4375l0.40625 2.484375q-1.1875 0.25 -2.125 0.25q-1.53125 0 -2.375 -0.484375q-0.84375 -0.484375 -1.1875 -1.265625q-0.34375 -0.796875 -0.34375 -3.328125l0 -9.546875l-2.0625 0l0 -2.1875l2.0625 0l0 -4.109375l2.796875 -1.6875l0 5.796875l2.828125 0l0 2.1875l-2.828125 0l0 9.703125q0 1.203125 0.140625 1.546875q0.15625 0.34375 0.484375 0.546875q0.34375 0.203125 0.96875 0.203125q0.46875 0 1.234375 -0.109375zm13.578125 0.46875q-1.5625 1.328125 -3.015625 1.875q-1.4375 0.546875 -3.09375 0.546875q-2.734375 0 -4.203125 -1.328125q-1.46875 -1.34375 -1.46875 -3.421875q0 -1.21875 0.546875 -2.21875q0.5625 -1.015625 1.453125 -1.625q0.90625 -0.609375 2.03125 -0.921875q0.828125 -0.21875 2.5 -0.421875q3.40625 -0.40625 5.015625 -0.96875q0.015625 -0.578125 0.015625 -0.734375q0 -1.71875 -0.796875 -2.421875q-1.078125 -0.953125 -3.203125 -0.953125q-1.984375 0 -2.9375 0.703125q-0.9375 0.6875 -1.390625 2.453125l-2.75 -0.375q0.375 -1.765625 1.234375 -2.84375q0.859375 -1.09375 2.484375 -1.671875q1.625 -0.59375 3.765625 -0.59375q2.125 0 3.453125 0.5q1.328125 0.5 1.953125 1.265625q0.625 0.75 0.875 1.90625q0.140625 0.71875 0.140625 2.59375l0 3.75q0 3.921875 0.171875 4.96875q0.1875 1.03125 0.71875 1.984375l-2.9375 0q-0.4375 -0.875 -0.5625 -2.046875zm-0.234375 -6.28125q-1.53125 0.625 -4.59375 1.0625q-1.734375 0.25 -2.453125 0.5625q-0.71875 0.3125 -1.109375 0.921875q-0.390625 0.59375 -0.390625 1.328125q0 1.125 0.84375 1.875q0.859375 0.75 2.5 0.75q1.625 0 2.890625 -0.703125q1.265625 -0.71875 1.859375 -1.953125q0.453125 -0.953125 0.453125 -2.8125l0 -1.03125zm6.6875 9.703125l2.734375 0.40625q0.171875 1.265625 0.953125 1.84375q1.046875 0.78125 2.859375 0.78125q1.953125 0 3.015625 -0.78125q1.0625 -0.78125 1.4375 -2.1875q0.21875 -0.859375 0.203125 -3.609375q-1.84375 2.171875 -4.59375 2.171875q-3.421875 0 -5.296875 -2.46875q-1.875 -2.46875 -1.875 -5.921875q0 -2.375 0.859375 -4.375q0.859375 -2.015625 2.484375 -3.109375q1.640625 -1.09375 3.84375 -1.09375q2.9375 0 4.84375 2.375l0 -2.0l2.59375 0l0 14.34375q0 3.875 -0.796875 5.484375q-0.78125 1.625 -2.5 2.5625q-1.703125 0.9375 -4.203125 0.9375q-2.96875 0 -4.796875 -1.34375q-1.828125 -1.328125 -1.765625 -4.015625zm2.328125 -9.96875q0 3.265625 1.296875 4.765625q1.296875 1.5 3.25 1.5q1.9375 0 3.25 -1.484375q1.3125 -1.5 1.3125 -4.6875q0 -3.046875 -1.359375 -4.59375q-1.34375 -1.546875 -3.25 -1.546875q-1.875 0 -3.1875 1.53125q-1.3125 1.515625 -1.3125 4.515625zm15.953125 8.59375l0 -16.59375l2.53125 0l0 2.515625q0.96875 -1.765625 1.78125 -2.328125q0.828125 -0.5625 1.8125 -0.5625q1.421875 0 2.890625 0.90625l-0.96875 2.609375q-1.03125 -0.609375 -2.0625 -0.609375q-0.921875 0 -1.65625 0.5625q-0.734375 0.546875 -1.046875 1.53125q-0.46875 1.5 -0.46875 3.28125l0 8.6875l-2.8125 0zm21.515625 -2.046875q-1.5625 1.328125 -3.015625 1.875q-1.4375 0.546875 -3.09375 0.546875q-2.734375 0 -4.203125 -1.328125q-1.46875 -1.34375 -1.46875 -3.421875q0 -1.21875 0.546875 -2.21875q0.5625 -1.015625 1.453125 -1.625q0.90625 -0.609375 2.03125 -0.921875q0.828125 -0.21875 2.5 -0.421875q3.40625 -0.40625 5.015625 -0.96875q0.015625 -0.578125 0.015625 -0.734375q0 -1.71875 -0.796875 -2.421875q-1.078125 -0.953125 -3.203125 -0.953125q-1.984375 0 -2.9375 0.703125q-0.9375 0.6875 -1.390625 2.453125l-2.75 -0.375q0.375 -1.765625 1.234375 -2.84375q0.859375 -1.09375 2.484375 -1.671875q1.625 -0.59375 3.765625 -0.59375q2.125 0 3.453125 0.5q1.328125 0.5 1.953125 1.265625q0.625 0.75 0.875 1.90625q0.140625 0.71875 0.140625 2.59375l0 3.75q0 3.921875 0.171875 4.96875q0.1875 1.03125 0.71875 1.984375l-2.9375 0q-0.4375 -0.875 -0.5625 -2.046875zm-0.234375 -6.28125q-1.53125 0.625 -4.59375 1.0625q-1.734375 0.25 -2.453125 0.5625q-0.71875 0.3125 -1.109375 0.921875q-0.390625 0.59375 -0.390625 1.328125q0 1.125 0.84375 1.875q0.859375 0.75 2.5 0.75q1.625 0 2.890625 -0.703125q1.265625 -0.71875 1.859375 -1.953125q0.453125 -0.953125 0.453125 -2.8125l0 -1.03125zm7.203125 8.328125l0 -16.59375l2.515625 0l0 2.328125q0.78125 -1.21875 2.078125 -1.953125q1.296875 -0.75 2.953125 -0.75q1.84375 0 3.015625 0.765625q1.1875 0.765625 1.671875 2.140625q1.96875 -2.90625 5.125 -2.90625q2.46875 0 3.796875 1.375q1.328125 1.359375 1.328125 4.203125l0 11.390625l-2.796875 0l0 -10.453125q0 -1.6875 -0.28125 -2.421875q-0.265625 -0.75 -0.984375 -1.203125q-0.71875 -0.453125 -1.6875 -0.453125q-1.75 0 -2.90625 1.171875q-1.15625 1.15625 -1.15625 3.71875l0 9.640625l-2.8125 0l0 -10.78125q0 -1.875 -0.6875 -2.8125q-0.6875 -0.9375 -2.25 -0.9375q-1.1875 0 -2.203125 0.625q-1.0 0.625 -1.453125 1.828125q-0.453125 1.203125 -0.453125 3.46875l0 8.609375l-2.8125 0zm27.015625 0l0 -22.90625l8.640625 0q2.28125 0 3.484375 0.21875q1.6875 0.28125 2.828125 1.078125q1.140625 0.78125 1.828125 2.203125q0.703125 1.421875 0.703125 3.125q0 2.921875 -1.859375 4.953125q-1.859375 2.015625 -6.71875 2.015625l-5.875 0l0 9.3125l-3.03125 0zm3.03125 -12.015625l5.921875 0q2.9375 0 4.171875 -1.09375q1.234375 -1.09375 1.234375 -3.078125q0 -1.4375 -0.734375 -2.453125q-0.71875 -1.03125 -1.90625 -1.359375q-0.765625 -0.203125 -2.828125 -0.203125l-5.859375 0l0 8.1875zm16.90625 3.71875q0 -4.609375 2.5625 -6.828125q2.140625 -1.84375 5.21875 -1.84375q3.421875 0 5.59375 2.25q2.171875 2.234375 2.171875 6.1875q0 3.203125 -0.96875 5.046875q-0.953125 1.828125 -2.796875 2.84375q-1.828125 1.015625 -4.0 1.015625q-3.484375 0 -5.640625 -2.234375q-2.140625 -2.234375 -2.140625 -6.4375zm2.890625 0q0 3.1875 1.390625 4.78125q1.390625 1.578125 3.5 1.578125q2.09375 0 3.484375 -1.59375q1.390625 -1.59375 1.390625 -4.859375q0 -3.078125 -1.40625 -4.65625q-1.390625 -1.59375 -3.46875 -1.59375q-2.109375 0 -3.5 1.578125q-1.390625 1.578125 -1.390625 4.765625zm14.828125 3.34375l2.78125 -0.4375q0.234375 1.671875 1.296875 2.5625q1.078125 0.890625 3.0 0.890625q1.9375 0 2.875 -0.78125q0.9375 -0.796875 0.9375 -1.859375q0 -0.953125 -0.828125 -1.5q-0.578125 -0.375 -2.875 -0.953125q-3.09375 -0.78125 -4.296875 -1.34375q-1.1875 -0.578125 -1.8125 -1.578125q-0.609375 -1.015625 -0.609375 -2.234375q0 -1.109375 0.5 -2.046875q0.515625 -0.953125 1.390625 -1.578125q0.65625 -0.484375 1.78125 -0.8125q1.140625 -0.34375 2.4375 -0.34375q1.953125 0 3.421875 0.5625q1.484375 0.5625 2.1875 1.53125q0.703125 0.953125 0.96875 2.5625l-2.75 0.375q-0.1875 -1.28125 -1.09375 -2.0q-0.890625 -0.71875 -2.53125 -0.71875q-1.9375 0 -2.765625 0.640625q-0.828125 0.640625 -0.828125 1.5q0 0.546875 0.34375 0.984375q0.34375 0.453125 1.078125 0.75q0.421875 0.15625 2.484375 0.71875q2.984375 0.796875 4.15625 1.3125q1.1875 0.5 1.859375 1.46875q0.671875 0.96875 0.671875 2.40625q0 1.40625 -0.828125 2.65625q-0.8125 1.234375 -2.359375 1.921875q-1.546875 0.671875 -3.5 0.671875q-3.234375 0 -4.9375 -1.34375q-1.6875 -1.34375 -2.15625 -3.984375zm23.265625 2.4375l0.40625 2.484375q-1.1875 0.25 -2.125 0.25q-1.53125 0 -2.375 -0.484375q-0.84375 -0.484375 -1.1875 -1.265625q-0.34375 -0.796875 -0.34375 -3.328125l0 -9.546875l-2.0625 0l0 -2.1875l2.0625 0l0 -4.109375l2.796875 -1.6875l0 5.796875l2.828125 0l0 2.1875l-2.828125 0l0 9.703125q0 1.203125 0.140625 1.546875q0.15625 0.34375 0.484375 0.546875q0.34375 0.203125 0.96875 0.203125q0.46875 0 1.234375 -0.109375z" fill-rule="nonzero"/><path fill="#cfe2f3" d="m537.76117 587.00555l0 0c0 -8.897583 7.2129517 -16.110535 16.110535 -16.110535l211.74738 0c4.272827 0 8.370605 1.6973267 11.391907 4.718689c3.0213013 3.0213013 4.718689 7.1190796 4.718689 11.391846l0 64.44031c0 8.897644 -7.2129517 16.110596 -16.110596 16.110596l-211.74738 0l0 0c-8.897583 0 -16.110535 -7.2129517 -16.110535 -16.110596z" fill-rule="evenodd"/><path stroke="#000000" stroke-width="1.0" stroke-linejoin="round" stroke-linecap="butt" d="m537.76117 587.00555l0 0c0 -8.897583 7.2129517 -16.110535 16.110535 -16.110535l211.74738 0c4.272827 0 8.370605 1.6973267 11.391907 4.718689c3.0213013 3.0213013 4.718689 7.1190796 4.718689 11.391846l0 64.44031c0 8.897644 -7.2129517 16.110596 -16.110596 16.110596l-211.74738 0l0 0c-8.897583 0 -16.110535 -7.2129517 -16.110535 -16.110596z" fill-rule="evenodd"/><path fill="#000000" d="m586.4798 630.94574l0 -22.90625l3.03125 0l0 20.203125l11.28125 0l0 2.703125l-14.3125 0zm17.578125 -19.671875l0 -3.234375l2.8125 0l0 3.234375l-2.8125 0zm0 19.671875l0 -16.59375l2.8125 0l0 16.59375l-2.8125 0zm7.109375 0l0 -22.90625l2.8125 0l0 13.0625l6.65625 -6.75l3.640625 0l-6.34375 6.15625l6.984375 10.4375l-3.46875 0l-5.484375 -8.484375l-1.984375 1.90625l0 6.578125l-2.8125 0zm27.34375 -5.34375l2.90625 0.359375q-0.6875 2.546875 -2.546875 3.953125q-1.859375 1.40625 -4.75 1.40625q-3.640625 0 -5.78125 -2.234375q-2.125 -2.25 -2.125 -6.296875q0 -4.1875 2.15625 -6.5q2.15625 -2.3125 5.59375 -2.3125q3.328125 0 5.4375 2.265625q2.109375 2.265625 2.109375 6.375q0 0.25 -0.015625 0.75l-12.375 0q0.15625 2.734375 1.546875 4.1875q1.390625 1.453125 3.46875 1.453125q1.546875 0 2.640625 -0.8125q1.09375 -0.8125 1.734375 -2.59375zm-9.234375 -4.546875l9.265625 0q-0.1875 -2.09375 -1.0625 -3.140625q-1.34375 -1.625 -3.484375 -1.625q-1.9375 0 -3.265625 1.296875q-1.3125 1.296875 -1.453125 3.46875zm15.90625 9.890625l0 -22.90625l8.59375 0q2.625 0 4.203125 0.703125q1.59375 0.6875 2.484375 2.140625q0.90625 1.4375 0.90625 3.015625q0 1.46875 -0.796875 2.765625q-0.796875 1.296875 -2.40625 2.09375q2.078125 0.609375 3.1875 2.078125q1.125 1.46875 1.125 3.46875q0 1.609375 -0.6875 3.0q-0.671875 1.375 -1.671875 2.125q-1.0 0.75 -2.515625 1.140625q-1.5 0.375 -3.6875 0.375l-8.734375 0zm3.03125 -13.28125l4.953125 0q2.015625 0 2.890625 -0.265625q1.15625 -0.34375 1.734375 -1.140625q0.59375 -0.796875 0.59375 -2.0q0 -1.140625 -0.546875 -2.0q-0.546875 -0.875 -1.5625 -1.1875q-1.015625 -0.328125 -3.484375 -0.328125l-4.578125 0l0 6.921875zm0 10.578125l5.703125 0q1.46875 0 2.0625 -0.109375q1.046875 -0.1875 1.75 -0.625q0.703125 -0.4375 1.15625 -1.265625q0.453125 -0.84375 0.453125 -1.9375q0 -1.28125 -0.65625 -2.21875q-0.65625 -0.953125 -1.828125 -1.328125q-1.15625 -0.390625 -3.34375 -0.390625l-5.296875 0l0 7.875zm28.953125 2.703125l0 -2.4375q-1.9375 2.8125 -5.265625 2.8125q-1.46875 0 -2.75 -0.5625q-1.265625 -0.5625 -1.890625 -1.40625q-0.609375 -0.859375 -0.859375 -2.09375q-0.171875 -0.828125 -0.171875 -2.625l0 -10.28125l2.8125 0l0 9.203125q0 2.203125 0.171875 2.96875q0.265625 1.109375 1.125 1.75q0.859375 0.625 2.125 0.625q1.265625 0 2.375 -0.640625q1.109375 -0.65625 1.5625 -1.765625q0.46875 -1.125 0.46875 -3.25l0 -8.890625l2.8125 0l0 16.59375l-2.515625 0zm13.0625 -2.515625l0.40625 2.484375q-1.1875 0.25 -2.125 0.25q-1.53125 0 -2.375 -0.484375q-0.84375 -0.484375 -1.1875 -1.265625q-0.34375 -0.796875 -0.34375 -3.328125l0 -9.546875l-2.0625 0l0 -2.1875l2.0625 0l0 -4.109375l2.796875 -1.6875l0 5.796875l2.828125 0l0 2.1875l-2.828125 0l0 9.703125q0 1.203125 0.140625 1.546875q0.15625 0.34375 0.484375 0.546875q0.34375 0.203125 0.96875 0.203125q0.46875 0 1.234375 -0.109375zm8.890625 0l0.40625 2.484375q-1.1875 0.25 -2.125 0.25q-1.53125 0 -2.375 -0.484375q-0.84375 -0.484375 -1.1875 -1.265625q-0.34375 -0.796875 -0.34375 -3.328125l0 -9.546875l-2.0625 0l0 -2.1875l2.0625 0l0 -4.109375l2.796875 -1.6875l0 5.796875l2.828125 0l0 2.1875l-2.828125 0l0 9.703125q0 1.203125 0.140625 1.546875q0.15625 0.34375 0.484375 0.546875q0.34375 0.203125 0.96875 0.203125q0.46875 0 1.234375 -0.109375zm1.703125 -5.78125q0 -4.609375 2.5625 -6.828125q2.140625 -1.84375 5.21875 -1.84375q3.421875 0 5.59375 2.25q2.171875 2.234375 2.171875 6.1875q0 3.203125 -0.96875 5.046875q-0.953125 1.828125 -2.796875 2.84375q-1.828125 1.015625 -4.0 1.015625q-3.484375 0 -5.640625 -2.234375q-2.140625 -2.234375 -2.140625 -6.4375zm2.890625 0q0 3.1875 1.390625 4.78125q1.390625 1.578125 3.5 1.578125q2.09375 0 3.484375 -1.59375q1.390625 -1.59375 1.390625 -4.859375q0 -3.078125 -1.40625 -4.65625q-1.390625 -1.59375 -3.46875 -1.59375q-2.109375 0 -3.5 1.578125q-1.390625 1.578125 -1.390625 4.765625zm15.953125 8.296875l0 -16.59375l2.53125 0l0 2.359375q1.828125 -2.734375 5.28125 -2.734375q1.5 0 2.75 0.546875q1.265625 0.53125 1.890625 1.40625q0.625 0.875 0.875 2.078125q0.15625 0.78125 0.15625 2.734375l0 10.203125l-2.8125 0l0 -10.09375q0 -1.71875 -0.328125 -2.5625q-0.328125 -0.859375 -1.171875 -1.359375q-0.828125 -0.515625 -1.953125 -0.515625q-1.796875 0 -3.109375 1.140625q-1.296875 1.140625 -1.296875 4.328125l0 9.0625l-2.8125 0z" fill-rule="nonzero"/><path fill="#000000" fill-opacity="0.0" d="m381.76117 307.78217l0 -22.227142l140.31494 0l0 -22.213806" fill-rule="evenodd"/><path stroke="#000000" stroke-width="1.0" stroke-linejoin="round" stroke-linecap="butt" d="m381.76117 307.78217l0 -22.227142l140.31494 0l0 -22.213806" fill-rule="evenodd"/><path fill="#000000" fill-opacity="0.0" d="m659.76117 307.78217l0 -22.227142l-137.66931 0l0 -22.213806" fill-rule="evenodd"/><path stroke="#000000" stroke-width="1.0" stroke-linejoin="round" stroke-linecap="butt" d="m659.76117 307.78217l0 -22.227142l-137.66931 0l0 -22.213806" fill-rule="evenodd"/><path fill="#000000" fill-opacity="0.0" d="m659.76117 439.3386l0 -17.447418l0.06298828 0l0 -17.450226" fill-rule="evenodd"/><path stroke="#000000" stroke-width="1.0" stroke-linejoin="round" stroke-linecap="butt" d="m659.76117 439.3386l0 -17.447418l0.06298828 0l0 -17.450226" fill-rule="evenodd"/><path fill="#000000" fill-opacity="0.0" d="m659.76117 536.0l0 17.447449l0.06298828 0l0 17.450195" fill-rule="evenodd"/><path stroke="#000000" stroke-width="1.0" stroke-linejoin="round" stroke-linecap="butt" d="m659.76117 536.0l0 17.447449l0.06298828 0l0 17.450195" fill-rule="evenodd"/><path fill="#000000" fill-opacity="0.0" d="m287.60367 356.11285l-120.06299 0l0 -210.3307" fill-rule="evenodd"/><path stroke="#6aa84f" stroke-width="4.0" stroke-linejoin="round" stroke-linecap="butt" stroke-dasharray="16.0,12.0" d="m263.60367 356.11285l-96.06299 0l0 -210.3307" fill-rule="evenodd"/><path fill="#6aa84f" stroke="#6aa84f" stroke-width="4.0" stroke-linecap="butt" d="m263.60367 362.7198l18.152405 -6.6069336l-18.152405 -6.6069336z" fill-rule="evenodd"/><path fill="#000000" fill-opacity="0.0" d="m537.76117 619.2257l-421.1024 0l0 -489.22833" fill-rule="evenodd"/><path stroke="#6aa84f" stroke-width="4.0" stroke-linejoin="round" stroke-linecap="butt" stroke-dasharray="16.0,12.0" d="m513.76117 619.2257l-397.1024 0l0 -489.22833" fill-rule="evenodd"/><path fill="#6aa84f" stroke="#6aa84f" stroke-width="4.0" stroke-linecap="butt" d="m513.76117 625.83264l18.152405 -6.6069336l-18.152405 -6.6069336z" fill-rule="evenodd"/><path fill="#b6d7a8" d="m180.12862 341.12073l72.22046 0l0 29.984253l-72.22046 0z" fill-rule="evenodd"/><path fill="#000000" d="m198.7388 362.06036q-1.234375 0 -1.890625 -0.703125q-0.65625 -0.71875 -0.65625 -2.09375l0 -7.703125l-2.65625 0l0 -1.078125l3.96875 0l0 8.875q0 0.859375 0.40625 1.25q0.421875 0.375 1.109375 0.375q0.34375 0 0.6875 -0.09375q0.359375 -0.09375 0.78125 -0.28125l0.34375 1.0q-0.53125 0.1875 -1.0 0.3125q-0.453125 0.140625 -1.09375 0.140625zm8.162521 -0.1875l0 -6.703125l-3.625 0l0 -1.078125l4.9375 0l0 7.78125l-1.3125 0zm0.5 -9.40625q-0.4375 0 -0.75 -0.28125q-0.296875 -0.28125 -0.296875 -0.75q0 -0.453125 0.296875 -0.734375q0.3125 -0.28125 0.75 -0.28125q0.453125 0 0.75 0.28125q0.3125 0.28125 0.3125 0.734375q0 0.46875 -0.3125 0.75q-0.296875 0.28125 -0.75 0.28125zm5.7406464 9.40625l0 -11.390625l1.3125 0l0 7.703125l0.0625 0l4.1875 -4.09375l1.5 0l-5.75 5.671875l0 2.109375l-1.3125 0zm6.015625 0l-3.046875 -4.140625l0.796875 -0.84375l3.71875 4.984375l-1.46875 0zm7.1625214 0.1875q-1.171875 0 -2.125 -0.46875q-0.953125 -0.484375 -1.515625 -1.40625q-0.546875 -0.921875 -0.546875 -2.21875q0 -1.265625 0.546875 -2.171875q0.5625 -0.90625 1.46875 -1.390625q0.90625 -0.5 1.953125 -0.5q1.109375 0 1.90625 0.453125q0.796875 0.453125 1.21875 1.28125q0.421875 0.8125 0.421875 1.921875q0 0.21875 -0.015625 0.421875q-0.015625 0.203125 -0.046875 0.375l-6.578125 0l0 -1.03125l5.796875 0l-0.34375 0.375q0 -1.375 -0.640625 -2.0625q-0.625 -0.6875 -1.6875 -0.6875q-0.71875 0 -1.34375 0.359375q-0.609375 0.34375 -0.984375 1.015625q-0.359375 0.671875 -0.359375 1.640625q0 1.015625 0.390625 1.6875q0.40625 0.671875 1.09375 1.015625q0.6875 0.34375 1.546875 0.34375q0.703125 0 1.265625 -0.203125q0.578125 -0.203125 1.109375 -0.53125l0.46875 0.859375q-0.5625 0.375 -1.3125 0.65625q-0.75 0.265625 -1.6875 0.265625zm9.271896 0q-1.125 0 -2.125 -0.359375q-0.984375 -0.375 -1.6875 -0.859375l0.609375 -0.859375q0.671875 0.484375 1.484375 0.78125q0.8125 0.28125 1.890625 0.28125q0.984375 0 1.46875 -0.359375q0.5 -0.375 0.5 -0.859375q0 -0.21875 -0.09375 -0.40625q-0.09375 -0.203125 -0.34375 -0.375q-0.234375 -0.1875 -0.71875 -0.34375q-0.484375 -0.15625 -1.28125 -0.3125q-1.515625 -0.328125 -2.28125 -0.859375q-0.765625 -0.546875 -0.765625 -1.421875q0 -0.9375 0.8125 -1.5625q0.828125 -0.640625 2.421875 -0.640625q0.90625 0 1.734375 0.296875q0.828125 0.296875 1.40625 0.703125l-0.640625 0.84375q-0.53125 -0.390625 -1.203125 -0.59375q-0.671875 -0.21875 -1.40625 -0.21875q-0.671875 0 -1.0625 0.15625q-0.390625 0.140625 -0.5625 0.40625q-0.171875 0.25 -0.171875 0.546875q0 0.5 0.53125 0.78125q0.546875 0.28125 1.734375 0.515625q1.296875 0.28125 1.984375 0.625q0.703125 0.328125 0.96875 0.765625q0.265625 0.421875 0.265625 1.015625q0 0.640625 -0.40625 1.15625q-0.40625 0.515625 -1.171875 0.84375q-0.765625 0.3125 -1.890625 0.3125z" fill-rule="nonzero"/><path fill="#b6d7a8" d="m334.1286 604.2336l120.06299 0l0 29.984253l-120.06299 0z" fill-rule="evenodd"/><path fill="#000000" d="m360.71313 625.1732q-1.125 0 -2.125 -0.359375q-0.984375 -0.375 -1.6875 -0.859375l0.609375 -0.859375q0.671875 0.484375 1.484375 0.78125q0.8125 0.28125 1.890625 0.28125q0.984375 0 1.46875 -0.359375q0.5 -0.375 0.5 -0.859375q0 -0.21875 -0.09375 -0.40625q-0.09375 -0.203125 -0.34375 -0.375q-0.234375 -0.1875 -0.71875 -0.34375q-0.484375 -0.15625 -1.28125 -0.3125q-1.515625 -0.328125 -2.28125 -0.859375q-0.765625 -0.546875 -0.765625 -1.421875q0 -0.9375 0.8125 -1.5625q0.828125 -0.640625 2.421875 -0.640625q0.90625 0 1.734375 0.296875q0.828125 0.296875 1.40625 0.703125l-0.640625 0.84375q-0.53125 -0.390625 -1.203125 -0.59375q-0.671875 -0.21875 -1.40625 -0.21875q-0.671875 0 -1.0625 0.15625q-0.390625 0.140625 -0.5625 0.40625q-0.171875 0.25 -0.171875 0.546875q0 0.5 0.53125 0.78125q0.546875 0.28125 1.734375 0.515625q1.296875 0.28125 1.984375 0.625q0.703125 0.328125 0.96875 0.765625q0.265625 0.421875 0.265625 1.015625q0 0.640625 -0.40625 1.15625q-0.40625 0.515625 -1.171875 0.84375q-0.765625 0.3125 -1.890625 0.3125zm9.928162 0q-1.171875 0 -2.125 -0.46875q-0.953125 -0.484375 -1.515625 -1.40625q-0.546875 -0.921875 -0.546875 -2.21875q0 -1.265625 0.546875 -2.171875q0.5625 -0.90625 1.46875 -1.390625q0.90625 -0.5 1.953125 -0.5q1.109375 0 1.90625 0.453125q0.796875 0.453125 1.21875 1.28125q0.421875 0.8125 0.421875 1.921875q0 0.21875 -0.015625 0.421875q-0.015625 0.203125 -0.046875 0.375l-6.578125 0l0 -1.03125l5.796875 0l-0.34375 0.375q0 -1.375 -0.640625 -2.0625q-0.625 -0.6875 -1.6875 -0.6875q-0.71875 0 -1.34375 0.359375q-0.609375 0.34375 -0.984375 1.015625q-0.359375 0.671875 -0.359375 1.640625q0 1.015625 0.390625 1.6875q0.40625 0.671875 1.09375 1.015625q0.6875 0.34375 1.546875 0.34375q0.703125 0 1.265625 -0.203125q0.578125 -0.203125 1.109375 -0.53125l0.46875 0.859375q-0.5625 0.375 -1.3125 0.65625q-0.75 0.265625 -1.6875 0.265625zm10.615631 0q-1.125 0 -1.78125 -0.40625q-0.65625 -0.40625 -0.9375 -1.125q-0.28125 -0.71875 -0.28125 -1.6875l0 -3.671875l-2.1875 0l0 -1.0l2.234375 -0.078125l0.171875 -2.484375l1.09375 0l0 2.484375l3.828125 0l0 1.078125l-3.828125 0l0 3.6875q0 0.703125 0.171875 1.1875q0.171875 0.46875 0.609375 0.71875q0.4375 0.234375 1.1875 0.234375q0.5625 0 1.0 -0.09375q0.453125 -0.109375 0.875 -0.265625l0.28125 0.96875q-0.53125 0.1875 -1.109375 0.3125q-0.578125 0.140625 -1.328125 0.140625zm5.4437866 -0.1875l0 -10.5l1.3125 0l0 9.359375l5.203125 0l0 1.140625l-6.515625 0zm12.521881 0l0 -6.703125l-3.625 0l0 -1.078125l4.9375 0l0 7.78125l-1.3125 0zm0.5 -9.40625q-0.4375 0 -0.75 -0.28125q-0.296875 -0.28125 -0.296875 -0.75q0 -0.453125 0.296875 -0.734375q0.3125 -0.28125 0.75 -0.28125q0.453125 0 0.75 0.28125q0.3125 0.28125 0.3125 0.734375q0 0.46875 -0.3125 0.75q-0.296875 0.28125 -0.75 0.28125zm5.7406616 9.40625l0 -11.390625l1.3125 0l0 7.703125l0.0625 0l4.1875 -4.09375l1.5 0l-5.75 5.671875l0 2.109375l-1.3125 0zm6.015625 0l-3.046875 -4.140625l0.796875 -0.84375l3.71875 4.984375l-1.46875 0zm7.162506 0.1875q-1.171875 0 -2.125 -0.46875q-0.953125 -0.484375 -1.515625 -1.40625q-0.546875 -0.921875 -0.546875 -2.21875q0 -1.265625 0.546875 -2.171875q0.5625 -0.90625 1.46875 -1.390625q0.90625 -0.5 1.953125 -0.5q1.109375 0 1.90625 0.453125q0.796875 0.453125 1.21875 1.28125q0.421875 0.8125 0.421875 1.921875q0 0.21875 -0.015625 0.421875q-0.015625 0.203125 -0.046875 0.375l-6.578125 0l0 -1.03125l5.796875 0l-0.34375 0.375q0 -1.375 -0.640625 -2.0625q-0.625 -0.6875 -1.6875 -0.6875q-0.71875 0 -1.34375 0.359375q-0.609375 0.34375 -0.984375 1.015625q-0.359375 0.671875 -0.359375 1.640625q0 1.015625 0.390625 1.6875q0.40625 0.671875 1.09375 1.015625q0.6875 0.34375 1.546875 0.34375q0.703125 0 1.265625 -0.203125q0.578125 -0.203125 1.109375 -0.53125l0.46875 0.859375q-0.5625 0.375 -1.3125 0.65625q-0.75 0.265625 -1.6875 0.265625zm9.271912 0q-1.125 0 -2.125 -0.359375q-0.984375 -0.375 -1.6875 -0.859375l0.609375 -0.859375q0.671875 0.484375 1.484375 0.78125q0.8125 0.28125 1.890625 0.28125q0.984375 0 1.46875 -0.359375q0.5 -0.375 0.5 -0.859375q0 -0.21875 -0.09375 -0.40625q-0.09375 -0.203125 -0.34375 -0.375q-0.234375 -0.1875 -0.71875 -0.34375q-0.484375 -0.15625 -1.28125 -0.3125q-1.515625 -0.328125 -2.28125 -0.859375q-0.765625 -0.546875 -0.765625 -1.421875q0 -0.9375 0.8125 -1.5625q0.828125 -0.640625 2.421875 -0.640625q0.90625 0 1.734375 0.296875q0.828125 0.296875 1.40625 0.703125l-0.640625 0.84375q-0.53125 -0.390625 -1.203125 -0.59375q-0.671875 -0.21875 -1.40625 -0.21875q-0.671875 0 -1.0625 0.15625q-0.390625 0.140625 -0.5625 0.40625q-0.171875 0.25 -0.171875 0.546875q0 0.5 0.53125 0.78125q0.546875 0.28125 1.734375 0.515625q1.296875 0.28125 1.984375 0.625q0.703125 0.328125 0.96875 0.765625q0.265625 0.421875 0.265625 1.015625q0 0.640625 -0.40625 1.15625q-0.40625 0.515625 -1.171875 0.84375q-0.765625 0.3125 -1.890625 0.3125z" fill-rule="nonzero"/><path fill="#000000" fill-opacity="0.0" d="m317.55643 75.90989l598.00073 0l0 280.189l-133.81177 0" fill-rule="evenodd"/><path stroke="#6aa84f" stroke-width="4.0" stroke-linejoin="round" stroke-linecap="butt" stroke-dasharray="16.0,12.0" d="m317.55643 75.90988l598.00073 0l0 280.189l-109.81177 0" fill-rule="evenodd"/><path fill="#6aa84f" stroke="#6aa84f" stroke-width="4.0" stroke-linecap="butt" d="m805.7454 349.49194l-18.152405 6.6069336l18.152405 6.6069336z" fill-rule="evenodd"/><path fill="#b6d7a8" d="m820.5739 341.12073l83.87402 0l0 29.984253l-83.87402 0z" fill-rule="evenodd"/><path fill="#000000" d="m838.7734 361.87286l0 -6.703125l-3.625 0l0 -1.078125l4.9375 0l0 7.78125l-1.3125 0zm0.5 -9.40625q-0.4375 0 -0.75 -0.28125q-0.296875 -0.28125 -0.296875 -0.75q0 -0.453125 0.296875 -0.734375q0.3125 -0.28125 0.75 -0.28125q0.453125 0 0.75 0.28125q0.3125 0.28125 0.3125 0.734375q0 0.46875 -0.3125 0.75q-0.296875 0.28125 -0.75 0.28125zm4.9594116 9.40625l0 -7.78125l1.0625 0l0.109375 1.03125l0.03125 0q0.3125 -0.546875 0.703125 -0.875q0.40625 -0.34375 1.078125 -0.34375q0.578125 0 0.9375 0.34375q0.375 0.328125 0.53125 1.0q0.34375 -0.625 0.75 -0.984375q0.40625 -0.359375 1.078125 -0.359375q0.8125 0 1.265625 0.625q0.453125 0.609375 0.453125 1.78125l0 5.5625l-1.3125 0l0 -5.46875q0 -1.359375 -0.828125 -1.359375q-0.390625 0 -0.65625 0.296875q-0.265625 0.296875 -0.59375 0.90625l0 5.625l-1.21875 0l0 -5.46875q0 -0.671875 -0.1875 -1.015625q-0.171875 -0.34375 -0.609375 -0.34375q-0.390625 0 -0.6875 0.296875q-0.296875 0.296875 -0.59375 0.90625l0 5.625l-1.3125 0zm12.615601 0.1875q-0.71875 0 -1.328125 -0.265625q-0.609375 -0.265625 -0.96875 -0.75q-0.34375 -0.5 -0.34375 -1.1875q0 -1.3125 1.3125 -1.984375q1.3125 -0.6875 4.3125 -0.921875q-0.015625 -0.53125 -0.21875 -0.984375q-0.1875 -0.453125 -0.640625 -0.703125q-0.453125 -0.265625 -1.203125 -0.265625q-0.484375 0 -0.984375 0.140625q-0.484375 0.125 -0.921875 0.34375q-0.4375 0.21875 -0.8125 0.4375l-0.515625 -0.890625q0.390625 -0.265625 0.9375 -0.515625q0.5625 -0.265625 1.203125 -0.4375q0.640625 -0.171875 1.328125 -0.171875q1.0625 0 1.75 0.40625q0.703125 0.390625 1.046875 1.109375q0.34375 0.703125 0.34375 1.6875l0 4.765625l-1.0625 0l-0.109375 -1.0625l-0.046875 0q-0.640625 0.515625 -1.453125 0.890625q-0.796875 0.359375 -1.625 0.359375zm0.34375 -1.046875q0.671875 0 1.328125 -0.296875q0.65625 -0.3125 1.3125 -0.859375l0 -2.046875q-1.65625 0.140625 -2.609375 0.40625q-0.953125 0.25 -1.34375 0.640625q-0.390625 0.390625 -0.390625 0.90625q0 0.421875 0.234375 0.703125q0.25 0.28125 0.640625 0.421875q0.390625 0.125 0.828125 0.125zm10.053162 4.4375q-1.140625 0 -1.9375 -0.25q-0.796875 -0.25 -1.21875 -0.734375q-0.421875 -0.484375 -0.421875 -1.171875q0 -0.46875 0.328125 -0.921875q0.328125 -0.453125 0.953125 -0.796875l0 -0.078125q-0.3125 -0.171875 -0.5625 -0.46875q-0.25 -0.3125 -0.25 -0.796875q0 -0.375 0.234375 -0.765625q0.25 -0.390625 0.703125 -0.703125l0 -0.0625q-0.40625 -0.296875 -0.6875 -0.8125q-0.28125 -0.515625 -0.28125 -1.203125q0 -0.84375 0.421875 -1.46875q0.4375 -0.625 1.125 -0.96875q0.703125 -0.34375 1.515625 -0.34375q0.65625 0 1.15625 0.1875l3.21875 0l0 1.078125l-2.015625 0q0.265625 0.265625 0.453125 0.6875q0.1875 0.421875 0.1875 0.875q0 0.84375 -0.40625 1.4375q-0.390625 0.59375 -1.078125 0.921875q-0.671875 0.3125 -1.515625 0.3125q-0.296875 0 -0.65625 -0.0625q-0.34375 -0.078125 -0.65625 -0.21875q-0.28125 0.171875 -0.453125 0.40625q-0.15625 0.21875 -0.15625 0.484375q0 0.453125 0.421875 0.6875q0.421875 0.21875 1.203125 0.21875l1.734375 0q1.5 0 2.234375 0.421875q0.734375 0.40625 0.734375 1.390625q0 0.71875 -0.53125 1.34375q-0.53125 0.625 -1.5 1.0q-0.96875 0.375 -2.296875 0.375zm-0.078125 -6.921875q0.5 0 0.90625 -0.21875q0.40625 -0.234375 0.640625 -0.640625q0.25 -0.421875 0.25 -0.984375q0 -0.546875 -0.25 -0.953125q-0.234375 -0.40625 -0.640625 -0.640625q-0.40625 -0.234375 -0.90625 -0.234375q-0.484375 0 -0.890625 0.234375q-0.40625 0.234375 -0.65625 0.640625q-0.25 0.40625 -0.25 0.953125q0 0.5625 0.25 0.984375q0.25 0.40625 0.65625 0.640625q0.40625 0.21875 0.890625 0.21875zm0.171875 5.96875q0.921875 0 1.578125 -0.234375q0.65625 -0.21875 1.0 -0.578125q0.359375 -0.34375 0.359375 -0.734375q0 -0.5625 -0.453125 -0.765625q-0.4375 -0.1875 -1.328125 -0.1875l-1.515625 0q-0.34375 0 -0.640625 -0.03125q-0.296875 -0.03125 -0.546875 -0.09375q-0.546875 0.296875 -0.78125 0.625q-0.21875 0.328125 -0.21875 0.671875q0 0.609375 0.640625 0.96875q0.65625 0.359375 1.90625 0.359375zm10.053162 -2.4375q-1.171875 0 -2.125 -0.46875q-0.953125 -0.484375 -1.515625 -1.40625q-0.546875 -0.921875 -0.546875 -2.21875q0 -1.265625 0.546875 -2.171875q0.5625 -0.90625 1.46875 -1.390625q0.90625 -0.5 1.953125 -0.5q1.109375 0 1.90625 0.453125q0.796875 0.453125 1.21875 1.28125q0.421875 0.8125 0.421875 1.921875q0 0.21875 -0.015625 0.421875q-0.015625 0.203125 -0.046875 0.375l-6.578125 0l0 -1.03125l5.796875 0l-0.34375 0.375q0 -1.375 -0.640625 -2.0625q-0.625 -0.6875 -1.6875 -0.6875q-0.71875 0 -1.34375 0.359375q-0.609375 0.34375 -0.984375 1.015625q-0.359375 0.671875 -0.359375 1.640625q0 1.015625 0.390625 1.6875q0.40625 0.671875 1.09375 1.015625q0.6875 0.34375 1.546875 0.34375q0.703125 0 1.265625 -0.203125q0.578125 -0.203125 1.109375 -0.53125l0.46875 0.859375q-0.5625 0.375 -1.3125 0.65625q-0.75 0.265625 -1.6875 0.265625zm9.271912 0q-1.125 0 -2.125 -0.359375q-0.984375 -0.375 -1.6875 -0.859375l0.609375 -0.859375q0.671875 0.484375 1.484375 0.78125q0.8125 0.28125 1.890625 0.28125q0.984375 0 1.46875 -0.359375q0.5 -0.375 0.5 -0.859375q0 -0.21875 -0.09375 -0.40625q-0.09375 -0.203125 -0.34375 -0.375q-0.234375 -0.1875 -0.71875 -0.34375q-0.484375 -0.15625 -1.28125 -0.3125q-1.515625 -0.328125 -2.28125 -0.859375q-0.765625 -0.546875 -0.765625 -1.421875q0 -0.9375 0.8125 -1.5625q0.828125 -0.640625 2.421875 -0.640625q0.90625 0 1.734375 0.296875q0.828125 0.296875 1.40625 0.703125l-0.640625 0.84375q-0.53125 -0.390625 -1.203125 -0.59375q-0.671875 -0.21875 -1.40625 -0.21875q-0.671875 0 -1.0625 0.15625q-0.390625 0.140625 -0.5625 0.40625q-0.171875 0.25 -0.171875 0.546875q0 0.5 0.53125 0.78125q0.546875 0.28125 1.734375 0.515625q1.296875 0.28125 1.984375 0.625q0.703125 0.328125 0.96875 0.765625q0.265625 0.421875 0.265625 1.015625q0 0.640625 -0.40625 1.15625q-0.40625 0.515625 -1.171875 0.84375q-0.765625 0.3125 -1.890625 0.3125z" fill-rule="nonzero"/><path fill="#d9ead3" d="m17.55643 6.051618l300.0 0l0 139.71654l-300.0 0z" fill-rule="evenodd"/><path stroke="#000000" stroke-width="1.0" stroke-linejoin="round" stroke-linecap="butt" d="m17.55643 6.051618l300.0 0l0 139.71654l-300.0 0z" fill-rule="evenodd"/><path fill="#000000" d="m33.103306 33.190365q-1.140625 0 -2.109375 -0.421875q-0.96875 -0.4375 -1.703125 -1.2343731q-0.71875 -0.8125 -1.125 -2.0q-0.390625 -1.1875 -0.390625 -2.6875q0 -1.953125 0.703125 -3.375q0.703125 -1.4375 1.9375 -2.203125q1.234375 -0.765625 2.84375 -0.765625q1.09375 0 1.953125 0.46875q0.859375 0.453125 1.375 1.03125l-0.875 0.984375q-0.46875 -0.515625 -1.078125 -0.8125q-0.609375 -0.296875 -1.375 -0.296875q-1.1875 0 -2.0625 0.609375q-0.859375 0.59375 -1.34375 1.703125q-0.484375 1.09375 -0.484375 2.625q0 1.546875 0.484375 2.671875q0.484375 1.109375 1.34375 1.734375q0.875 0.609375 2.0625 0.609375q0.828125 0 1.5 -0.34375q0.671875 -0.359375 1.25 -1.015625l0.875 0.953125q-0.703125 0.8437481 -1.640625 1.3124981q-0.921875 0.453125 -2.140625 0.453125zm10.240631 0q-1.1875 0 -2.203125 -0.546875q-1.015625 -0.5625 -1.640625 -1.6249981q-0.625 -1.0625 -0.625 -2.5625q0 -1.53125 0.625 -2.59375q0.625 -1.0625 1.640625 -1.625q1.015625 -0.5625 2.203125 -0.5625q1.203125 0 2.21875 0.5625q1.015625 0.5625 1.640625 1.625q0.625 1.0625 0.625 2.59375q0 1.5 -0.625 2.5625q-0.625 1.0624981 -1.640625 1.6249981q-1.015625 0.546875 -2.21875 0.546875zm0 -1.2656231q0.875 0 1.53125 -0.4375q0.65625 -0.4375 1.0 -1.21875q0.359375 -0.78125 0.359375 -1.8125q0 -1.046875 -0.359375 -1.828125q-0.34375 -0.796875 -1.0 -1.234375q-0.65625 -0.4375 -1.53125 -0.4375q-0.875 0 -1.515625 0.4375q-0.640625 0.4375 -1.015625 1.234375q-0.359375 0.78125 -0.359375 1.828125q0 1.03125 0.359375 1.8125q0.375 0.78125 1.015625 1.21875q0.640625 0.4375 1.515625 0.4375zm7.334381 1.0468731l0 -9.062498l1.265625 0l0.140625 1.546875l0.0625 0q0.71875 -0.765625 1.53125 -1.265625q0.828125 -0.515625 1.890625 -0.515625q1.609375 0 2.359375 0.9375q0.765625 0.9375 0.765625 2.71875l0 5.640623l-1.515625 0l0 -5.421873q0 -1.296875 -0.5 -1.921875q-0.484375 -0.625 -1.59375 -0.625q-0.8125 0 -1.453125 0.421875q-0.625 0.40625 -1.421875 1.21875l0 6.328123l-1.53125 0zm16.803127 0.21875q-1.3125 0 -2.078125 -0.46875q-0.765625 -0.484375 -1.09375 -1.3124981q-0.3281212 -0.84375 -0.3281212 -1.96875l0 -4.28125l-2.5625 0l0 -1.15625l2.6249962 -0.09375l0.203125 -2.921875l1.265625 0l0 2.921875l4.453125 0l0 1.25l-4.453125 0l0 4.3125q0 0.796875 0.203125 1.359375q0.203125 0.5625 0.703125 0.84375q0.515625 0.265625 1.390625 0.265625q0.65625 0 1.171875 -0.109375q0.515625 -0.109375 1.0 -0.296875l0.34375 1.1249981q-0.609375 0.21875 -1.296875 0.375q-0.6875 0.15625 -1.546875 0.15625zm10.006256 0q-1.359375 0 -2.46875 -0.546875q-1.109375 -0.5625 -1.765625 -1.6406231q-0.65625 -1.078125 -0.65625 -2.578125q0 -1.484375 0.65625 -2.546875q0.65625 -1.0625 1.703125 -1.625q1.0625 -0.578125 2.265625 -0.578125q1.3125 0 2.234375 0.53125q0.921875 0.53125 1.40625 1.484375q0.5 0.953125 0.5 2.25q0 0.25 -0.015625 0.5q-0.015625 0.234375 -0.046875 0.421875l-7.671875 0l0 -1.1875l6.75 0l-0.390625 0.421875q0 -1.59375 -0.734375 -2.390625q-0.734375 -0.8125 -1.984375 -0.8125q-0.84375 0 -1.5625 0.421875q-0.71875 0.40625 -1.15625 1.1875q-0.421875 0.78125 -0.421875 1.921875q0 1.171875 0.46875 1.953125q0.46875 0.78125 1.265625 1.1875q0.796875 0.40625 1.8125 0.40625q0.8125 0 1.46875 -0.234375q0.671875 -0.234375 1.296875 -0.625l0.546875 0.9999981q-0.65625 0.453125 -1.53125 0.765625q-0.875 0.3125 -1.96875 0.3125zm6.225006 -0.21875l3.453125 -4.703123l-3.1875 -4.359375l1.703125 0l1.4375 1.984375q0.234375 0.359375 0.515625 0.75q0.28125 0.390625 0.546875 0.78125l0.078125 0q0.234375 -0.390625 0.5 -0.78125q0.28125 -0.40625 0.515625 -0.78125l1.359375 -1.953125l1.625 0l-3.21875 4.484375l3.46875 4.578123l-1.6875 0l-1.578125 -2.093748q-0.28125 -0.390625 -0.59375 -0.8125q-0.296875 -0.4375 -0.609375 -0.828125l-0.0625 0q-0.28125 0.390625 -0.5625 0.8125q-0.28125 0.40625 -0.5625 0.828125l-1.5 2.093748l-1.640625 0zm17.350006 0.21875q-1.3125 0 -2.078125 -0.46875q-0.765625 -0.484375 -1.09375 -1.3124981q-0.328125 -0.84375 -0.328125 -1.96875l0 -4.28125l-2.5625 0l0 -1.15625l2.625 -0.09375l0.203125 -2.921875l1.265625 0l0 2.921875l4.453125 0l0 1.25l-4.453125 0l0 4.3125q0 0.796875 0.203125 1.359375q0.203125 0.5625 0.703125 0.84375q0.515625 0.265625 1.390625 0.265625q0.65625 0 1.171875 -0.109375q0.515625 -0.109375 1.0 -0.296875l0.34375 1.1249981q-0.609375 0.21875 -1.296875 0.375q-0.6875 0.15625 -1.546875 0.15625zm9.443756 -6.671873q-0.609375 0 -1.0625 -0.4375q-0.453125 -0.4375 -0.453125 -1.125q0 -0.703125 0.453125 -1.140625q0.453125 -0.4375 1.0625 -0.4375q0.640625 0 1.078125 0.4375q0.4375 0.4375 0.4375 1.140625q0 0.6875 -0.4375 1.125q-0.4375 0.4375 -1.078125 0.4375zm0 6.671873q-0.609375 0 -1.0625 -0.4375q-0.453125 -0.4375 -0.453125 -1.1249981q0 -0.703125 0.453125 -1.140625q0.453125 -0.4375 1.0625 -0.4375q0.640625 0 1.078125 0.4375q0.4375 0.4375 0.4375 1.140625q0 0.6874981 -0.4375 1.1249981q-0.4375 0.4375 -1.078125 0.4375z" fill-rule="nonzero"/><path fill="#000000" d="m44.928608 45.690365q1.0 0 1.96875 0.53125q0.96875 0.515625 1.5 1.484375q0.53125 0.96875 0.53125 2.0q0 1.671875 -1.171875 2.84375q-1.171875 1.171875 -2.828125 1.171875q-1.671875 0 -2.84375 -1.171875q-1.171875 -1.171875 -1.171875 -2.84375q0 -1.046875 0.53125 -2.0q0.546875 -0.96875 1.5 -1.484375q0.96875 -0.53125 1.984375 -0.53125z" fill-rule="nonzero"/><path fill="#000000" d="m81.93143 55.190365q-1.734375 0 -2.640625 -1.03125q-0.890625 -1.046875 -0.890625 -2.8125l0 -7.28125l-2.890625 0l0 -2.15625l5.625 0l0 9.5625q0 0.84375 0.46875 1.171875q0.46875 0.328125 1.03125 0.328125q0.328125 0 0.671875 -0.0625q0.359375 -0.078125 0.78125 -0.234375l0.59375 2.015625q-0.703125 0.21875 -1.296875 0.359375q-0.578125 0.140625 -1.453125 0.140625zm9.006256 -0.21875l0 -7.109375l-3.734375 0l0 -2.140625l6.46875 0l0 9.25l-2.734375 0zm1.25 -10.703125q-0.78125 0 -1.3125 -0.453125q-0.515625 -0.46875 -0.515625 -1.21875q0 -0.765625 0.515625 -1.234375q0.53125 -0.46875 1.3125 -0.46875q0.8125 0 1.3125 0.46875q0.515625 0.46875 0.515625 1.234375q0 0.75 -0.515625 1.21875q-0.5 0.453125 -1.3125 0.453125zm6.178131 10.703125l0 -13.078125l2.734375 0l0 7.5625l0.078125 0l3.390625 -3.734375l3.015625 0l-6.484375 6.921875l0 2.328125l-2.734375 0zm6.53125 0l-2.6875 -4.203125l1.5625 -1.6875l4.078125 5.890625l-2.953125 0zm9.396881 0.21875q-1.4375 0 -2.609375 -0.5625q-1.15625 -0.578125 -1.84375 -1.65625q-0.671875 -1.09375 -0.671875 -2.625q0 -1.515625 0.6875 -2.609375q0.6875 -1.09375 1.78125 -1.671875q1.109375 -0.578125 2.34375 -0.578125q1.4375 0 2.40625 0.59375q0.96875 0.59375 1.453125 1.59375q0.5 0.984375 0.5 2.265625q0 0.359375 -0.046875 0.71875q-0.046875 0.34375 -0.078125 0.5l-7.015625 0l0 -1.84375l5.171875 0l-0.4375 0.53125q0 -1.125 -0.484375 -1.6875q-0.46875 -0.578125 -1.375 -0.578125q-0.671875 0 -1.1875 0.296875q-0.5 0.296875 -0.78125 0.921875q-0.28125 0.609375 -0.28125 1.546875q0 0.953125 0.328125 1.5625q0.34375 0.59375 0.984375 0.90625q0.640625 0.296875 1.53125 0.296875q0.625 0 1.1875 -0.171875q0.578125 -0.171875 1.203125 -0.484375l0.90625 1.65625q-0.796875 0.5 -1.765625 0.796875q-0.96875 0.28125 -1.90625 0.28125zm10.553131 0q-1.21875 0 -2.4375 -0.40625q-1.21875 -0.421875 -2.09375 -1.0l1.1875 -1.71875q0.828125 0.53125 1.765625 0.8125q0.953125 0.28125 1.953125 0.28125q0.765625 0 1.125 -0.234375q0.359375 -0.234375 0.359375 -0.546875q0 -0.203125 -0.109375 -0.34375q-0.109375 -0.140625 -0.359375 -0.265625q-0.25 -0.125 -0.6875 -0.234375q-0.4375 -0.109375 -1.125 -0.25q-1.890625 -0.421875 -2.71875 -1.125q-0.8125 -0.703125 -0.8125 -1.765625q0 -1.3125 1.140625 -2.109375q1.140625 -0.796875 3.125 -0.796875q1.25 0 2.265625 0.40625q1.015625 0.40625 1.734375 0.875l-1.234375 1.640625q-0.6875 -0.4375 -1.46875 -0.65625q-0.78125 -0.21875 -1.546875 -0.21875q-0.421875 0 -0.703125 0.078125q-0.28125 0.078125 -0.4375 0.265625q-0.140625 0.171875 -0.140625 0.375q0 0.375 0.484375 0.5625q0.484375 0.171875 1.65625 0.421875q1.421875 0.328125 2.21875 0.734375q0.796875 0.40625 1.109375 0.9375q0.3125 0.53125 0.3125 1.296875q0 0.84375 -0.515625 1.515625q-0.515625 0.671875 -1.53125 1.078125q-1.015625 0.390625 -2.515625 0.390625z" fill-rule="nonzero"/><path fill="#000000" d="m136.11896 48.51849q-0.609375 0 -1.0625 -0.4375q-0.453125 -0.4375 -0.453125 -1.125q0 -0.703125 0.453125 -1.140625q0.453125 -0.4375 1.0625 -0.4375q0.640625 0 1.078125 0.4375q0.4375 0.4375 0.4375 1.140625q0 0.6875 -0.4375 1.125q-0.4375 0.4375 -1.078125 0.4375zm0 6.671875q-0.609375 0 -1.0625 -0.4375q-0.453125 -0.4375 -0.453125 -1.125q0 -0.703125 0.453125 -1.140625q0.453125 -0.4375 1.0625 -0.4375q0.640625 0 1.078125 0.4375q0.4375 0.4375 0.4375 1.140625q0 0.6875 -0.4375 1.125q-0.4375 0.4375 -1.078125 0.4375zm18.606262 -0.21875l0 -1.265625l3.4375 0l0 -8.765625l-2.671875 0l0 -1.0q0.703125 -0.09375 1.234375 -0.21875q0.546875 -0.125 1.0 -0.28125q0.453125 -0.171875 0.828125 -0.375l1.125 0l0 10.640625l3.125 0l0 1.265625l-8.078125 0zm14.709381 0.21875q-1.0625 0 -1.859375 -0.234375q-0.796875 -0.234375 -1.390625 -0.59375q-0.578125 -0.375 -1.03125 -0.796875l0.765625 -1.0q0.390625 0.359375 0.859375 0.671875q0.484375 0.296875 1.09375 0.5q0.625 0.1875 1.40625 0.1875q0.828125 0 1.515625 -0.328125q0.703125 -0.34375 1.09375 -0.9375q0.40625 -0.609375 0.40625 -1.453125q0 -1.234375 -0.8125 -1.921875q-0.796875 -0.6875 -2.109375 -0.6875q-0.75 0 -1.28125 0.1875q-0.515625 0.1875 -1.15625 0.53125l-0.8125 -0.515625l0.390625 -5.734375l6.734375 0l0 1.328125l-5.375 0l-0.3125 3.53125q0.5 -0.234375 1.015625 -0.359375q0.515625 -0.125 1.1875 -0.125q1.140625 0 2.0625 0.390625q0.9375 0.390625 1.46875 1.21875q0.546875 0.828125 0.546875 2.109375q0 1.296875 -0.625 2.203125q-0.625 0.90625 -1.640625 1.375q-1.0 0.453125 -2.140625 0.453125z" fill-rule="nonzero"/><path fill="#000000" d="m44.928608 67.69037q1.0 0 1.96875 0.53125q0.96875 0.515625 1.5 1.484375q0.53125 0.96875 0.53125 2.0q0 1.671875 -1.171875 2.84375q-1.171875 1.171875 -2.828125 1.171875q-1.671875 0 -2.84375 -1.171875q-1.171875 -1.171875 -1.171875 -2.84375q0 -1.046875 0.53125 -2.0q0.546875 -0.96875 1.5 -1.484375q0.96875 -0.53125 1.984375 -0.53125z" fill-rule="nonzero"/><path fill="#000000" d="m80.07205 77.19037q-1.21875 0 -2.4375 -0.40625q-1.21875 -0.421875 -2.09375 -1.0l1.1875 -1.71875q0.828125 0.53125 1.765625 0.8125q0.953125 0.28125 1.953125 0.28125q0.765625 0 1.125 -0.234375q0.359375 -0.234375 0.359375 -0.546875q0 -0.203125 -0.109375 -0.34375q-0.109375 -0.140625 -0.359375 -0.265625q-0.25 -0.125 -0.6875 -0.234375q-0.4375 -0.109375 -1.125 -0.25q-1.890625 -0.421875 -2.71875 -1.125q-0.8125 -0.703125 -0.8125 -1.765625q0 -1.3125 1.140625 -2.109375q1.140625 -0.796875 3.125 -0.796875q1.25 0 2.265625 0.40625q1.015625 0.40625 1.734375 0.875l-1.234375 1.640625q-0.6875 -0.4375 -1.46875 -0.65625q-0.78125 -0.21875 -1.546875 -0.21875q-0.421875 0 -0.703125 0.078125q-0.28125 0.078125 -0.4375 0.265625q-0.140625 0.171875 -0.140625 0.375q0 0.375 0.484375 0.5625q0.484375 0.171875 1.65625 0.421875q1.421875 0.328125 2.21875 0.734375q0.796875 0.40625 1.109375 0.9375q0.3125 0.53125 0.3125 1.296875q0 0.84375 -0.515625 1.515625q-0.515625 0.671875 -1.53125 1.078125q-1.015625 0.390625 -2.515625 0.390625zm11.834381 0q-1.4375 0 -2.609375 -0.5625q-1.15625 -0.578125 -1.84375 -1.65625q-0.671875 -1.09375 -0.671875 -2.625q0 -1.515625 0.6875 -2.609375q0.6875 -1.09375 1.78125 -1.671875q1.109375 -0.578125 2.34375 -0.578125q1.4375 0 2.40625 0.59375q0.96875 0.59375 1.453125 1.59375q0.5 0.984375 0.5 2.265625q0 0.359375 -0.046875 0.71875q-0.046875 0.34375 -0.078125 0.5l-7.015625 0l0 -1.84375l5.171875 0l-0.4375 0.53125q0 -1.125 -0.484375 -1.6875q-0.46875 -0.578125 -1.375 -0.578125q-0.671875 0 -1.1875 0.296875q-0.5 0.296875 -0.78125 0.921875q-0.28125 0.609375 -0.28125 1.546875q0 0.953125 0.328125 1.5625q0.34375 0.59375 0.984375 0.90625q0.640625 0.296875 1.53125 0.296875q0.625 0 1.1875 -0.171875q0.578125 -0.171875 1.203125 -0.484375l0.90625 1.65625q-0.796875 0.5 -1.765625 0.796875q-0.96875 0.28125 -1.90625 0.28125zm12.271881 0q-1.46875 0 -2.34375 -0.5q-0.859375 -0.515625 -1.25 -1.421875q-0.390625 -0.921875 -0.390625 -2.140625l0 -3.265625l-2.3125 0l0 -2.03125l2.4375 -0.109375l0.359375 -2.84375l2.25 0l0 2.84375l3.921875 0l0 2.140625l-3.921875 0l0 3.25q0 0.6875 0.203125 1.125q0.21875 0.421875 0.640625 0.625q0.421875 0.1875 1.09375 0.1875q0.546875 0 0.984375 -0.09375q0.453125 -0.09375 0.875 -0.234375l0.484375 1.96875q-0.625 0.1875 -1.359375 0.34375q-0.734375 0.15625 -1.671875 0.15625zm5.959381 -0.21875l0 -12.15625l2.734375 0l0 9.84375l5.421875 0l0 2.3125l-8.15625 0zm14.381256 0l0 -7.109375l-3.734375 0l0 -2.140625l6.46875 0l0 9.25l-2.734375 0zm1.25 -10.703125q-0.78125 0 -1.3125 -0.453125q-0.515625 -0.46875 -0.515625 -1.21875q0 -0.7656288 0.515625 -1.2343788q0.53125 -0.46875 1.3125 -0.46875q0.8125 0 1.3125 0.46875q0.515625 0.46875 0.515625 1.2343788q0 0.75 -0.515625 1.21875q-0.5 0.453125 -1.3125 0.453125zm6.178131 10.703125l0 -13.078129l2.734375 0l0 7.562504l0.078125 0l3.390625 -3.734375l3.015625 0l-6.484375 6.921875l0 2.328125l-2.734375 0zm6.53125 0l-2.6875 -4.203125l1.5625 -1.6875l4.078125 5.890625l-2.953125 0zm9.396881 0.21875q-1.4375 0 -2.609375 -0.5625q-1.15625 -0.578125 -1.84375 -1.65625q-0.671875 -1.09375 -0.671875 -2.625q0 -1.515625 0.6875 -2.609375q0.6875 -1.09375 1.78125 -1.671875q1.109375 -0.578125 2.34375 -0.578125q1.4375 0 2.40625 0.59375q0.96875 0.59375 1.453125 1.59375q0.5 0.984375 0.5 2.265625q0 0.359375 -0.046875 0.71875q-0.046875 0.34375 -0.078125 0.5l-7.015625 0l0 -1.84375l5.171875 0l-0.4375 0.53125q0 -1.125 -0.484375 -1.6875q-0.46875 -0.578125 -1.375 -0.578125q-0.671875 0 -1.1875 0.296875q-0.5 0.296875 -0.78125 0.921875q-0.28125 0.609375 -0.28125 1.546875q0 0.953125 0.328125 1.5625q0.34375 0.59375 0.984375 0.90625q0.640625 0.296875 1.53125 0.296875q0.625 0 1.1875 -0.171875q0.578125 -0.171875 1.203125 -0.484375l0.90625 1.65625q-0.796875 0.5 -1.765625 0.796875q-0.96875 0.28125 -1.90625 0.28125zm10.553131 0q-1.21875 0 -2.4375 -0.40625q-1.21875 -0.421875 -2.09375 -1.0l1.1875 -1.71875q0.828125 0.53125 1.765625 0.8125q0.953125 0.28125 1.953125 0.28125q0.765625 0 1.125 -0.234375q0.359375 -0.234375 0.359375 -0.546875q0 -0.203125 -0.109375 -0.34375q-0.109375 -0.140625 -0.359375 -0.265625q-0.25 -0.125 -0.6875 -0.234375q-0.4375 -0.109375 -1.125 -0.25q-1.890625 -0.421875 -2.71875 -1.125q-0.8125 -0.703125 -0.8125 -1.765625q0 -1.3125 1.140625 -2.109375q1.140625 -0.796875 3.125 -0.796875q1.25 0 2.265625 0.40625q1.015625 0.40625 1.734375 0.875l-1.234375 1.640625q-0.6875 -0.4375 -1.46875 -0.65625q-0.78125 -0.21875 -1.546875 -0.21875q-0.421875 0 -0.703125 0.078125q-0.28125 0.078125 -0.4375 0.265625q-0.140625 0.171875 -0.140625 0.375q0 0.375 0.484375 0.5625q0.484375 0.171875 1.65625 0.421875q1.421875 0.328125 2.21875 0.734375q0.796875 0.40625 1.109375 0.9375q0.3125 0.53125 0.3125 1.296875q0 0.84375 -0.515625 1.515625q-0.515625 0.671875 -1.53125 1.078125q-1.015625 0.390625 -2.515625 0.390625z" fill-rule="nonzero"/><path fill="#000000" d="m169.70023 70.51849q-0.609375 0 -1.0625 -0.4375q-0.453125 -0.4375 -0.453125 -1.125q0 -0.703125 0.453125 -1.140625q0.453125 -0.4375 1.0625 -0.4375q0.640625 0 1.078125 0.4375q0.4375 0.4375 0.4375 1.140625q0 0.6875 -0.4375 1.125q-0.4375 0.4375 -1.078125 0.4375zm0 6.671875q-0.609375 0 -1.0625 -0.4375q-0.453125 -0.4375 -0.453125 -1.125q0 -0.703125 0.453125 -1.140625q0.453125 -0.4375 1.0625 -0.4375q0.640625 0 1.078125 0.4375q0.4375 0.4375 0.4375 1.140625q0 0.6875 -0.4375 1.125q-0.4375 0.4375 -1.078125 0.4375z" fill-rule="nonzero"/><path fill="#000000" d="m189.65024 76.97162l2.03125 -10.078125q0.375 -1.8125 1.390625 -2.609375q1.015625 -0.8125038 2.546875 -0.8125038q0.84375 0 1.5 0.265625q0.65625 0.25 1.125 0.6406288l-0.6875 0.921875q-0.40625 -0.328125 -0.875 -0.5q-0.453125 -0.171875 -1.03125 -0.171875q-0.953125 0 -1.640625 0.53125q-0.671875 0.53125 -0.90625 1.796875l-2.015625 10.015625l-1.4375 0zm-1.015625 -7.90625l0.203125 -1.0625l2.65625 -0.09375l5.21875 0l-0.234375 1.15625l-7.84375 0zm9.725006 7.90625l1.8125 -9.0625l1.15625 0l-0.21875 1.84375l0.0625 0q0.546875 -0.546875 1.171875 -1.015625q0.640625 -0.484375 1.359375 -0.765625q0.71875 -0.296875 1.546875 -0.296875q1.1875 0 1.75 0.625q0.578125 0.609375 0.578125 1.640625q0 0.390625 -0.046875 0.765625q-0.046875 0.359375 -0.125 0.71875l-1.125 5.546875l-1.4375 0l1.09375 -5.390625q0.09375 -0.359375 0.125 -0.65625q0.03125 -0.3125 0.03125 -0.609375q0 -0.671875 -0.359375 -1.03125q-0.359375 -0.375 -1.0625 -0.375q-0.921875 0 -1.859375 0.578125q-0.921875 0.578125 -1.859375 1.625l-1.171875 5.859375l-1.421875 0z" fill-rule="nonzero"/><path fill="#000000" d="m44.928608 89.69037q1.0 0 1.96875 0.53125q0.96875 0.515625 1.5 1.484375q0.53125 0.96875 0.53125 2.0q0 1.671875 -1.171875 2.84375q-1.171875 1.171875 -2.828125 1.171875q-1.671875 0 -2.84375 -1.171875q-1.171875 -1.171875 -1.171875 -2.84375q0 -1.046875 0.53125 -2.0q0.546875 -0.96875 1.5 -1.484375q0.96875 -0.53125 1.984375 -0.53125z" fill-rule="nonzero"/><path fill="#000000" d="m79.74393 98.97162l0 -7.109375l-3.734375 0l0 -2.140625l6.46875 0l0 9.25l-2.734375 0zm1.25 -10.703125q-0.78125 0 -1.3125 -0.453125q-0.515625 -0.46875 -0.515625 -1.21875q0 -0.765625 0.515625 -1.234375q0.53125 -0.46875 1.3125 -0.46875q0.8125 0 1.3125 0.46875q0.515625 0.46875 0.515625 1.234375q0 0.75 -0.515625 1.21875q-0.5 0.453125 -1.3125 0.453125zm5.412506 10.703125l0 -9.25l2.0625 0l0.1875 1.140625l0.078125 0q0.265625 -0.5625 0.71875 -0.96875q0.46875 -0.40625 1.28125 -0.40625q0.59375 0 1.015625 0.390625q0.4375 0.375 0.578125 1.125q0.265625 -0.625 0.75 -1.0625q0.5 -0.453125 1.3125 -0.453125q0.984375 0 1.515625 0.8125q0.546875 0.796875 0.546875 2.171875l0 6.5l-2.609375 0l0 -6.3125q0 -0.828125 -0.5 -0.828125q-0.265625 0 -0.46875 0.21875q-0.1875 0.203125 -0.375 0.671875l0 6.25l-2.140625 0l0 -6.3125q0 -0.421875 -0.140625 -0.625q-0.125 -0.203125 -0.390625 -0.203125q-0.25 0 -0.4375 0.21875q-0.1875 0.203125 -0.375 0.671875l0 6.25l-2.609375 0zm14.709381 0.21875q-0.921875 0 -1.609375 -0.359375q-0.671875 -0.375 -1.046875 -1.015625q-0.375 -0.640625 -0.375 -1.421875q0 -1.546875 1.40625 -2.359375q1.40625 -0.828125 4.6875 -1.015625q-0.046875 -0.421875 -0.28125 -0.71875q-0.21875 -0.3125 -0.640625 -0.46875q-0.421875 -0.15625 -1.046875 -0.15625q-0.453125 0 -0.90625 0.109375q-0.4375 0.09375 -0.921875 0.296875q-0.46875 0.1875 -1.0 0.453125l-0.96875 -1.796875q0.640625 -0.359375 1.328125 -0.640625q0.703125 -0.28125 1.453125 -0.4375q0.765625 -0.171875 1.546875 -0.171875q1.3125 0 2.234375 0.46875q0.9375 0.453125 1.4375 1.375q0.515625 0.921875 0.515625 2.34375l0 5.296875l-2.234375 0l-0.21875 -1.046875l-0.0625 0q-0.703125 0.53125 -1.546875 0.90625q-0.828125 0.359375 -1.75 0.359375zm0.890625 -2.125q0.609375 0 1.140625 -0.25q0.546875 -0.25 1.03125 -0.625l0 -1.53125q-1.359375 0.078125 -2.125 0.28125q-0.75 0.203125 -1.046875 0.53125q-0.296875 0.3125 -0.296875 0.71875q0 0.28125 0.15625 0.484375q0.15625 0.203125 0.453125 0.296875q0.296875 0.09375 0.6875 0.09375zm11.303131 5.84375q-1.21875 0 -2.15625 -0.25q-0.9375 -0.25 -1.5 -0.78125q-0.546875 -0.515625 -0.546875 -1.34375q0 -0.5625 0.359375 -1.03125q0.375 -0.453125 1.078125 -0.8125l0 -0.078125q-0.390625 -0.25 -0.671875 -0.625q-0.265625 -0.375 -0.265625 -0.953125q0 -0.46875 0.3125 -0.9375q0.3125 -0.46875 0.796875 -0.796875l0 -0.078125q-0.5 -0.328125 -0.859375 -0.9375q-0.359375 -0.625 -0.359375 -1.4375q0 -1.109375 0.546875 -1.859375q0.5625 -0.75 1.453125 -1.125q0.90625 -0.375 1.953125 -0.375q0.859375 0 1.53125 0.234375l3.75 0l0 2.015625l-1.859375 0q0.171875 0.203125 0.28125 0.53125q0.125 0.328125 0.125 0.671875q0 1.0625 -0.515625 1.75q-0.515625 0.6875 -1.375 1.03125q-0.84375 0.328125 -1.9375 0.328125q-0.25 0 -0.59375 -0.046875q-0.328125 -0.046875 -0.671875 -0.140625q-0.21875 0.140625 -0.3125 0.296875q-0.09375 0.140625 -0.09375 0.390625q0 0.34375 0.375 0.515625q0.390625 0.171875 1.1875 0.171875l1.71875 0q1.828125 0 2.78125 0.546875q0.96875 0.53125 0.96875 1.78125q0 0.96875 -0.671875 1.71875q-0.671875 0.765625 -1.921875 1.1875q-1.234375 0.4375 -2.90625 0.4375zm0.140625 -8.53125q0.390625 0 0.703125 -0.15625q0.328125 -0.171875 0.515625 -0.515625q0.1875 -0.34375 0.1875 -0.859375q0 -0.484375 -0.1875 -0.8125q-0.1875 -0.34375 -0.515625 -0.515625q-0.3125 -0.171875 -0.703125 -0.171875q-0.375 0 -0.6875 0.171875q-0.3125 0.171875 -0.5 0.515625q-0.1875 0.328125 -0.1875 0.8125q0 0.515625 0.1875 0.859375q0.1875 0.34375 0.5 0.515625q0.3125 0.15625 0.6875 0.15625zm0.25 6.796875q0.75 0 1.296875 -0.15625q0.5625 -0.140625 0.875 -0.390625q0.328125 -0.25 0.328125 -0.578125q0 -0.46875 -0.421875 -0.59375q-0.40625 -0.109375 -1.203125 -0.109375l-1.15625 0q-0.5 0 -0.828125 -0.046875q-0.328125 -0.03125 -0.59375 -0.078125q-0.359375 0.21875 -0.515625 0.421875q-0.140625 0.21875 -0.140625 0.484375q0 0.5 0.640625 0.765625q0.640625 0.28125 1.71875 0.28125zm11.787506 -1.984375q-1.4375 0 -2.609375 -0.5625q-1.15625 -0.578125 -1.84375 -1.65625q-0.671875 -1.09375 -0.671875 -2.625q0 -1.515625 0.6875 -2.609375q0.6875 -1.09375 1.78125 -1.671875q1.109375 -0.578125 2.34375 -0.578125q1.4375 0 2.40625 0.59375q0.96875 0.59375 1.453125 1.59375q0.5 0.984375 0.5 2.265625q0 0.359375 -0.046875 0.71875q-0.046875 0.34375 -0.078125 0.5l-7.015625 0l0 -1.84375l5.171875 0l-0.4375 0.53125q0 -1.125 -0.484375 -1.6875q-0.46875 -0.578125 -1.375 -0.578125q-0.671875 0 -1.1875 0.296875q-0.5 0.296875 -0.78125 0.921875q-0.28125 0.609375 -0.28125 1.546875q0 0.953125 0.328125 1.5625q0.34375 0.59375 0.984375 0.90625q0.640625 0.296875 1.53125 0.296875q0.625 0 1.1875 -0.171875q0.578125 -0.171875 1.203125 -0.484375l0.90625 1.65625q-0.796875 0.5 -1.765625 0.796875q-0.96875 0.28125 -1.90625 0.28125zm10.553131 0q-1.21875 0 -2.4375 -0.40625q-1.21875 -0.421875 -2.09375 -1.0l1.1875 -1.71875q0.828125 0.53125 1.765625 0.8125q0.953125 0.28125 1.953125 0.28125q0.765625 0 1.125 -0.234375q0.359375 -0.234375 0.359375 -0.546875q0 -0.203125 -0.109375 -0.34375q-0.109375 -0.140625 -0.359375 -0.265625q-0.25 -0.125 -0.6875 -0.234375q-0.4375 -0.109375 -1.125 -0.25q-1.890625 -0.421875 -2.71875 -1.125q-0.8125 -0.703125 -0.8125 -1.765625q0 -1.3125 1.140625 -2.109375q1.140625 -0.796875 3.125 -0.796875q1.25 0 2.265625 0.40625q1.015625 0.40625 1.734375 0.875l-1.234375 1.640625q-0.6875 -0.4375 -1.46875 -0.65625q-0.78125 -0.21875 -1.546875 -0.21875q-0.421875 0 -0.703125 0.078125q-0.28125 0.078125 -0.4375 0.265625q-0.140625 0.171875 -0.140625 0.375q0 0.375 0.484375 0.5625q0.484375 0.171875 1.65625 0.421875q1.421875 0.328125 2.21875 0.734375q0.796875 0.40625 1.109375 0.9375q0.3125 0.53125 0.3125 1.296875q0 0.84375 -0.515625 1.515625q-0.515625 0.671875 -1.53125 1.078125q-1.015625 0.390625 -2.515625 0.390625z" fill-rule="nonzero"/><path fill="#000000" d="m147.31271 92.51849q-0.609375 0 -1.0625 -0.4375q-0.453125 -0.4375 -0.453125 -1.125q0 -0.703125 0.453125 -1.140625q0.453125 -0.4375 1.0625 -0.4375q0.640625 0 1.078125 0.4375q0.4375 0.4375 0.4375 1.140625q0 0.6875 -0.4375 1.125q-0.4375 0.4375 -1.078125 0.4375zm0 6.671875q-0.609375 0 -1.0625 -0.4375q-0.453125 -0.4375 -0.453125 -1.125q0 -0.703125 0.453125 -1.140625q0.453125 -0.4375 1.0625 -0.4375q0.640625 0 1.078125 0.4375q0.4375 0.4375 0.4375 1.140625q0 0.6875 -0.4375 1.125q-0.4375 0.4375 -1.078125 0.4375zm20.996887 2.609375l0 -16.03125l5.15625 0l0 0.875l-3.9375 0l0 14.28125l3.9375 0l0 0.875l-5.15625 0zm15.225006 0q-1.765625 0 -2.609375 -0.515625q-0.84375 -0.515625 -0.84375 -1.953125q0 -0.6875 0.03125 -1.265625q0.03125 -0.59375 0.078125 -1.15625q0.046875 -0.5625 0.046875 -1.1875q0 -0.375 -0.21875 -0.6875q-0.203125 -0.328125 -0.796875 -0.546875q-0.578125 -0.21875 -1.6875 -0.21875l0 -0.96875q1.109375 0 1.6875 -0.203125q0.59375 -0.21875 0.796875 -0.546875q0.21875 -0.34375 0.21875 -0.703125q0 -0.578125 -0.046875 -1.15625q-0.046875 -0.59375 -0.078125 -1.1875q-0.03125 -0.609375 -0.03125 -1.265625q0 -1.421875 0.84375 -1.9375q0.84375 -0.53125 2.609375 -0.53125l1.125 0l0 0.875l-0.96875 0q-0.953125 0 -1.453125 0.171875q-0.484375 0.171875 -0.671875 0.546875q-0.1875 0.359375 -0.1875 0.96875q0 0.8125 0.046875 1.65625q0.0625 0.84375 0.0625 1.734375q0 0.890625 -0.359375 1.375q-0.359375 0.484375 -1.328125 0.65625l0 0.0625q0.96875 0.171875 1.328125 0.65625q0.359375 0.484375 0.359375 1.390625q0 0.921875 -0.0625 1.71875q-0.046875 0.796875 -0.046875 1.65625q0 0.59375 0.1875 0.96875q0.1875 0.375 0.671875 0.546875q0.5 0.171875 1.453125 0.171875l0.96875 0l0 0.875l-1.125 0zm4.803131 0l0 -0.875l0.953125 0q0.96875 0 1.453125 -0.171875q0.5 -0.171875 0.6875 -0.546875q0.1875 -0.375 0.1875 -0.96875q0 -0.859375 -0.0625 -1.65625q-0.046875 -0.796875 -0.046875 -1.71875q0 -0.90625 0.359375 -1.390625q0.359375 -0.484375 1.328125 -0.65625l0 -0.0625q-0.96875 -0.171875 -1.328125 -0.65625q-0.359375 -0.484375 -0.359375 -1.375q0 -0.890625 0.046875 -1.734375q0.0625 -0.84375 0.0625 -1.65625q0 -0.609375 -0.1875 -0.96875q-0.1875 -0.375 -0.6875 -0.546875q-0.484375 -0.171875 -1.453125 -0.171875l-0.953125 0l0 -0.875l1.140625 0q1.75 0 2.59375 0.53125q0.84375 0.515625 0.84375 1.9375q0 0.65625 -0.046875 1.265625q-0.03125 0.59375 -0.078125 1.1875q-0.046875 0.578125 -0.046875 1.15625q0 0.359375 0.203125 0.703125q0.21875 0.328125 0.8125 0.546875q0.59375 0.203125 1.6875 0.203125l0 0.96875q-1.09375 0 -1.6875 0.21875q-0.59375 0.21875 -0.8125 0.546875q-0.203125 0.3125 -0.203125 0.6875q0 0.625 0.046875 1.1875q0.046875 0.5625 0.078125 1.15625q0.046875 0.578125 0.046875 1.265625q0 1.4375 -0.84375 1.953125q-0.84375 0.515625 -2.59375 0.515625l-1.140625 0zm13.459381 1.140625l-0.4375 -0.96875q1.203125 -0.515625 1.78125 -1.3125q0.578125 -0.796875 0.578125 -1.953125l-0.359375 -1.71875l1.046875 1.484375q-0.21875 0.25 -0.5 0.34375q-0.265625 0.078125 -0.546875 0.078125q-0.390625 0 -0.734375 -0.15625q-0.328125 -0.15625 -0.53125 -0.453125q-0.1875 -0.3125 -0.1875 -0.78125q0 -0.703125 0.4375 -1.0625q0.453125 -0.359375 1.046875 -0.359375q0.828125 0 1.25 0.640625q0.4375 0.640625 0.4375 1.75q0 1.640625 -0.875 2.765625q-0.875 1.125 -2.40625 1.703125zm26.512512 -1.140625q-1.765625 0 -2.609375 -0.515625q-0.84375 -0.515625 -0.84375 -1.953125q0 -0.6875 0.03125 -1.265625q0.03125 -0.59375 0.078125 -1.15625q0.046875 -0.5625 0.046875 -1.1875q0 -0.375 -0.21875 -0.6875q-0.203125 -0.328125 -0.796875 -0.546875q-0.578125 -0.21875 -1.6875 -0.21875l0 -0.96875q1.109375 0 1.6875 -0.203125q0.59375 -0.21875 0.796875 -0.546875q0.21875 -0.34375 0.21875 -0.703125q0 -0.578125 -0.046875 -1.15625q-0.046875 -0.59375 -0.078125 -1.1875q-0.03125 -0.609375 -0.03125 -1.265625q0 -1.421875 0.84375 -1.9375q0.84375 -0.53125 2.609375 -0.53125l1.125 0l0 0.875l-0.96875 0q-0.953125 0 -1.453125 0.171875q-0.484375 0.171875 -0.671875 0.546875q-0.1875 0.359375 -0.1875 0.96875q0 0.8125 0.046875 1.65625q0.0625 0.84375 0.0625 1.734375q0 0.890625 -0.359375 1.375q-0.359375 0.484375 -1.328125 0.65625l0 0.0625q0.96875 0.171875 1.328125 0.65625q0.359375 0.484375 0.359375 1.390625q0 0.921875 -0.0625 1.71875q-0.046875 0.796875 -0.046875 1.65625q0 0.59375 0.1875 0.96875q0.1875 0.375 0.671875 0.546875q0.5 0.171875 1.453125 0.171875l0.96875 0l0 0.875l-1.125 0zm4.803131 0l0 -0.875l0.953125 0q0.96875 0 1.453125 -0.171875q0.5 -0.171875 0.6875 -0.546875q0.1875 -0.375 0.1875 -0.96875q0 -0.859375 -0.0625 -1.65625q-0.046875 -0.796875 -0.046875 -1.71875q0 -0.90625 0.359375 -1.390625q0.359375 -0.484375 1.328125 -0.65625l0 -0.0625q-0.96875 -0.171875 -1.328125 -0.65625q-0.359375 -0.484375 -0.359375 -1.375q0 -0.890625 0.046875 -1.734375q0.0625 -0.84375 0.0625 -1.65625q0 -0.609375 -0.1875 -0.96875q-0.1875 -0.375 -0.6875 -0.546875q-0.484375 -0.171875 -1.453125 -0.171875l-0.953125 0l0 -0.875l1.140625 0q1.75 0 2.59375 0.53125q0.84375 0.515625 0.84375 1.9375q0 0.65625 -0.046875 1.265625q-0.03125 0.59375 -0.078125 1.1875q-0.046875 0.578125 -0.046875 1.15625q0 0.359375 0.203125 0.703125q0.21875 0.328125 0.8125 0.546875q0.59375 0.203125 1.6875 0.203125l0 0.96875q-1.09375 0 -1.6875 0.21875q-0.59375 0.21875 -0.8125 0.546875q-0.203125 0.3125 -0.203125 0.6875q0 0.625 0.046875 1.1875q0.046875 0.5625 0.078125 1.15625q0.046875 0.578125 0.046875 1.265625q0 1.4375 -0.84375 1.953125q-0.84375 0.515625 -2.59375 0.515625l-1.140625 0zm13.459381 1.140625l-0.4375 -0.96875q1.203125 -0.515625 1.78125 -1.3125q0.578125 -0.796875 0.578125 -1.953125l-0.359375 -1.71875l1.046875 1.484375q-0.21875 0.25 -0.5 0.34375q-0.265625 0.078125 -0.546875 0.078125q-0.390625 0 -0.734375 -0.15625q-0.328125 -0.15625 -0.53125 -0.453125q-0.1875 -0.3125 -0.1875 -0.78125q0 -0.703125 0.4375 -1.0625q0.453125 -0.359375 1.046875 -0.359375q0.828125 0 1.25 0.640625q0.4375 0.640625 0.4375 1.75q0 1.640625 -0.875 2.765625q-0.875 1.125 -2.40625 1.703125zm26.512512 -1.140625q-1.765625 0 -2.609375 -0.515625q-0.84375 -0.515625 -0.84375 -1.953125q0 -0.6875 0.03125 -1.265625q0.03125 -0.59375 0.078125 -1.15625q0.046875 -0.5625 0.046875 -1.1875q0 -0.375 -0.21875 -0.6875q-0.203125 -0.328125 -0.796875 -0.546875q-0.578125 -0.21875 -1.6875 -0.21875l0 -0.96875q1.109375 0 1.6875 -0.203125q0.59375 -0.21875 0.796875 -0.546875q0.21875 -0.34375 0.21875 -0.703125q0 -0.578125 -0.046875 -1.15625q-0.046875 -0.59375 -0.078125 -1.1875q-0.03125 -0.609375 -0.03125 -1.265625q0 -1.421875 0.84375 -1.9375q0.84375 -0.53125 2.609375 -0.53125l1.125 0l0 0.875l-0.96875 0q-0.953125 0 -1.453125 0.171875q-0.484375 0.171875 -0.671875 0.546875q-0.1875 0.359375 -0.1875 0.96875q0 0.8125 0.046875 1.65625q0.0625 0.84375 0.0625 1.734375q0 0.890625 -0.359375 1.375q-0.359375 0.484375 -1.328125 0.65625l0 0.0625q0.96875 0.171875 1.328125 0.65625q0.359375 0.484375 0.359375 1.390625q0 0.921875 -0.0625 1.71875q-0.046875 0.796875 -0.046875 1.65625q0 0.59375 0.1875 0.96875q0.1875 0.375 0.671875 0.546875q0.5 0.171875 1.453125 0.171875l0.96875 0l0 0.875l-1.125 0zm4.803131 0l0 -0.875l0.953125 0q0.96875 0 1.453125 -0.171875q0.5 -0.171875 0.6875 -0.546875q0.1875 -0.375 0.1875 -0.96875q0 -0.859375 -0.0625 -1.65625q-0.046875 -0.796875 -0.046875 -1.71875q0 -0.90625 0.359375 -1.390625q0.359375 -0.484375 1.328125 -0.65625l0 -0.0625q-0.96875 -0.171875 -1.328125 -0.65625q-0.359375 -0.484375 -0.359375 -1.375q0 -0.890625 0.046875 -1.734375q0.0625 -0.84375 0.0625 -1.65625q0 -0.609375 -0.1875 -0.96875q-0.1875 -0.375 -0.6875 -0.546875q-0.484375 -0.171875 -1.453125 -0.171875l-0.953125 0l0 -0.875l1.140625 0q1.75 0 2.59375 0.53125q0.84375 0.515625 0.84375 1.9375q0 0.65625 -0.046875 1.265625q-0.03125 0.59375 -0.078125 1.1875q-0.046875 0.578125 -0.046875 1.15625q0 0.359375 0.203125 0.703125q0.21875 0.328125 0.8125 0.546875q0.59375 0.203125 1.6875 0.203125l0 0.96875q-1.09375 0 -1.6875 0.21875q-0.59375 0.21875 -0.8125 0.546875q-0.203125 0.3125 -0.203125 0.6875q0 0.625 0.046875 1.1875q0.046875 0.5625 0.078125 1.15625q0.046875 0.578125 0.046875 1.265625q0 1.4375 -0.84375 1.953125q-0.84375 0.515625 -2.59375 0.515625l-1.140625 0zm11.178131 0l0 -0.875l3.9375 0l0 -14.28125l-3.9375 0l0 -0.875l5.171875 0l0 16.03125l-5.171875 0z" fill-rule="nonzero"/><path fill="#000000" d="m44.928608 111.69037q1.0 0 1.96875 0.53125q0.96875 0.515625 1.5 1.484375q0.53125 0.96875 0.53125 2.0q0 1.671875 -1.171875 2.84375q-1.171875 1.171875 -2.828125 1.171875q-1.671875 0 -2.84375 -1.171875q-1.171875 -1.171875 -1.171875 -2.84375q0 -1.046875 0.53125 -2.0q0.546875 -0.96875 1.5 -1.484375q0.96875 -0.53125 1.984375 -0.53125z" fill-rule="nonzero"/><path fill="#000000" d="m80.07205 121.19037q-1.21875 0 -2.4375 -0.40625q-1.21875 -0.421875 -2.09375 -1.0l1.1875 -1.71875q0.828125 0.53125 1.765625 0.8125q0.953125 0.28125 1.953125 0.28125q0.765625 0 1.125 -0.234375q0.359375 -0.234375 0.359375 -0.546875q0 -0.203125 -0.109375 -0.34375q-0.109375 -0.140625 -0.359375 -0.265625q-0.25 -0.125 -0.6875 -0.234375q-0.4375 -0.109375 -1.125 -0.25q-1.890625 -0.421875 -2.71875 -1.125q-0.8125 -0.703125 -0.8125 -1.765625q0 -1.3125 1.140625 -2.109375q1.140625 -0.796875 3.125 -0.796875q1.25 0 2.265625 0.40625q1.015625 0.40625 1.734375 0.875l-1.234375 1.640625q-0.6875 -0.4375 -1.46875 -0.65625q-0.78125 -0.21875 -1.546875 -0.21875q-0.421875 0 -0.703125 0.078125q-0.28125 0.078125 -0.4375 0.265625q-0.140625 0.171875 -0.140625 0.375q0 0.375 0.484375 0.5625q0.484375 0.171875 1.65625 0.421875q1.421875 0.328125 2.21875 0.734375q0.796875 0.40625 1.109375 0.9375q0.3125 0.53125 0.3125 1.296875q0 0.84375 -0.515625 1.515625q-0.515625 0.671875 -1.53125 1.078125q-1.015625 0.390625 -2.515625 0.390625zm11.834381 0q-1.4375 0 -2.609375 -0.5625q-1.15625 -0.578125 -1.84375 -1.65625q-0.671875 -1.09375 -0.671875 -2.625q0 -1.515625 0.6875 -2.609375q0.6875 -1.09375 1.78125 -1.671875q1.109375 -0.578125 2.34375 -0.578125q1.4375 0 2.40625 0.59375q0.96875 0.59375 1.453125 1.59375q0.5 0.984375 0.5 2.265625q0 0.359375 -0.046875 0.71875q-0.046875 0.34375 -0.078125 0.5l-7.015625 0l0 -1.84375l5.171875 0l-0.4375 0.53125q0 -1.125 -0.484375 -1.6875q-0.46875 -0.578125 -1.375 -0.578125q-0.671875 0 -1.1875 0.296875q-0.5 0.296875 -0.78125 0.921875q-0.28125 0.609375 -0.28125 1.546875q0 0.953125 0.328125 1.5625q0.34375 0.59375 0.984375 0.90625q0.640625 0.296875 1.53125 0.296875q0.625 0 1.1875 -0.171875q0.578125 -0.171875 1.203125 -0.484375l0.90625 1.65625q-0.796875 0.5 -1.765625 0.796875q-0.96875 0.28125 -1.90625 0.28125zm12.271881 0q-1.46875 0 -2.34375 -0.5q-0.859375 -0.515625 -1.25 -1.421875q-0.390625 -0.921875 -0.390625 -2.140625l0 -3.265625l-2.3125 0l0 -2.03125l2.4375 -0.109375l0.359375 -2.84375l2.25 0l0 2.84375l3.921875 0l0 2.140625l-3.921875 0l0 3.25q0 0.6875 0.203125 1.125q0.21875 0.421875 0.640625 0.625q0.421875 0.1875 1.09375 0.1875q0.546875 0 0.984375 -0.09375q0.453125 -0.09375 0.875 -0.234375l0.484375 1.96875q-0.625 0.1875 -1.359375 0.34375q-0.734375 0.15625 -1.671875 0.15625zm5.334381 -0.21875l0 -2.3125l2.84375 0l0 -7.53125l-2.84375 0l0 -2.3125l8.4375 0l0 2.3125l-2.828125 0l0 7.53125l2.828125 0l0 2.3125l-8.4375 0zm10.475006 0l0 -9.25l2.0625 0l0.1875 1.140625l0.078125 0q0.265625 -0.5625 0.71875 -0.96875q0.46875 -0.40625 1.28125 -0.40625q0.59375 0 1.015625 0.390625q0.4375 0.375 0.578125 1.125q0.265625 -0.625 0.75 -1.0625q0.5 -0.453125 1.3125 -0.453125q0.984375 0 1.515625 0.8125q0.546875 0.796875 0.546875 2.171875l0 6.5l-2.609375 0l0 -6.3125q0 -0.828125 -0.5 -0.828125q-0.265625 0 -0.46875 0.21875q-0.1875 0.203125 -0.375 0.671875l0 6.25l-2.140625 0l0 -6.3125q0 -0.421875 -0.140625 -0.625q-0.125 -0.203125 -0.390625 -0.203125q-0.25 0 -0.4375 0.21875q-0.1875 0.203125 -0.375 0.671875l0 6.25l-2.609375 0zm14.709381 0.21875q-0.921875 0 -1.609375 -0.359375q-0.671875 -0.375 -1.046875 -1.015625q-0.375 -0.640625 -0.375 -1.421875q0 -1.546875 1.40625 -2.359375q1.40625 -0.828125 4.6875 -1.015625q-0.046875 -0.421875 -0.28125 -0.71875q-0.21875 -0.3125 -0.640625 -0.46875q-0.421875 -0.15625 -1.046875 -0.15625q-0.453125 0 -0.90625 0.109375q-0.4375 0.09375 -0.921875 0.296875q-0.46875 0.1875 -1.0 0.453125l-0.96875 -1.796875q0.640625 -0.359375 1.328125 -0.640625q0.703125 -0.28125 1.453125 -0.4375q0.765625 -0.171875 1.546875 -0.171875q1.3125 0 2.234375 0.46875q0.9375 0.453125 1.4375 1.375q0.515625 0.921875 0.515625 2.34375l0 5.296875l-2.234375 0l-0.21875 -1.046875l-0.0625 0q-0.703125 0.53125 -1.546875 0.90625q-0.828125 0.359375 -1.75 0.359375zm0.890625 -2.125q0.609375 0 1.140625 -0.25q0.546875 -0.25 1.03125 -0.625l0 -1.53125q-1.359375 0.078125 -2.125 0.28125q-0.75 0.203125 -1.046875 0.53125q-0.296875 0.3125 -0.296875 0.71875q0 0.28125 0.15625 0.484375q0.15625 0.203125 0.453125 0.296875q0.296875 0.09375 0.6875 0.09375zm11.303131 5.84375q-1.21875 0 -2.15625 -0.25q-0.9375 -0.25 -1.5 -0.78125q-0.546875 -0.515625 -0.546875 -1.34375q0 -0.5625 0.359375 -1.03125q0.375 -0.453125 1.078125 -0.8125l0 -0.078125q-0.390625 -0.25 -0.671875 -0.625q-0.265625 -0.375 -0.265625 -0.953125q0 -0.46875 0.3125 -0.9375q0.3125 -0.46875 0.796875 -0.796875l0 -0.078125q-0.5 -0.328125 -0.859375 -0.9375q-0.359375 -0.625 -0.359375 -1.4375q0 -1.109375 0.546875 -1.859375q0.5625 -0.75 1.453125 -1.125q0.90625 -0.375 1.953125 -0.375q0.859375 0 1.53125 0.234375l3.75 0l0 2.015625l-1.859375 0q0.171875 0.203125 0.28125 0.53125q0.125 0.328125 0.125 0.671875q0 1.0625 -0.515625 1.75q-0.515625 0.6875 -1.375 1.03125q-0.84375 0.328125 -1.9375 0.328125q-0.25 0 -0.59375 -0.046875q-0.328125 -0.046875 -0.671875 -0.140625q-0.21875 0.140625 -0.3125 0.296875q-0.09375 0.140625 -0.09375 0.390625q0 0.34375 0.375 0.515625q0.390625 0.171875 1.1875 0.171875l1.71875 0q1.828125 0 2.78125 0.546875q0.96875 0.53125 0.96875 1.78125q0 0.96875 -0.671875 1.71875q-0.671875 0.765625 -1.921875 1.1875q-1.234375 0.4375 -2.90625 0.4375zm0.140625 -8.53125q0.390625 0 0.703125 -0.15625q0.328125 -0.171875 0.515625 -0.515625q0.1875 -0.34375 0.1875 -0.859375q0 -0.484375 -0.1875 -0.8125q-0.1875 -0.34375 -0.515625 -0.515625q-0.3125 -0.171875 -0.703125 -0.171875q-0.375 0 -0.6875 0.171875q-0.3125 0.171875 -0.5 0.515625q-0.1875 0.328125 -0.1875 0.8125q0 0.515625 0.1875 0.859375q0.1875 0.34375 0.5 0.515625q0.3125 0.15625 0.6875 0.15625zm0.25 6.796875q0.75 0 1.296875 -0.15625q0.5625 -0.140625 0.875 -0.390625q0.328125 -0.25 0.328125 -0.578125q0 -0.46875 -0.421875 -0.59375q-0.40625 -0.109375 -1.203125 -0.109375l-1.15625 0q-0.5 0 -0.828125 -0.046875q-0.328125 -0.03125 -0.59375 -0.078125q-0.359375 0.21875 -0.515625 0.421875q-0.140625 0.21875 -0.140625 0.484375q0 0.5 0.640625 0.765625q0.640625 0.28125 1.71875 0.28125zm11.787506 -1.984375q-1.4375 0 -2.609375 -0.5625q-1.15625 -0.578125 -1.84375 -1.65625q-0.671875 -1.09375 -0.671875 -2.625q0 -1.515625 0.6875 -2.609375q0.6875 -1.09375 1.78125 -1.671875q1.109375 -0.578125 2.34375 -0.578125q1.4375 0 2.40625 0.59375q0.96875 0.59375 1.453125 1.59375q0.5 0.984375 0.5 2.265625q0 0.359375 -0.046875 0.71875q-0.046875 0.34375 -0.078125 0.5l-7.015625 0l0 -1.84375l5.171875 0l-0.4375 0.53125q0 -1.125 -0.484375 -1.6875q-0.46875 -0.578125 -1.375 -0.578125q-0.671875 0 -1.1875 0.296875q-0.5 0.296875 -0.78125 0.921875q-0.28125 0.609375 -0.28125 1.546875q0 0.953125 0.328125 1.5625q0.34375 0.59375 0.984375 0.90625q0.640625 0.296875 1.53125 0.296875q0.625 0 1.1875 -0.171875q0.578125 -0.171875 1.203125 -0.484375l0.90625 1.65625q-0.796875 0.5 -1.765625 0.796875q-0.96875 0.28125 -1.90625 0.28125zm10.553131 0q-1.21875 0 -2.4375 -0.40625q-1.21875 -0.421875 -2.09375 -1.0l1.1875 -1.71875q0.828125 0.53125 1.765625 0.8125q0.953125 0.28125 1.953125 0.28125q0.765625 0 1.125 -0.234375q0.359375 -0.234375 0.359375 -0.546875q0 -0.203125 -0.109375 -0.34375q-0.109375 -0.140625 -0.359375 -0.265625q-0.25 -0.125 -0.6875 -0.234375q-0.4375 -0.109375 -1.125 -0.25q-1.890625 -0.421875 -2.71875 -1.125q-0.8125 -0.703125 -0.8125 -1.765625q0 -1.3125 1.140625 -2.109375q1.140625 -0.796875 3.125 -0.796875q1.25 0 2.265625 0.40625q1.015625 0.40625 1.734375 0.875l-1.234375 1.640625q-0.6875 -0.4375 -1.46875 -0.65625q-0.78125 -0.21875 -1.546875 -0.21875q-0.421875 0 -0.703125 0.078125q-0.28125 0.078125 -0.4375 0.265625q-0.140625 0.171875 -0.140625 0.375q0 0.375 0.484375 0.5625q0.484375 0.171875 1.65625 0.421875q1.421875 0.328125 2.21875 0.734375q0.796875 0.40625 1.109375 0.9375q0.3125 0.53125 0.3125 1.296875q0 0.84375 -0.515625 1.515625q-0.515625 0.671875 -1.53125 1.078125q-1.015625 0.390625 -2.515625 0.390625z" fill-rule="nonzero"/><path fill="#000000" d="m180.89398 114.51849q-0.609375 0 -1.0625 -0.4375q-0.453125 -0.4375 -0.453125 -1.125q0 -0.703125 0.453125 -1.140625q0.453125 -0.4375 1.0625 -0.4375q0.640625 0 1.078125 0.4375q0.4375 0.4375 0.4375 1.140625q0 0.6875 -0.4375 1.125q-0.4375 0.4375 -1.078125 0.4375zm0 6.671875q-0.609375 0 -1.0625 -0.4375q-0.453125 -0.4375 -0.453125 -1.125q0 -0.703125 0.453125 -1.140625q0.453125 -0.4375 1.0625 -0.4375q0.640625 0 1.078125 0.4375q0.4375 0.4375 0.4375 1.140625q0 0.6875 -0.4375 1.125q-0.4375 0.4375 -1.078125 0.4375z" fill-rule="nonzero"/><path fill="#000000" d="m200.844 120.97162l2.03125 -10.078125q0.375 -1.8125 1.390625 -2.609375q1.015625 -0.8125 2.546875 -0.8125q0.84375 0 1.5 0.265625q0.65625 0.25 1.125 0.640625l-0.6875 0.921875q-0.40625 -0.328125 -0.875 -0.5q-0.453125 -0.171875 -1.03125 -0.171875q-0.953125 0 -1.640625 0.53125q-0.671875 0.53125 -0.90625 1.796875l-2.015625 10.015625l-1.4375 0zm-1.015625 -7.90625l0.203125 -1.0625l2.65625 -0.09375l5.21875 0l-0.234375 1.15625l-7.84375 0zm9.725006 7.90625l1.8125 -9.0625l1.15625 0l-0.21875 1.84375l0.0625 0q0.546875 -0.546875 1.171875 -1.015625q0.640625 -0.484375 1.359375 -0.765625q0.71875 -0.296875 1.546875 -0.296875q1.1875 0 1.75 0.625q0.578125 0.609375 0.578125 1.640625q0 0.390625 -0.046875 0.765625q-0.046875 0.359375 -0.125 0.71875l-1.125 5.546875l-1.4375 0l1.09375 -5.390625q0.09375 -0.359375 0.125 -0.65625q0.03125 -0.3125 0.03125 -0.609375q0 -0.671875 -0.359375 -1.03125q-0.359375 -0.375 -1.0625 -0.375q-0.921875 0 -1.859375 0.578125q-0.921875 0.578125 -1.859375 1.625l-1.171875 5.859375l-1.421875 0z" fill-rule="nonzero"/></g></svg>